/* XPM */
static char *_ee5ff803cf748bcb7186f6a34e1babaDVe8ZBHVwpP7zFqc[] = {
/* columns rows colors chars-per-pixel */
"60 110 36 1 ",
"  c None",
". c #131313",
"X c #1B1B1B",
"o c #331717",
"O c #3F1F1B",
"+ c #232323",
"@ c gray17",
"# c #4F271F",
"$ c #572B1F",
"% c #4B2723",
"& c #5B2F27",
"* c #5F2F27",
"= c #6B372F",
"- c #6B3B2B",
"; c #774B27",
": c #77432F",
"> c #734B37",
", c #7F4B3F",
"< c #7F573B",
"1 c #874F33",
"2 c #8B5337",
"3 c #8F5B3B",
"4 c #975F3F",
"5 c #8F633F",
"6 c #87534B",
"7 c #9B6743",
"8 c #9F6F4B",
"9 c #9B6F4F",
"0 c #A3734F",
"q c #AB7B53",
"w c #A77F5B",
"e c #AF835B",
"r c #B38B5F",
"t c #BB8F67",
"y c #BF976B",
"u c #C39F73",
/* pixels */
"                           yyrerr                           ",
"                          trwwqqq95                         ",
"                         ee8877433<>                        ",
"                         q5343337<>;                        ",
"                         753787883:=                        ",
"                         75300qe072:                        ",
"                         >130eeee83:                        ",
"                         -130eeer83:-                       ",
"                          :380qeq83:-                       ",
"                          :38q008733&                       ",
"                          :377874333&                       ",
"                          :344443331-                       ",
"                          :244474441-                       ",
"                          :247780843:                       ",
"                          :34780q8742                       ",
"                          :3700qq8831                       ",
"                          :3700qq8841&                      ",
"                          :3700qeq84:&                      ",
"                          :3700qeq83:&                      ",
"                          :3800ee083-&                      ",
"                         &:3780eeq83-&                      ",
"                         &:370qeqq73-&                      ",
"                         &1370qeee03:&                      ",
"                         -137700eq03--         -13321       ",
"                         -14078q0073:&        1280744:      ",
"                         :14777q0842:&&      30qq0771--     ",
"                         :377770q831:-#&    7qqee0741-&     ",
"                         1378870e042:-&##-17qrrer8711-&&    ",
"                        &1380080rq721--::14qrree074::&&#    ",
"                        -370ee08rq721::137qrreq0831:&&&#    ",
"                        -38ete00eq721::340qqqq8041:-&&#O    ",
"                       O:30tt000er421:244qqq00q83:-&&#OO    ",
"                       &178qq088eq31::114888qqq81:-&&#O     ",
"                      @-38808778qe3::-11488qerr73:&&#O      ",
"                      &18eq07378qe2:--13780eree83-&#OO      ",
"                     +-18ee0737qee:--:1377qeete7:&&OO       ",
"       -&$          +&138req877qq8:--::1378eyt03-&OO        ",
"    6::::*$         &-17qtre074q07-&---138qeyt01-#O         ",
"   222,2::*$       .-138qerrq77084-&&-1388q0ye31-#O         ",
"  -444311:-%X     @&1380eerrq88eq1&---:3378qt03:&#O         ",
"  37743111--&     #&378qeeerq8qq8:&&--13378ye81-####        ",
" 138443111:-&#ooO#-1170eeqrrq0qq7:-&-:13700y04:&&&###       ",
" 188443111:-&&&#&&11480eeqeq080t71-&-:3780et83:&#&&&&#      ",
" 387423111--&&###-1380qtqqq8470e7:&&:1787qqe83-#&---&#      ",
" 37342111---&&##-118qeeeeq747qqe4:&-13788qre03-&--1:-&O     ",
"-13344221::&&#&-178erreeq84408et3:-:33788qte83:-:111:-#     ",
"&:137887422---:170ettrq0077887et4:-:1378qeye81--11111-&     ",
"&:180qtq874113770etttr04774788tt81-:3870qeyq31-:11133:##    ",
"&188qeyee0413700eyytye83348777et01:147788qe031-:12333-#O    ",
"-177qteye0148eetyuytrq43337878ee83148800ete084::23333-#O    ",
":13888eye08qeryyyyyre073144777te87000qeeqrr7432122741&#O    ",
"::3888eeeeetttyytrq00877474300q0047877743qe3-13327071&#O    ",
"-:133888qeertttrrq737744748eee04231:11118q81-:223771-&#&#   ",
"-::1337888qeeerqq0733843488e078771::1113q04--:334871-&-&##  ",
"&:--1138880qeqeq084380478434770871123217q81--134804:-&-&&#  ",
"&---1133888qqerr8748q0432234780q71233228q4:&:138073:-:1-&#  ",
"#----1137788e807330r8833334778rq3123213003:-:37773:--111&#  ",
"#&----12444733784qqq7813434770r83:23122q71:-337873:-113--#  ",
"#&&&&-224444788qqq848714444780rq2237227e41-:277833:-131-&#  ",
"###&----3747800874470244443377q8314722q831::347842-1211-&#  ",
"#&&#&--:1122234323788343432370rq437712842::1378421:122-&&#  ",
"##&&&--1::1223234770473432133qq033721872::1340872:1222-&##  ",
"####&&11::222344478877743113708833731733::177072211::-&&##  ",
" #O#&-12222422223404773411137q0847722731-:1847721-11::&&#   ",
" #O##&-1-1223324388377441113887847713431-12874721-11-:&&#   ",
" OO#&&-:-121132438338774112740737331331-:1137342:-11--&#    ",
" OOO##&-:111332247124772112780733423211:32137442-:::-&&#    ",
"  O###&--:1111124412473111247033343321:113217742:::--&&#    ",
"  OOO##&--1111:241222431112438333442211333213711---&&&O#    ",
"  OOO###&--::::24:22473311344723443111321431141-11-&&&#     ",
"   OO#&&&&-:::137243473111447733443237334131121-:---&&#     ",
"   OOO&##&&--1132274473111477773373112220322211:-1--&&#     ",
"    #O#&##&-&&11222743131:47734323311337827211--:--&&#&     ",
"    oOO##O&&-&:1::2741111:473374243:11384333:---:-&&&#      ",
"     oO#&##&&&:1::14711111743732413::3307472:------&&&      ",
"     oOO###&&&-1::133::::2743732213:138080731---&--&&#      ",
"      OO#&##&&&:::--21:::443343342::17804241--::&&&###      ",
"      oO#&&#&&--&&-:-1111413378221--14832431-1::--&&#       ",
"       OO#&##&-&&&&-:11::413777331:-2871321113:---&&#       ",
"        ###&#-&&&&&:111:23348773331:147121::222---&##       ",
"        OO###&&&&&-:11112332774331237741121:221--&&##       ",
"         OO&#&&&-&::111143324422733437111212222:-&&#        ",
"          O#&#O&&&::11114411422433377811-133331:--&#        ",
"          O####o&&::1111431174222237784221:331--&&##        ",
"           #&###&-::1433221174448324771111:11--&&&##        ",
"           O#&&&&&::142223114447711378411131--&&&O#         ",
"            O&&&&-:::1122::1173442313742222:----&Oo         ",
"            OO&&&-:::1:2-2:141324438334343411--&&#O         ",
"             O&&&&-:::11:33341224347873412123-&&&O#         ",
"             O##&&-&1----33:::1243444473222231-&&##         ",
"              O###&&:---332---122347874474721:1&&#&         ",
"              o####&-1:2121-122133777321141431--&&&O        ",
"               O#&#&-11::1:11:3377707821321:1131-&&#        ",
"               o#O#&:113112221::3780777822121:1:--&&        ",
"               OOO##-:111322211377733733333234231--&        ",
"                OO##&-13134443337344441132341:1111-&&       ",
"                OO#&&--2134423111447744213211::2::-&&       ",
"                oO#&&-:112422111333344422122144331-&&#      ",
"                 oOO&--:1222133333111134343874111-:-&&      ",
"                 oO#&&-:11113333311:333133732:::12:--##     ",
"                 oO#&&-::1113311111134471111222:1::1:##     ",
"                 oO#&&--:11:113311:33433324344421::::-##    ",
"                  OO&#--:1:111133133374434731134223::&&#    ",
"                  oO##&-::1::1333::113323132111122111&-&#   ",
"                  OO##&--:1:--:::::1111122233211311::-&#&   ",
"                  oO##&&::1:-----:1311::22227412332::&&#&#  ",
"                  oO###&-::----1:113::2:1:144444::::2:-&&&  ",
"                  oO##&&-::------:1::13222241233::-::&-#&#- ",
"                  oO####&-:---&---:-3331212232322:111---&&# ",
"                  oo####&-::--&---111133333333133232131-&&##"
};
