/* XPM */
static char *_1831ef555754c73bcd8bd47046fe291KuCe2Uzip65bPdhh[] = {
/* columns rows colors chars-per-pixel */
"59 92 33 1 ",
"  c None",
". c #101010",
"X c #181818",
"o c #301414",
"O c #3C1C18",
"+ c #202020",
"@ c #282828",
"# c #4C241C",
"$ c #54281C",
"% c #482420",
"& c #5C2C24",
"* c #543028",
"= c #603C2C",
"- c #683828",
"; c #74402C",
": c #704834",
"> c #7C483C",
", c #7C5438",
"< c #844C30",
"1 c #885034",
"2 c #8C5838",
"3 c #945C3C",
"4 c #8C603C",
"5 c #845048",
"6 c #986440",
"7 c #9C6C48",
"8 c #A0704C",
"9 c #A87850",
"0 c #AC8058",
"q c #B0885C",
"w c #B88C64",
"e c #BC9468",
"r c #C09C70",
/* pixels */
"                                 2332<                     ",
"                               26909832                    ",
"                             23900w09831                   ",
"                            26900wew0961                   ",
"                            390wwwwww082                   ",
"                           399wweewew093                   ",
"                           990wwwwew0093       -12211      ",
"                          389wweewew0063      1188633;     ",
"                          689wwwwwew0963     28998661--    ",
"                         <689wwwweww082<    699008631-&    ",
"                         369wwewwww08622#<269qq0q8611-&&   ",
"                        =689wwewwww9621;*<39qq00863;;&&#   ",
"                        <390wwwwww983<;*;30qq098821;&&&#   ",
"                        ;690w0www98622;*29q9998831;-&&#O   ",
"                       &269wwwww996218;;99q988982;-&&#OO   ",
"                       :699weww0986639=;9w8899981;-&&#O    ",
"                      @>990wwe00083368;3we890qq62;&&#O     ",
"                      &199weewe0933368;9ww80q0082-&#OO     ",
"                     +-189wweww98333686w96900w06;&&OO      ",
"       -&$          +&12389ww098623390992680ew82-&OO       ",
"    5;;;;&$         &-16280w098323339w412890ew81-#O        ",
"   111>1;;&$       .-12728996263133684128898e021-#O        ",
"  -333211;-%X     @&128826862662<1122-;22689w82;&#O        ",
"  26632111--&     #&26893863221<<;12;-12268e081-####       ",
" 128332111;-&#ooO#-116803862<;;==<;&-;12688e83;&&&###      ",
" 188332111;-&&&#&&11388097762::,:<-&-;26880w82;&#&&&&#     ",
" 286312111--&&###-12889w999836806;&&;168699082-#&---&#     ",
" 26231111---&&##-1189000096369903;&-126889q082-&--1;-&O    ",
"-12233111;;&&#&-1680qq009833880w2;-;226889w082;-;111;-#    ",
"&;126886311---;1680wwq988668860w3;-;126890e081--11111-&    ",
"&;1889w98631126680wwwq83663688ww81-;286890e921-;11122;##   ",
"&18890e0083126880eewe0822386660w81;13668890821-;11222-#O   ",
"-1669w0e0813800werewq93222686800821388880w0883;;12222-#O   ",
";128880e08890qeeeeeq0862133666w0868889009qq6321111631&#O   ",
";;288800000wwweewq98886636328898836866632902-12216861&#O   ",
"-;122888900qwwwqq962663363800083121;11118981-;112661-&#&#  ",
"-;;12268889000q9986228323880868661;;1112983--;223861-&-&## ",
"&;--112888890909883288368323668861112116981--123883;-&-&&# ",
"&---1122888990qq86389832112368896112211893;&;128862;-;1-&# ",
"#----11266880886228q8822223668q92112112882;-;26662;--111&# ",
"#&----113336226839996812323668q82;12111961;-226862;-112--# ",
"#&&&&-113333688999838613333688q91126116031-;166822;-121-&# ",
"###&----2636888863368133332266982136119821;;236831-1111-&# ",
"#&&#&--;1111123212688232321268q9326611831;;1268311;111-&&# ",
"##&&&--1;;111212366836232112299822611861;;1238861;1111-&## ",
"####&&11;;111233368866632112688822621622;;166861111;;-&&## ",
" #O#&-1111131111238366231112698836611621-;1836611-11;;&&#  ",
" #O##&-1-1112213288266331112886836612321-11863611-11-;&&#  ",
" OO#&&-;-111121328228663111638626221221-;1126231;-11--&#   ",
" OOO##&-;111221136113661111688622312111;21126331-;;;-&&#   ",
"  O###&--;1111113311362111136822232211;112116631;;;--&&#   ",
"  OOO##&--1111;131111321111328222331111222112611---&&&O#   ",
"  OOO###&--;;;;13;11362211233612332111211321131-11-&&&#    ",
"   OO#&&&&-;;;126132362111336622332126223121111-;---&&#    ",
"   OOO&##&&--1121163362111366662262111118211111;-1--&&#    ",
"    #O#&##&-&&11111632121;36623212211226816111--;--&&#&    ",
"    oOO##O&&-&;1;;1631111;362263132;11283222;---;-&&&#     ",
"     oO#&##&&&;1;;13611111632621312;;2286361;------&&&     ",
"     oOO###&&&-1;;122;;;;1632621112;128888621---&--&&#     ",
"      OO#&##&&&;;;--11;;;332232231;;16883131--;;&&&###     ",
"      oO#&&#&&--&&-;-1111312268111--13821321-1;;--&&#      ",
"       OO#&##&-&&&&-;11;;312666221;-1861211112;---&&#      ",
"        ###&#-&&&&&;111;12238662221;136111;;111---&##      ",
"        OO###&&&&&-;11111221663221126631111;111--&&##      ",
"         OO&#&&&-&;;111132213311622326111111111;-&&#       ",
"          O#&#O&&&;;11113311311322266811-122221;--&#       ",
"          O####o&&;;1111321163111126683111;221--&&##       ",
"           #&###&-;;1322111163338213661111;11--&&&##       ",
"           O#&&&&&;;131112113336611268311121--&&&O#        ",
"            O&&&&-;;;1111;;1162331212631111;----&Oo        ",
"            OO&&&-;;;1;1-1;131213328223232311--&&#O        ",
"             O&&&&-;;;11;22231113236862311112-&&&O#        ",
"             O##&&-&1----22;;;1132333362111121-&&##        ",
"              O###&&;---221---111236863363611;1&&#&        ",
"              o####&-1;1111-111122666211131321--&&&O       ",
"               O#&#&-11;;1;11;2266686811211;1121-&&#       ",
"               o#O#&;112111111;;2688666811111;1;--&&       ",
"               OOO##-;111211111266622622222123121--&       ",
"                OO##&-12123332226233331121231;1111-&&      ",
"                OO#&&--1123312111336633112111;;1;;-&&      ",
"                oO#&&-;111311111222233311111133221-&&#     ",
"                 oOO&--;1111122222111123232863111-;-&&     ",
"                 oO#&&-;11112222211;222122621;;;11;--##    ",
"                 oO#&&-;;1112211111123361111111;1;;1;##    ",
"                 oO#&&--;11;112211;22322213233311;;;;-##   ",
"                  OO&#--;1;111122122263323621123112;;&&#   ",
"                  oO##&-;;1;;1222;;112212121111111111&-&#  ",
"                  OO##&--;1;--;;;;;1111111122111211;;-&#&  ",
"                  oO##&&;;1;-----;1211;;11116311221;;&&#&# ",
"                  oO###&-;;----1;112;;1;1;133333;;;;1;-&&& ",
"                  oO##&&-;;------;1;;12111131122;;-;;&-#&#-",
"                  oO####&-;---&---;-2221111121211;111---&&#"
};
