/* XPM */
static char *e3298869523d4a90e2057e879d8b7ffdjWF2bpvuxHADu1Ft[] = {
/* columns rows colors chars-per-pixel */
"60 93 31 1 ",
"  c None",
". c #301414",
"X c #3C1C18",
"o c #4C241C",
"O c #54281C",
"+ c #482420",
"@ c #582C24",
"# c #5C2C24",
"$ c #543028",
"% c #603C2C",
"& c #683828",
"* c #74402C",
"= c #704834",
"- c #7C483C",
"; c #7C5438",
": c #844C30",
"> c #885034",
", c #8C5838",
"< c #945C3C",
"1 c #8C603C",
"2 c #845048",
"3 c #986440",
"4 c #9C6C48",
"5 c #A0704C",
"6 c #A87850",
"7 c #A47C58",
"8 c #AC8058",
"9 c #B0885C",
"0 c #B88C64",
"q c #BC9468",
"w c #C09C70",
/* pixels */
"                                 ,<<,:                      ",
"                               ,36865<,                     ",
"                             ,<6880865<>                    ",
"                            ,36880q0863>                    ",
"                            <6800000085,                    ",
"                           <6600qq0q086<                    ",
"                           6680000q0886<                    ",
"                          <5600qq0q0883<                    ",
"                          35600000q0863<                    ",
"                         :3560000q0085,:                    ",
"                         <3600q0000853,,                    ",
"                         35600q000063,>*                    ",
"                        :<6800000065<:*&,3&>,,>>            ",
"                        *36808000653,,*$<>>553<<*           ",
"                       #,3600000663,>5**6666533>&&          ",
"                       =3660q0086533<6%*697853<>&#          ",
"                       -66800q8885<<35*<0q5953>>&##         ",
"                      #>660qq0q86<<<35*600585<**##o         ",
"                      &>5600q0065<<<3530636883*###o         ",
"       &#O           #>,<56008653,<<6866,358q0-##oX         ",
"    2****#O         #&>3,580865<,<<<601>,568q05&oXX         ",
"   >>>->**#O        &>,4,5663,3<><<351>,5565q8,:@XX         ",
"  &<<<,>>*&+       #>,55,353,33,:>>,,&*,,35605,*#oX         ",
"  ,33<,>>>&&#     o#,356<53<,,>::*>,*&>,,35q85>&oooo        ",
" >,5<<,>>>*&#o..Xo&>>358<53,:**%%:*#&*>,355q5<*###ooo       ",
" >55<<,>>>*&###o##>><5586443,==;=:&#&*,355805,*#o####o      ",
" ,53<>,>>>&&##ooo&>,55606665<3583*##*>3536685,&o#&&&#o      ",
" ,3,<>>>>&&&##oo&>>56888863<3668<*#&>,3556985,&#&&>*&#X     ",
"&>,,<<>>>**##o#&>358998865<<5580,*&*,,3556085,*&*>>>*&o     ",
"#*>,3553<>>&&&*>3580096553355380<*&*>,3568q85>&&>>>>>&#     ",
"#*>5560653<>>,335800095<33<355005>&*,53568q6,>&*>>>,,*oo    ",
"#>5568q885<>,3558qq0q85,,<5333805>*><3355685,>&*>>,,,&oX    ",
"&>33608q85><5880qwq096<,,,3535885,><555580855<**>,,,,&oX    ",
"*>,5558q855689qqqqq9853,><<33308535556886993<,>>>>3<>#oX    ",
"**,55588888000qq09655533<3<,55655<35333<,68,&>,,>353>#oX    ",
"&*>,,55568890009963,33<<3<58885<>,>*>>>>565>&*>>,33>&#o#o   ",
"&**>,,3555688896653,,5<,<55853533>**>>>,65<&&*,,<53>&#&#oo  ",
"#*&&>>,55556868655<,55<35<,<33553>>>,>>365>&&>,<55<*&#&##o  ",
"#&&&>>,,5556689953<565<,>>,<35563>>,,>>56<*#*>,553,*&*>&#o  ",
"o&&&&>>,33558553,,5955,,,,<33596,>>,>>,55,*&*,333,*&&>>>#o  ",
"o#&&&&>><<<3,,35<66635>,<,<33595,*>,>>>63>*&,,353,*&>>,&&o  ",
"o####&>><<<<3556665<53><<<<35596>>,3>>38<>&*>335,,*&>,>&#o  ",
"ooo#&&&&,3<355553<<35><<<<,,3365,><3>>65,>**,<35<>&>>>>&#o  ",
"o##o#&&*>>>>>,<,>,355,<,<,>,3596<,33>>5<>**>,35<>>*>>>&##o  ",
"oo###&&>**>>>,>,<335<3,<,>>,,665,,3>>53>**>,<553>*>>>>&#oo  ",
"oooo##>>**>>>,<<<355333<,>>,3555,,3,>3,,**>3353>>>>**&##oo  ",
" oXo#&>>>>><>>>>,<5<33,<>>>,3655<33>>3,>&*>5<33>>&>>**##o   ",
" oXoo#&>&>>>,,><,55,33<<>>>,5535<33>,<,>&>>53<3>>&>>&*##o   ",
" XXo##&*&>>>>,><,5,,533<>>>3<53,3,,>,,>&*>>,3,<>*&>>&&#o    ",
" XXXoo#&*>>>,,>><3>><33>>>>3553,,<>,>>>*,>>,3<<>&***&##o    ",
"  Xooo#&&*>>>>>><<>><3,>>>><35,,,<,,>>*>>,>>33<>***&&##o    ",
"  XXXoo#&&>>>>*><>>>><,>>>><,5,,,<<>>>>,,,>>,3>>&&&###Xo    ",
"  XXXooo#&&****><*>><3,,>>,<<3>,<<,>>>,>><,>><>&>>&###o     ",
"   XXo####&***>,3><,<3,>>><<33,,<<,>,3,,<>,>>>>&*&&&##o     ",
"   XXX#oo##&&>>,>>3<<3,>>><3333,,3,>>>>>5,>>>>>*&>&&##o     ",
"    oXo#oo#&##>>>>>3<,>,>*<33,<,>,,>>,,35>3>>>&&*&&##o#     ",
"    .XXooX##&#*>**>3<>>>>*<3,,3<><,*>>,5<,,,*&&&*&###o      ",
"     .Xo#oo###*>**><3>>>>>3<,3,><>,**,,53<3>*&&&&&&###      ",
"     .XXooo###&>**>,,****>3<,3,>>>,*>,55553,>&&&#&&##o      ",
"      XXo#oo###***&&>>***<<,,<,,<>**>355<><>&&**###ooo      ",
"      .Xo##o##&&##&*&>>>><>,,35>>>&&><5,><,>&>**&&##o       ",
"       XXo#oo#&####&*>>**<>,333,,>*&>53>,>>>>,*&&&##o       ",
"        ooo#o&#####*>>>*>,,<533,,,>*><3>>>**>>>&&&#oo       ",
"        XXooo#####&*>>>>>,,>33<,,>>,33<>>>>*>>>&&##oo       ",
"         XX#o###&#**>>>><,,><<>>3,,<,3>>>>>>>>>*&##o        ",
"          Xo#oX###**>>>><<>><>><,,,335>>&>,,,,>*&&#o        ",
"          Xoooo.##**>>>><,>>3<>>>>,335<>>>*,,>&&##oo        ",
"           o#ooo#&**><,,>>>>3<<<5,><33>>>>*>>&&###oo        ",
"           Xo#####**><>>>,>><<<33>>,35<>>>,>&&###Xo         ",
"            X####&***>>>>**>>3,<<>,>,3<>>>>*&&&&#X.         ",
"            XX###&***>*>&>*><>,><<,5,,<,<,<>>&&##oX         ",
"             X####&***>>*,,,<>>><,<353,<>>>>,&###Xo         ",
"             Xoo##&#>&&&&,,***>><,<<<<3,>>>>,>&##oo         ",
"              Xooo##*&&&,,>&&&>>>,<353<<3<3>>*>##o#         ",
"              .oooo#&>*>>>>&>>>>,,333,>>><><,>&&###X        ",
"               Xo#o#&>>**>*>>*,,333535>>,>>*>>,>&##o        ",
"               .oXo#*>>,>>>>>>**,3553335>>>>>*>*&&##        ",
"               XXXoo&*>>>,>>>>>,333,,3,,,,,>,<>,>&&#        ",
"                XXoo#&>,>,<<<,,,3,<<<<>>,>,<>*>>>>&##       ",
"                XXo##&&>>,<<>,>>><<33<<>>,>>>**>**&##       ",
"                .Xo##&*>>><>>>>>,,,,<<<>>>>>><<,,>&##o      ",
"                 .XX#&&*>>>>>,,,,,>>>>,<,<,53<>>>&*&##      ",
"                 .Xo##&*>>>>,,,,,>>*,,,>,,3,>***>>*&&oo     ",
"                 .Xo##&**>>>,,>>>>>>,<<3>>>>>>>*>**>*oo     ",
"                 .Xo##&&*>>*>>,,>>*,,<,,,><,<<<>>****&oo    ",
"                  XX#o&&*>*>>>>,,>,,,3<<,<3,>>,<>>,**##o    ",
"                  .Xoo#&**>**>,,,**>>,,>,>,>>>>>>>>>>#&#o   ",
"                  XXoo#&&*>*&&*****>>>>>>>>,,>>>,>>**&#o#   ",
"                  .Xoo##**>*&&&&&*>,>>**>>>>3<>>,,>**##o#o  ",
"                  .Xooo#&**&&&&>*>>,**>*>*><<<<<****>*&###  ",
"                  .Xoo##&**&&&&&&*>**>,>>>><>>,,**&**#&o#o& ",
"                  .Xoooo#&*&&&#&&&*&,,,>>>>>,>,>>*>>>&&&##o ",
"                  ..oooo#&**&&#&&&>>>>,,,,,,,,>,,>,>>,>&##oo"
};
