/* XPM */
static char *_cadc9670a3f45078b991b70129eb3d4uHsowPAcJGYO4z6k[] = {
/* columns rows colors chars-per-pixel */
"66 83 24 1 ",
"  c None",
". c #3F1F1B",
"X c #4F271F",
"o c #572B1F",
"O c #4B2723",
"+ c #5B2F27",
"@ c #5F2F27",
"# c #6B3B2B",
"$ c #77432F",
"% c #874F33",
"& c #8B5337",
"* c #8F5B3B",
"= c #975F3F",
"- c #9B6743",
"; c #9F6F4B",
": c #A3734F",
"> c #AB7B53",
", c #AF835B",
"< c #B38A5E",
"1 c #B38B5F",
"2 c #BB8F67",
"3 c #BF976B",
"4 c #C39F73",
"5 c #CBA77B",
/* pixels */
"                              ;;;::;*                             ",
"                             ;;>131,:;                            ",
"                            ;:133432,:-                           ",
"                           ;>13345432>-                           ",
"                           :134444443,;*   $*===                  ",
"                          :12445545432:*  *;:,<>>                 ",
"                          123444454331:# #*:<33<>-                ",
"                         :,2445545433>:##&:34343,;;               ",
"                         >,2444445431>:##;144433,;-               ",
"                         >,244445443,;=#&224544<>,-*              ",
"                        :>244544443,>;;&&245543<>:-$              ",
"                        >,244544442>;-&&:455543<>::$-=:=          ",
"                        >12454432,>>:1$22455442<>::$=*,1:         ",
"                        113445333,::>,&2445543>>;;=#*:23>:        ",
"                        124554531:::>,&4455342>---=#:,332:;       ",
"                       ;,2445442,:::>,>44543<>--*&$#,,2321:       ",
"                       =:,24432,>;::<32445321>-;*&$$,,233>:*      ",
"                       =;,3432,:;:::<42445431>--*&$=,,<233-*      ",
"                       *;,21>;>:-::>,3<445321>-;*&$;,321<3-$      ",
"                       =;>,>;>>;*--;><44423,>>*-*$$;3>1><<>&      ",
"                      $=:,>:;;-**&-;<><32,>>>;=-*$$->1,11:;*@     ",
"                      $*:,>;*&&$$*-:<<><:==;;;=-=$#=1;>,,:;*@@    ",
"                      $*;>;;*$$#$*;<1<>>=-==----=##=;;>,,:;*@@    ",
"                     #&-;:;-*$$$**:>31>:*;--=--=*#$*;-:>>,:=#@@   ",
"                     $&*;:;=*$$***;,2<:;=*$*-;==$##*;:,>:,:*#@@   ",
"                     $&=:>;--;--**:,3>;**$#$*--*$@$*;;::>3;&##@@  ",
"                    #$*:>>:;;;=&&*:>:;:=$$#&=-=$#@$-;:,>:3:*$$#@  ",
"                    $%-;:>:;>>-*&-2>::&$$$&*=--&#$*=;;::>3;&$#$@  ",
"                   #%;,;,>;;;,:;-:,:;;--**-=--&&$$*-;;;;>2:$&$##@ ",
"                   $%;,>,,>:-,:--=:::-::&**==-=&$$*-;=-;>2;$*$$$# ",
"   ;;;;;*         @%*;1,,,>::::--=-:;-:-&&**;=-&#$=;=&*-:;=#**$#@ ",
"  ;;::-=*%        o#%->,,:::::,:;=;:;::=&=&=;>-&&&--=*$=;;*#*;*$@ ",
" ;;>>;=**$#       #%*;>21::>;:>:-=-;:-;-;-&*->=*==;-=$$&:-*$*;&#@ ",
" -;>:;**%#@      #%*;:,,1,::;,,;*=-;;;:,>;;=-:=--:>;-**&-;*$*=$$# ",
"=;;>;=**%#++     @%*-;>,1:::>,,;**=-:<,,<:::>>:::::-=&$*:;*$&&$$##",
"**;:;-*=%%#+    oo#%*-:,,,;;;:,-&-;<<,2,:**;:;:;--:-&&$=:-$$&*&$#@",
"%*:;--**%$##+  Xo$%*;;:,,>1:-:,;::>;-;2,-**=*--::;:=&$$---$$=$&$##",
"%*;-=-=*%$##+oOX#%%-::>,,>,;>,,::--->>2,;*==-&-::>;*&&&---$#-**&#@",
"$*-==-=*&%$$++X#%**:>,,2>>>,>,:*-;>;>,,,-==;=&=;::;;**==;*$$=&&$#@",
"#%*=--;-**%&%#$%*;;,11,,,>->:>;*&;>>:2,>==;;&*;>:::;==:;;*$$&-&##o",
"+$%=-;:-;==&%%=*;:,221>,>;=-,>-**;>>>2,>==;;&=>,>>;&*=;;-&$&=$&$##",
"+$%-:>,>:;;-**--:,2221:::-->,,-&&;>:>32>===&==>>,:--&-=>-&$*-**&#@",
"+%*;>,31,:;---::,3323,;=--=;,,-&*:,>><2;&-=&==>:>;-;-*;;*$$==&&$#@",
"#%*->2231:;;;,,234321>=**=;:,:*&*:,>,<,-&-==;:,:,:==*-:;*$&==-&##o",
"$%*-;>131>:>,1333331,:-***-:,:*&=:>:>2,;&-;:>,;>>;-*-;;-*$=:**&#@@",
"$$*=-;,,,,,2223321>::;-*%=-><,=&*>::<4,*=;;;,>>::;---:;-&&--$*&#@@",
"#$%**-;;>,,122211>-*--=*=;-,2,=&->>>,,-=:;>;:;->>:;;;;-&&;*$$$$#@@",
"#$%&**=;;;>,,,1>>:-**;=-;=*>,>&*;>>><2-*:>--:>;-:>;;;=*&&&&##$#@oo",
"+$$$&%*=-;:>,>,>:;=*;:=*&&*>,:&=-,>:1,-&,=*-::>==:<,;;*-&-*&##@@oo",
"+##$*&**==;>>,>>;-=;>:=**=&;,;*&-,>>2,&*;*-:,;;;=;,,>;;-*&**$#@@oo",
"X##$%*%*==-;>;:-**:>;;**=&&;:==--::,2,&*-&-:>>:==;;;,;;-***$#@@@@.",
" +#$&&&&==*-**-;=>>:-;%==*&;>=;--;>22:*&&=:,,,;;;-:==:,,;-&##@@@@.",
" +###&**====-;;>>>;=;-%==&=:>;*-;;>,2:*&&=-:::=;-::&&&&-:;&$$$@@oo",
" XX##$%%*-=-;::;-==-:&=*=&-;;;--;:>1,-=&*=,>:>;**;-&#$*=*$$###@ooo",
" +++#$&&*%&&&*=*&*-;;*==$$=;>;;-:>,1,=**;:>:;;=-;,-$#$$*&&$#@@@oo ",
" X++#%%*%%%&&*&*=--:=-*=##&>;;;;>>,<:*==:;:=;==-==&#$&&*-&$$#oooo ",
"  XX#$%*%%&&&*===-;;---$##*-;;;;;:>>:::>;:--:-;-:=#$$$*-&$###@@oo ",
"  .X+$%%**&=&&&&*=:=--*$#$**>,>;;,2<:;>>:,:*-***-&##$**&&$$#@#@@. ",
"  .XX#$%%%&&**&=*;;*--=&#$$*-:,:;,>:;=:;;:-=*-***&$$**-=$$$$@@@oo ",
"  .X++$%%%&%%*&=*;**;-**&&**=;:>-:,,-=:>::-:;-===&$$$&**###@#@oo  ",
"  ..XX+$%%%%**&&=-%&=-&*-;;*=&=-;;:,;=:;;--;;-**&&**$&$$$$$@@@o.  ",
"   XXX+$$$%%%%%&==&*=*&--:=-*--;::;:-::;;::;->=**==&&&&$&$##@@oo  ",
"   ..XX#$$%%%%$&=%&*&*=-;;---::;:;>>;---:::**=*&*--;;--&*$#@@@o.  ",
"   ..XXX###$$$$&=$&*====:=--*;:,>:>>:-::--**====-*;;::=*&$$#ooo   ",
"    .X++++#$$$%*-&&&&&*;;*--=:;:;--:>;==&*&&-;**=;==&&&$$#$#ooo   ",
"    ..+XX++##%%*&&**&=*;**;---;;;>>;--=*$$&=**---;:;*&$@@@@@oo.   ",
"     .X+XX+#++%%&&%*&=*;*==--**==--:-&$$**;:**--;--;$$#@@@@o@o.   ",
"     ..XX.++#+$&*=*&*-;=-*=-*==;;>:*$$*==-=--;-*;:;:*&$$#@@ooo    ",
"      .X+XX+++$&*&*=--:---&=*=-=*;;$$$&=-;;;:;;;===&==&&$@oo..    ",
"      ..XXX+++#&*===-;;--*=-**-*=&$$&&&-;;-----:*&=-=&&&##@o.     ",
"       .X+XX+++&&&&*=:=--=-=*-;-&$&===-=--:,>;*&$#&=>;*&$#@o.     ",
"        X++X++#**&=*;;*;---==---*&*;==:;:;;,,:*$##$*=&$$##@@.     ",
"        .X+XX+#%*&=*;**=--&&;=&****;;:>::>,;-;$$#$&=**=$##@oo     ",
"         XX+X#+**&&=-%&=-*&&=$$&-=-=;;;;*=-::=$$$&***&&#@@@o      ",
"         .XXX+&%%%&==%&&=**-;=-:;;-;;=-:;;:;*;$$$=;*$$##@oo.      ",
"          .X#==%%$&=%&&=-**=:>:;*;=::>:;*;::=*&$&=*=&#@@ooo       ",
"          .@@@%%%*=&*&&==&==->:;=-:=->:;=:;&-&&&$=&$$$$$#X.       ",
"           .o@@@#&*;-$$=*&;;-;=-;;:;-;=-;:;;:=&&-:&&&&##$#.       ",
"           .ooo@@$$$$$$&;==*--;;-*=*--;;-==&&;;:-*&$&$##o.        ",
"            .ooo@@#&$$#$&==;:,;**==;:,;**=*&-&&&--=&==&#@.        ",
"            .oo@@#$$$###$&&*=-=*;=**=-=*;*&=-&&&**&=$&#@#o        ",
"             .ooo@o###@@#$&*==**&=**==**&*--*&&=;;*-&*=$@@.       ",
"             ..ooo####o@@#$$&&&*=---&&&*=-*&&---&&-==&=&#@o       "
};
