/* XPM */
static char *abd96278ecf740c5e450b6808d418337E25HCIzUYSo4FW2j[] = {
/* columns rows colors chars-per-pixel */
"60 115 27 1 ",
"  c None",
". c #131313",
"X c #331717",
"o c #3F1F1B",
"O c #4F271F",
"+ c #572B1F",
"@ c #4B2723",
"# c #5B2F27",
"$ c #5F2F27",
"% c #57332B",
"& c #6B3B2B",
"* c #77432F",
"= c #7F573B",
"- c #874F33",
"; c #8B5337",
": c #8F5B3B",
"> c #975F3F",
", c #8F633F",
"< c #9B6743",
"1 c #9F6F4B",
"2 c #A3734F",
"3 c #AB7B53",
"4 c #AF835B",
"5 c #B38B5F",
"6 c #BB8F67",
"7 c #BF976B",
"8 c #C39F73",
/* pixels */
"                           ->:-                             ",
"                          :<<22:                            ",
"                         -><11<>*                           ",
"                         -:;>;;***                          ",
"                         ::>>1<<;-&                         ",
"                         -:<221<;-&                         ",
"                         :>>2312>:*                         ",
"                         -:>111>:-*&                        ",
"                         *:>>::-:*&&                        ",
"                         *>:<1<11:*&                        ",
"                         *:>22342<;*                        ",
"                          :>244441:**                       ",
"                          :>244451:-&                       ",
"                         *-:123431:-*                       ",
"                         *-:<2221<::*                       ",
"                         *-:<<1<>:::*                       ",
"                         *-:>>>>:::-*                       ",
"                         *->>>><>>>-*%                      ",
"                         *->><<121>:-&                      ",
"                         *-><<1231<>;&                      ",
"                         *->1223311:-&                      ",
"                         *->1223311>-&                      ",
"                         *->1223431>-&                      ",
"                         *->1223431:-#                      ",
"                         *-:2224421:*#                      ",
"                         *-:1124431:*#                      ",
"                         *-:<23433<:*#                      ",
"                         *-:<234442:*#                      ",
"                         *-:<<22432:*+         ,221>:       ",
"                         *-><<1322<:*#        ,2331<<:      ",
"                         *-><<<321>;*#+     =,2442<<:-*     ",
"                        $*:<<<<231:-*&OO   =233542<<:-*     ",
"                        &-:<11<242>;*&#OO*>23554321<:-*#    ",
"                        &-:1221253<;-&&**:>3554421<>:*&O    ",
"                        &:<2442353<;-**-:<3554322<>:-*&O    ",
"                       $&:144433542:-**:>23333222>:-*&Oo    ",
"                       &*:244333671<-*;>>22322332:-&&Ooo    ",
"                       *-<123334772>;*-:>11133452:-&&Oo     ",
"                       *:1121225672<;&-:><134555<-&&Oo      ",
"                      &-1432<<25672<-&;:<<245552:*&Ooo      ",
"                      *-1442<<2464<>**;:<<245651-&#oo       ",
"       11:           $-:1543122554<;&#-;<<34753<*#oo        ",
"    122<>:-         +&-<3654221342>*&#*;:136751:&Oo         ",
"   1331>::*&        &-:13455323341>*#&--:13554<-&Oo         ",
"  <1321::-&$       &-:124455331541;&&&;::<3642:*#Oo         ",
" >1131>::-&##     $-:<13444531243<;#&&-::<4732-&OO##        ",
"::121<:>--&##O   +&-:<24435532242<-#&*-:<24721*######       ",
"-:21<<::-*&&#+@O+*-:11244343212321-#&*:<12561:*#O#&&#O      ",
"-:1<><>:-*&&#+@O&--<22363331><242<*#*-<1<3441:&O#&**&O      ",
"*:<>><>:;-**##O&-::2344443<><3341;*&-:<113542:&#&**-*#o     ",
"&-:><<1<::-;-&*-:114554431>>23461;&*::<113641:*&**---&O     ",
"#*-><12<1>>;-->:124665322<<112461;&*-:<134741-&&-----&#     ",
"#*-<2343211<::<<2466652><<><13661>&*:1<23473:-&*---::*OO    ",
"#-:13475421<<<224776741::>1<<2542-*-><<11342:-&*-;:::&Oo    ",
"&-:<366752111446787653>:::<1<3531:->11223442>>**;::::&Oo    ",
"*-:<135753234577777542<:-><<<2431<>12221155<>:;-;;<>-#Oo    ",
"**:><14444466677653221<<><>:22212:><><>>>34:&-::;<2<-#Oo    ",
"&*-::<113445666553<:<<>><>12111>>::;::::131-&*;;:<<-&#O#O   ",
"&*-;::>11134445332<::1>:>1<<<<1<<-;;---:32>&&*::>1<-&#&#OO  ",
"#***;-:><123434321>:12><1>:><<21<--;:;-<31-&&-:>12>*&#&##O  ",
"#&&*:;::>>1334331<>132>:;;:><123<-;::;;13>*#*-:12<:*&*-&#O  ",
"O&&*-:-:>><1312<::2311::::><<<33:-;:;-:22:*&*:<<<:*&&---#O  ",
" #&*;;;;>>:<::<1>332<1-:>:><<231:*;:-;;3<-*&::<1<:*&--:&&O  ",
" #&&&;::>>>><113331>1<->>>><1233;;:<;;<4>-&*;<<1::*&-:-&#O  ",
" OO&&*--:<><1221<>><2;>>>>::<<21:-><;;31:-**:><1>;&-;--&#O  ",
" ###&*;;:-;;;:>:;:<11:>:>:;:<223>:<<-;1>;**-:<1>;-*-;;&##O  ",
" O##&--:---;;:;:><<2><:>:;-::332::<;-1<;**-:>21<;*-;;;&#OO  ",
"  OO&*-:--;;;:>>><11<<<>:--:<211::<:-<::**-<<2<;;--**&##OO  ",
"  oO#*--::;>;;;;:>2><<:>---:<321><<;;<:-&*-1><<;-&--**##O   ",
"  oOO&*---;;::;>:11:<<>>---:11<1><<-:>:-&-;1<><;-&--&*##O   ",
"  oO##*---;--:;>:1::1<<>--;<>2<:<::-::-&*--:<:>;*&--&&#O    ",
"  ooOO#*----::;;><-;><<;--;<12<::>;:;--*:;-:<>>;&***&##O    ",
"   OOO#***-----;>>-;><:---;><2:::>::;-*--:;-<<>;***&&##O    ",
"   ooOO&**----*;>-;;;>:---;>:1:::>>;;--:::;-:<--&&&###oO    ",
"   ooOOO&&&****;>*;;><::--:>><;:>>:---:;->:-->-&--&###O     ",
"    oO####&***-:<;>:><:--->><<::>>:;:<::>-:--;-&*&&&##O     ",
"    oo#OO##&&--:;;<>><:---><<<<::<:--;;;2:;;;--*&-&&##O     ",
"     oO#OO#&##--;;;<>:-:-*><<:>:;::--::<1;<;--&&*&&##O#     ",
"     ooOOo##&#*-**;<>----*><::<>;>:*--:1>:::*&&&*&###O      ",
"      oO#OO###*-**-><-----<>:<:;>-:**::2<><;*&&&&&&###      ",
"      ooOOO###&-**-::****;<>:<:;;-:*-:1212<:-&&&#&&##O      ",
"       oO#OO###***&&;-***>>::>::>;**-<12>;>-&&**###OOO      ",
"        O##O##&&##&*&---->-::<1;;-&&->1:;>:-&-**&&##O       ",
"        oO#OO#&####&*--**>-:<<<::-*&;1<-:;---:*&&&##O       ",
"         OO#O&#####*---*;::>1<<:::-*-><-;-**;;;&&&#OO       ",
"         oOOO#####&*----;::;<<>::-;:<<>--;-*;;-&&##OO       ",
"          o#O###&#**---->::;>>;;<::>:<---;-;;;;*&##O        ",
"          oO#Oo###**---->>-->;;>:::<<1--&-::::-*&&#O        ",
"           OOOOX##**---->:--<>;;;;:<<1>;;-*::-&&##OO        ",
"           O#OOO#&**->::;;--<>>>1:;><<----*--&&###OO        ",
"            O#####**->;;;:-->>><<--:<1>---:-&&###oO         ",
"             ####&***--;;**--<:>>;:-:<>;;;;*&&&&#oX         ",
"             o###&***-*;&;*->-:;>>:1::>:>:>--&&##Oo         ",
"             o####&***--*:::>-;;>:><1<:>-;-;:&###oO         ",
"              OO##&#-&&&&::***-;>:>>>><:;;;;:-&##OO         ",
"              oOOO##*&&&::;&&&-;;:><1<>><><;-*-##O#         ",
"               OOOO#&-*;-;-&-;;-::<<<:;-->->:-&&###o        ",
"               oO#O#&--**-*--*::<<<2<1;-:;-*--:-&##O        ",
"               XOoO#*--:--;;;-**:<12<<<1;;-;-*-*&&##        ",
"                ooOO&*---:;;;--:<<<::<:::::;:>;:-&&#        ",
"                ooOO#&-:-:>>>:::<:>>>>--:;:>-*----&##       ",
"                ooO##&&;-:>>;:--->><<>>;-:;--**;**&##       ",
"                XoO##&*--;>;;---::::>>>;;-;;->>::-&##O      ",
"                XXoo#&&*-;;;-:::::----:>:>:1<>---&*&##      ",
"                 XoO##&*----:::::--*:::-::<:;***-;*&&OO     ",
"                 XoO##&**---::------:>><----;;;*-**-*OO     ",
"                 XoO##&&*--*--::--*::>:::;>:>>>;-****&OO    ",
"                 Xoo#O&&*-*----::-:::<>>:><:--:>;;:**##O    ",
"                 .XoOO#&**-**-:::**--::;:-:;----;;---#&#O   ",
"                  ooOO#&&*-*&&*****-----;;;::;--:--**&#O#   ",
"                  XoOO##**-*&&&&&*-:--**;;;;<>-;::;**##O#O  ",
"                  XoOOO#&**&&&&-*--:**;*-*->>>>>****;*&###  ",
"                  XoOO##&**&&&&&&*-**-:;;;;>-;::**&**#&O#O& ",
"                  XoOOOO#&*&&&#&&&*&:::-;-;;:;:;;*---&&&##O ",
"                  XXOOOO#&**&&#&&&----::::::::-::;:;-:-&##OO"
};
