/* XPM */
static char *_b5241255e974e6db0bfcce5ed8509424wGTTREEPV3jh8GS[] = {
/* columns rows colors chars-per-pixel */
"64 64 4 1 ",
"  c black",
". c #F80000",
"X c #270ED3",
"o c white",
/* pixels */
"oooooooooooooooooooooooooooooooooooooooooooooooooooooooooooooooo",
"oooooooooooooooooooooooooooooooooooooooooooooooooooooooooooooooo",
"oooooooooooooooooooooooooooooooooooooooooooooooooooooooooooooooo",
"oooooooooooooooooooooooooooooooooooooooooooooooooooooooooooooooo",
"oooooooooooooooooooooooooooooooooooooooooooooooooooooooooooooooo",
"oooooooooooooooooooooooooooooooooooooooooooooooooooooooooooooooo",
"ooooooooooooo  oooooooooooooooooooooooooooooo  ooooooooooooooooo",
"oooooooooooo  oo  ooooooooooooooooooooooo  ooo  oooooooooooooooo",
"ooooooooooo  oo  oo  ooooooooooooooooo  oo  ooo  ooooooooooooooo",
"oooooooooo  oo  oo  ooooooooooooooooooo  oo  ooo  oooooooooooooo",
"ooooooooo  oo  oo  ooooooooooooooooooooo  oo  ooo oooooooooooooo",
"oooooooo  oo  oo  ooooooooooooooooooooooo  oo  ooooooooooooooooo",
"ooooooo  oo  oo  ooooooooooooooooooooooooo  oo  oooooooooooooooo",
"oooooo  oo  oo  ooooooooooooooooooooooooooo  oo  ooooooooooooooo",
"ooooo  oo  oo  ooooooooooooooooooooooooooooo ooo   oo  ooooooooo",
"ooooo oo  oo  oooooooooooooooooooooooooooooooooooo  oo  oooooooo",
"ooooooo  oo  oooooooooooooooooooooooooooooooooooooo  oo  ooooooo",
"oooooooooo  oooooooooooooooooooooooooooooooooooooooo  oo  oooooo",
"ooooooooo  ooooooooooooooooooooooooooooooooooooo  ooo  oo oooooo",
"ooooooooooooooooooooooooooooooooooooooooooooooooo  ooo  oooooooo",
"oooooooooooooooooooooooooooooooooooooooooooooooooo  ooo oooooooo",
"ooooooooooooooooooooooooooooooooooooooooooooooooooo  ooooooooooo",
"oooooooooooooooooooooooooooooooooooooooooooooooooooo  oooooooooo",
"ooooooooooooooooooooooooooooo......oooooooooooooooooo  ooooooooo",
"ooooooooooooooooooooooooooo..........ooooooooooooooooo ooooooooo",
"oooooooooooooooooooooooooo............oooooooooooooooooooooooooo",
"ooooooooooooooooooooooooo..............ooooooooooooooooooooooooo",
"oooooooooooooooooooooooo................oooooooooooooooooooooooo",
"oooooooooooooooooooooooo................oooooooooooooooooooooooo",
"oooooooooooooooooooooooX.................ooooooooooooooooooooooo",
"oooooooooooooooooooooooX..........XXXXX..ooooooooooooooooooooooo",
"oooooooooooooooooooooooX.........XXXXXXX.ooooooooooooooooooooooo",
"oooooooooooooooooooooooXX.......XXXXXXXXXooooooooooooooooooooooo",
"oooooooooooooooooooooooXXX.....XXXXXXXXXXooooooooooooooooooooooo",
"oooooooooooooooooooooooXXXXXXXXXXXXXXXXXXooooooooooooooooooooooo",
"ooooooooooooooooooooooooXXXXXXXXXXXXXXXXoooooooooooooooooooooooo",
"ooooooooooooooooooooooooXXXXXXXXXXXXXXXXoooooooooooooooooooooooo",
"oooooooooooooooooooooooooXXXXXXXXXXXXXXooooooooooooooooooooooooo",
"oooooooooooooooooooooooooXXXXXXXXXXXXXXooooooooooooooooooooooooo",
"oooooooooooooooooooooooooooXXXXXXXXXXooooooooooooooooooooooooooo",
"oooooooooooooooooooooooooooooXXXXXXooooooooooooooooooooooooooooo",
"oooooooooooooooooooooooooooooooooooooooooooooooooooooooooooooooo",
"oooooooooooooooooooooooooooooooooooooooooooooooooooooooooooooooo",
"oooooooooooooooooooooooooooooooooooooooooooooooooooooo  oooooooo",
"ooooooooooooooooooooooooooooooooooooooooooooooooooooo  oo  ooooo",
"ooooooooo  ooooooooooooooooooooooooooooooooooooooooo  oo  oooooo",
"oooooooooo  ooooooooooooooooooooooooooooooooooooooo  oo  ooo  oo",
"oooooo  ooo  oooooooooooooooooooooooooooooooooooooo oo  ooo  ooo",
"ooooooo  ooo  ooooooooooooooooooooooooooooooooooooooo  ooo  oooo",
"oooo  oo  ooo  oooooooooooooooooooooooooooooooo ooooo ooo  ooooo",
"ooooo  oo  ooo  oooooooooooooooooooooooooooooo  oooooooo  oooooo",
"oooooo  oo  ooo  oooooooooooooooooooooooooooo  ooooooooo ooooooo",
"ooooooo  ooooooo  oooooooooooooooooooooooooo  ooo  ooooooooooooo",
"oooooooo  ooooooo  oooooooooooooooooooooooo  ooo  oooooooooooooo",
"ooooooooo  ooooooo  ooooooooooooooooooooooo ooo  ooooooooooooooo",
"oooooooooo  ooo ooo  ooooooooooooooooooooooooo  ooo  ooooooooooo",
"ooooooooooo  oo  ooo oooooooooooooooooooooooo  ooo  oooooooooooo",
"oooooooooooo  oo  ooooooooooooooooooooooooooo ooo  ooooooooooooo",
"ooooooooooooo  oo  ooooooooooooooooooooooooooooo  oooooooooooooo",
"oooooooooooooo  ooooooooooooooooooooooooooooooo  ooooooooooooooo",
"ooooooooooooooo  ooooooooooooooooooooooooooooooooooooooooooooooo",
"oooooooooooooooo ooooooooooooooooooooooooooooooooooooooooooooooo",
"oooooooooooooooooooooooooooooooooooooooooooooooooooooooooooooooo",
"oooooooooooooooooooooooooooooooooooooooooooooooooooooooooooooooo"
};
