/* XPM */
static char *_5e611e1f8284176ba7bd56d1724742akFfUxEz94v9BiMRF[] = {
/* columns rows colors chars-per-pixel */
"64 64 10 1 ",
"  c black",
". c #0D0C14",
"X c #191827",
"o c #222034",
"O c #27253C",
"+ c #2C2B45",
"@ c #2F2C47",
"# c #31315B",
"$ c #3F3F74",
"% c #4D4D8E",
/* pixels */
".X.##########################################################.X.",
".X.##......................................................##.X.",
".X.#.XXXXXXXXXXXXXXXXXXXXXXXXXXXXXXXXXXXXXXXXXXXXXXXXXXXXXX.#.X.",
".X..XX++++++++++++++++++++++++++++++++++++++++++++++++++++XX..X.",
".X..X++OOO@OoO@OO@oOooooooooooooooooooooooooOo@OO@OoO@OOO++X..X.",
".X..X+O@o@@OoOooooooooooooooooooooooooooooooooooooOoO@@o@O+X..X.",
".X..X+OOO@ooOO@oooo####oooooooooooooooooo####oooo@OOoo@OOO+X..X.",
".X..X+OOoo@ooooooo.$%%%#oooooooooooooooo#%%%$.ooooooo@ooOO+X..X.",
".X..XOo@oooooooooo.$$%$#oooooooooooooooo#$%$$.oooooooooo@oOX..X.",
".X..X+OoOooooooooo.$%$$#oooooooooooooooo#$$%$.oooooooooOoO+X..X.",
".X..X+o@ooooooooooo....oooooooooooooooooo....ooooooooooo@o+X..X.",
".X..X@OooooooooooooooooooooooooooooooooooooooooooooooooooO@X..X.",
".X..X+oooooooooooooooooooooooooooooooooooooooooooooooooooo+X..X.",
".X.##########################################################.X.",
".X#..........................................................#X.",
".#.XXXXXXXXXXXXXXXXXXXXXXXXXXXXXXXXXXXXXXXXXXXXXXXXXXXXXXXXXX.#.",
"                                                                ",
"                                                                ",
"                                                                ",
"                                                                ",
"                                                                ",
"                                                                ",
"                                                                ",
"                                                                ",
"                                                                ",
"                                                                ",
"                                                                ",
"                                                                ",
"                                                                ",
"                                                                ",
"                                                                ",
"                                                                ",
"                                                                ",
"                                                                ",
"                                                                ",
"                                                                ",
"                                                                ",
"                                                                ",
"                                                                ",
"                                                                ",
"                                                                ",
"                                                                ",
"                                                                ",
"                                                                ",
"                                                                ",
"                                                                ",
"                                                                ",
"                                                                ",
"                                                                ",
"                                                                ",
"                                                                ",
"                                                                ",
"                                                                ",
"                                                                ",
"                                                                ",
"                                                                ",
"                                                                ",
"                                                                ",
"                                                                ",
"                                                                ",
"                                                                ",
"                                                                ",
"                                                                ",
"                                                                "
};
