/* XPM */
static char *_b15e2459a104c9ab07b48174d513d18rz6FKDPYmdxa6VEE[] = {
/* columns rows colors chars-per-pixel */
"64 64 12 1 ",
"  c black",
". c #3F4243",
"X c #B01A1A",
"o c red",
"O c #F00909",
"+ c #FD3800",
"@ c #B8492A",
"# c #CC4C27",
"$ c #FF5D2F",
"% c #118123",
"& c #848E92",
"* c #96A0A5",
/* pixels */
"  *&*      *&*      &**      *%&***      *&*      &**      *&*  ",
"  *&*      &&*      &**      *%&&**      *&*      &**      *&*  ",
"  *&&      ***      &**      %%*&&*      *&&      &**      &&*  ",
"  **&      ***      &**      %&**&&      **&      &**      &**  ",
"  **&      ***      &&*      ..**..      ***      &**      &**  ",
"  *&*      ***      *&*      ..*&..      ***      &&*      *&*  ",
"  .&.      .*.      .&.      ..&&..      .*.      .&.      .&.  ",
"  ...      ...      ...      ..&*..      ...      ...      ...  ",
"  ...      ...      ...      ......      ...      ...      ...  ",
" **+**    *****    *****     ......     *****    ***+*    ***** ",
"*@@****  ***+$*X  **$*o**    ......    ***@+**  ***$***  *@*o@o*",
"&@**+*&  &O+**+&  &@*$*@&    ......    &@*@**&  &+$o*+&  &*+@**o",
" #*+@+    &@*oo    &@o+&   **********   &@*+&    &o*+&    X@*+& ",
" &+++&    #&@&&    +o+&#  *$*o*****+**  +#+&+    #X+#X    &#@&+ ",
"  &#&      X+#      #&+    *+*XX**+*$    &X#      &X&      &oo  ",
"  o#+      #Xo      &+o     #*o**$*#     #&#      +#+      #&#  ",
"   X        +        o       +#+X##       o        &        &   ",
"   +        o        #        +*X+        +        +        +   ",
"                               #+                               ",
"                                                                ",
"                                                                ",
"                                                                ",
"                                                                ",
"                                                                ",
"                                                                ",
"                                                                ",
"                                                                ",
"                                                                ",
"                                                                ",
"                                                                ",
"                                                                ",
"                                                                ",
"                                                                ",
"                                                                ",
"                                                                ",
"                                                                ",
"                                                                ",
"                                                                ",
"                                                                ",
"                                                                ",
"                                                                ",
"                                                                ",
"                                                                ",
"                                                                ",
"                                                                ",
"                                                                ",
"                                                                ",
"                                                                ",
"                                                                ",
"                                                                ",
"                                                                ",
"                                                                ",
"                                                                ",
"                                                                ",
"                                                                ",
"                                                                ",
"                                                                ",
"                                                                ",
"                                                                ",
"                                                                ",
"                                                                ",
"                                                                ",
"                                                                ",
"                                                                ",
};