/* XPM */
static char *e3a951b995db4468ebd5ba4c9c777c00Um2xaVllQItTObh0[] = {
/* columns rows colors chars-per-pixel */
"64 64 3 1 ",
"  c black",
". c #E31212",
"X c #BB5A1A",
/* pixels */
"XXXXXXXXXXXX XXXXXXXXXXXXXXXXXXX XXXXXXXXXXXXXXXXXX XXXXXX......",
"XXXXXXXXXXXX XXXXXXXXXXXXXXXXXXX XXXXXXXXXXXXXXXXXX XXXX........",
"                                                                ",
"XXXXXXXXXXXX  XXX XXX XXX XXXXX  XXXXX XXX XXX XXX  XXXXXXXXXXXX",
"XXXXXXXXXXXX X X X X X X X XXX X  XXX X X X X X X X XXXXXXXXXXXX",
"XXXXXXXXXXXX XX XXX XXX XXX X XX X X XXX XXX XXX XX XXXXXXXXXXXX",
"XXXXXXXXXXXX XX XXX XXX XXX X XX X X XXX XXX XXX XX XXXXXXXXXXXX",
"XXXXXXXXXXXX XX XXX XXX XXX X XX X X XXX XXX XXX XX XXXXXXXXXXXX",
"XXXXXXXXXXXX XX XXX XXX XXX X XX X X XXX XXX XXX XX XXXXXXXXXXXX",
"XXXXXXXXXXXX XX XXX XXX XXX X XX X X XXX XXX XXX XX XXXXXXXXXXXX",
"XXXXXXXXXXXX XX XXX XXX XXX X XX X X XXX XXX XXX XX XXXXXXXXXXXX",
"XXXXXXXXXXXX XX XXX XXX XXX X XX X X XXX XXX XXX XX XXXXXXXXXXXX",
"XXXXXXXXXXXX XX XXX XXX XXX X XX X X XXX XXX XXX XX XXXXXXXXXXXX",
"XXXXXXXXXXXX XX XXX XXX XXX X XX X X XXX XXX XXX XX XXXXXXXXXXXX",
"XXXXXXXXXXXX XX XXX XXX XXX X XX X X XXX XXX XXX XX XXXXXXXXXXXX",
"XXXXXXXXXXXX XX XXX XXX XXX X XX X X XXX XXX XXX XX XXXXXXXXXXXX",
"XXXXXXXXXXXX XX XXX XXX XXX X XX X X XXX XXX XXX XX XXXXXXXXXXXX",
"XXXXXXXXXXXX X X X X X X X XXX X  XXX X X X X X X X XXXXXXXXXXXX",
"XXXXXXXXXXXX  XXX XXX XXX XXXXX  XXXXX XXX XXX XXX  XXXXXXXXXXXX",
"                                                                ",
"XXXXXXXXXXXX XXXXXXXXXXXXXXXXXXX XXXXXXXXXXXXXXXXXX XXXXXXXXXXXX",
"XXXXXXXXXXXX XXXXXXXXXXXXXXXXXXX XXXXXXXXXXXXXXXXXX XXXXXXXXXXXX",
"XXXXXXXXXXXX XXXXXXXXXXXXXXXXXXX XXXXXXXXXXXXXXXXXX XXXXXXXXXXXX",
"XXXXXXXXXXXX XXXXXXXXXXXXXXXXXXX XXXXXXXXXXXXXXXXXX XXXXXXXXXXXX",
"XXXXXXXXXXXX XXXXXXXXXXXXXXXXXXX XXXXXXXXXXXXXXXXXX XXXXXXXXXXXX",
"XXXXXXXXXXXX XXXXXXXXXXXXXXXXXXX XXXXXXXXXXXXXXXXXX XXXXXXXXXXXX",
"XXXXXXXXXXXX XXXXXXXXXXXXXXXXXXX XXXXXXXXXXXXXXXXXX XXXXXXXXXXXX",
"XXXXXXXXXXXX XXXXXXXXXXXXXXXXXXX XXXXXXXXXXXXXXXXXX XXXXXXXXXXXX",
"XXXXXXXXXXXX XXXXXXXXXXXXXXXXXXX XXXXXXXXXXXXXXXXXX XXXXXXXXXXXX",
"XXXXXXXXXXXX XXXXXXXXXXXXXXXXXXX XXXXXXXXXXXXXXXXXX XXXXXXXXXXXX",
"XXXXXXXXXXXX XXXXXXXXXXXXXXXXXXX XXXXXXXXXXXXXXXXXX XXXXXXXXXXXX",
"                                                                ",
"XXXXXXXXXXXX XXXXXXXXXXXXXXXXXXX XXXXXXXXXXXXXXXXXX XXXXXXXXXXXX",
"XXXXXXXXXXXX XXXXXXXXXXXXXXXXXXX XXXXXXXXXXXXXXXXXX XXXXXXXXXXXX",
"XXXXXXXXXXXX XXXXXXXXXXXXXXXXXXX XXXXXXXXXXXXXXXXXX XXXXXXXXXXXX",
"XXXXXXXXXXXX XXXXXXXXXXXXXXXXXXX XXXXXXXXXXXXXXXXXX XXXXXXXXXXXX",
"XXXXXXXXXXXX XXXXXXXXXXXXXXXXXXX XXXXXXXXXXXXXXXXXX XXXXXXXXXXXX",
"XXXXXXXXXXXX XXXXXXXXXXXXXXXXXXX XXXXXXXXXXXXXXXXXX XXXXXXXXXXXX",
"XXXXXXXXXXXX XXXXXXXXXXXXXXXXXXX XXXXXXXXXXXXXXXXXX XXXXXXXXXXXX",
"XXXXXXXXXXXX XXXXXXXXXXXXXXXXXXX XXXXXXXXXXXXXXXXXX XXXXXXXXXXXX",
"XXXXXXXXXXXX XXXXXXXXXXXXXXXXXXX XXXXXXXXXXXXXXXXXX XXXXXXXXXXXX",
"XXXXXXXXXXXX XXXXXXXXXXXXXXXXXXX XXXXXXXXXXXXXXXXXX XXXXXXXXXXXX",
"XXXXXXXXXXXX XXXXXXXXXXXXXXXXXXX XXXXXXXXXXXXXXXXXX XXXXXXXXXXXX",
"XXXXXXXXXXXX XXXXXXXXXXXXXXXXXXX XXXXXXXXXXXXXXXXXX XXXXXXXXXXXX",
"XXXXXXXXXXXX XXXXXXXXXXXXXXXXXXX XXXXXXXXXXXXXXXXXX XXXXXXXXXXXX",
"XXXXXXXXXXXX XXXXXXXXXXXXXXXXXXX XXXXXXXXXXXXXXXXXX XXXXXXXXXXXX",
"XXXXXXXXXXXX XXXXXXXXXXXXXXXXXXX XXXXXXXXXXXXXXXXXX XXXXXXXXXXXX",
"                                                                ",
"XXXXXXXXXXXX XXXXXXXXXXXXXXXXXXX XXXXXXXXXXXXXXXXXX XXXXXXXXXXXX",
"XXXXXXXXXXXX XXXXXXXXXXXXXXXXXXX XXXXXXXXXXXXXXXXXX XXXXXXXXXXXX",
"XXXXXXXXXXXX XXXXXXXXXXXXXXXXXXX XXXXXXXXXXXXXXXXXX XXXXXXXXXXXX",
"XXXXXXXXXXXX XXXXXXXXXXXXXXXXXXX XXXXXXXXXXXXXXXXXX XXXXXXXXXXXX",
"XXXXXXXXXXXX XXXXXXXXXXXXXXXXXXX XXXXXXXXXXXXXXXXXX XXXXXXXXXXXX",
"XXXXXXXXXXXX XXXXXXXXXXXXXXXXXXX XXXXXXXXXXXXXXXXXX XXXXXXXXXXXX",
"XXXXXXXXXXXX XXXXXXXXXXXXXXXXXXX XXXXXXXXXXXXXXXXXX XXXXXXXXXXXX",
"XXXXXXXXXXXX XXXXXXXXXXXXXXXXXXX XXXXXXXXXXXXXXXXXX XXXXXXXXXXXX",
"XXXXXXXXXXXX XXXXXXXXXXXXXXXXXXX XXXXXXXXXXXXXXXXXX XXXXXXXXXXXX",
"XXXXXXXXXXXX XXXXXXXXXXXXXXXXXXX XXXXXXXXXXXXXXXXXX XXXXXXXXXXXX",
"XXXXXXXXXXXX XXXXXXXXXXXXXXXXXXX XXXXXXXXXXXXXXXXXX XXXXXXXXXXXX",
"XXXXXXXXXXXX XXXXXXXXXXXXXXXXXXX XXXXXXXXXXXXXXXXXX XXXXXXXXXXXX",
"XXXXXXXXXXXX XXXXXXXXXXXXXXXXXXX XXXXXXXXXXXXXXXXXX XXXXXXXXXXXX",
"XXXXXXXXXXXX XXXXXXXXXXXXXXXXXXX XXXXXXXXXXXXXXXXXX XXXXXXXXXXXX",
"XXXXXXXXXXXX XXXXXXXXXXXXXXXXXXX XXXXXXXXXXXXXXXXXX XXXXXXXXXXXX",
"XXXXXXXXXXXX XXXXXXXXXXXXXXXXXXX XXXXXXXXXXXXXXXXXX XXXXXXXXXXXX"
};
