/* XPM */
static char *_bd6a639401c4cc2f438da8a732983cfDHXkHeKX34jzD71W[] = {
/* columns rows colors chars-per-pixel */
"64 64 9 1 ",
"  c #0D0C14",
". c #191827",
"X c #222034",
"o c #27253C",
"O c #2C2B45",
"+ c #2F2C47",
"@ c #31315B",
"# c #3F3F74",
"$ c #4D4D8E",
/* pixels */
"                                                                ",
" .............................................................. ",
" ..                                                          .. ",
" .   ......................................................   . ",
" .  ..OOOOOOOOOOOOOOOOOOOOOOOOOOOOOOOOOOOOOOOOOOOOOOOOOOOO..  . ",
" .  .OOoX++ooX+++oXoXXXXXXXXXXXXXXXXXXXXXXXXoXo+++Xoo++XoOO.  . ",
" .  .OXoo+XX++oXXXX+XXXXXXXXXXXXXXXXXXXXXXXX+XXXXo++XX+ooXO.  . ",
" .  .Oo+o+oXXXXXXXXXXXXXXXXXXXXXXXXXXXXXXXXXXXXXXXXXXo+o+oO.  . ",
" .  .OXXX+XX@@@@XXXXXXXXXXXXXX@@@@XXXXXXXXXXXXXX@@@@XX+XXXO.  . ",
" .  .O+o+XX $$$$@XXXXXXXXXXXX $$$$ XXXXXXXXXXXX@$$$$ XX+o+O.  . ",
" .  .OoXXoX ##$#@XXXXXXXXXXXX #$$# XXXXXXXXXXXX@#$## XoXXoO.  . ",
" .  .OX+XXX ###$@XXXXXXXXXXXX #### XXXXXXXXXXXX@$### XXX+XO.  . ",
" .  .OoXXXXX    XXXXXXXXXXXXXX    XXXXXXXXXXXXXX    XXXXXoO.  . ",
" .  .O++XXXXXXXXXXXXXXXXXXXXXXXXXXXXXXXXXXXXXXXXXXXXXXXX++O.  . ",
" .  .OXXXXXXXXXXXXXXXXXXXXXXXXXXXXXXXXXXXXXXXXXXXXXXXXXXXXO.  . ",
" .  .OXXXXXXXXXXXXXXXXXXXXXXXXXXXXXXXXXXXXXXXXXXXXXXXXXXXXO.  . ",
" .  ........................................................  . ",
" . @@@@@@@@@@@@@@@@@@@@@@@@@@@@@@@@@@@@@@@@@@@@@@@@@@@@@@@@@@ . ",
" . @@                                                      @@ . ",
" . @ ...................................................... @ . ",
" .  ..OOOOOOOOOOOOOOOOOOOOOOOOOOOOOOOOOOOOOOOOOOOOOOOOOOOO..  . ",
" .  .Ooo+o+Xo+XX+XX+X+XXXXXXXXXXXXXXXXXXXX+X+XX+XX+oX+o+ooO.  . ",
" .  .++X+oo+XX+++XX+XXXXXXXXXXXXXXXXXXXXXXXX+XX+++XX+oo+X++.  . ",
" .  .Ooo+o+XXXX+XXXXXXXXXXXXXXXXXXXXXXXXXXXXXXXX+XXXX+o+ooO.  . ",
" .  .O+ooXX+XXXXXXX@@@@XXXXXXXXXXXXXXXXXX@@@@XXXXXXX+XXoo+O.  . ",
" .  .Oooo+XXXXXXXX #$$$@XXXXXXXXXXXXXXXX@$$$# XXXXXXXX+oooO.  . ",
" .  .OX+XXXXX+XXXX ##$#@XXXXXXXXXXXXXXXX@#$## XXXX+XXXXX+XO.  . ",
" .  .Ooo+++XXXXXXX #$##@XXXXXXXXXXXXXXXX@##$# XXXXXXX+++ooO.  . ",
" .  .O+XXXXXXXXXXXX    XXXXXXXXXXXXXXXXXX    XXXXXXXXXXXX+O.  . ",
" .  .OoXXXXXXXXXXXXXXXXXXXXXXXXXXXXXXXXXXXXXXXXXXXXXXXXXXoO.  . ",
" .  .OX+XXXXXXXXXXXXXXXXXXXXXXXXXXXXXXXXXXXXXXXXXXXXXXXX+XO.  . ",
" .  .OXXXXXXXXXXXXXXXXXXXXXXXXXXXXXXXXXXXXXXXXXXXXXXXXXXXXO.  . ",
" .  ........................................................  . ",
" . @@@@@@@@@@@@@@@@@@@@@@@@@@@@@@@@@@@@@@@@@@@@@@@@@@@@@@@@@@ . ",
" . @@                                                      @@ . ",
" . @ ...................................................... @ . ",
" .  ..OOOOOOOOOOOOOOOOOOOOOOOOOOOOOOOOOOOOOOOOOOOOOOOOOOOO..  . ",
" .  .O+oo+o+Xo+Xo+XoXXXXXXXXXXXXXXXXXXXXXXXXoX+oX+oX+o+oo+O.  . ",
" .  .oXo+o+XX+XXo+XX+XXXXXXXXXXXXXXXXXXXXXX+XX+oXX+XX+o+oXo.  . ",
" .  .Oo+X+XoXXXXXXXXXXXXXXXXXXXXXXXXXXXXXXXXXXXXXXXXoX+X+oO.  . ",
" .  .Ooo++XX@@@@XXXXXXXXXXXXXX@@@@XXXXXXXXXXXXXX@@@@XX++ooO.  . ",
" .  .O+oX+X $$$$@XXXXXXXXXXXX $$$$ XXXXXXXXXXXX@$$$$ X+Xo+O.  . ",
" .  .OooXXX ##$#@XXXXXXXXXXXX #$$# XXXXXXXXXXXX@#$## XXXooO.  . ",
" .  .O++XXX ###$@XXXXXXXXXXXX #### XXXXXXXXXXXX@$### XXX++O.  . ",
" .  .OXXXXXX    XXXXXXXXXXXXXX    XXXXXXXXXXXXXX    XXXXXXO.  . ",
" .  .O+ooXXXXXXXXXXXXXXXXXXXXXXXXXXXXXXXXXXXXXXXXXXXXXXoo+O.  . ",
" .  .O+XXXXXXXXXXXXXXXXXXXXXXXXXXXXXXXXXXXXXXXXXXXXXXXXXX+O.  . ",
" .  ........................................................  . ",
" . @@@@@@@@@@@@@@@@@@@@@@@@@@@@@@@@@@@@@@@@@@@@@@@@@@@@@@@@@@ . ",
" . @@                                                      @@ . ",
" . @ ...................................................... @ . ",
" .  ..OOOOOOOOOOOOOOOOOOOOOOOOOOOOOOOOOOOOOOOOOOOOOOOOOOOO..  . ",
" .  .OOooo+oXo+oo+XoXXXXXXXXXXXXXXXXXXXXXXXXoX+oo+oXo+oooOO.  . ",
" .  .Oo+X++oXoXXXXXXXXXXXXXXXXXXXXXXXXXXXXXXXXXXXXoXo++X+oO.  . ",
" .  .Oooo+XXoo+XXXX@@@@XXXXXXXXXXXXXXXXXX@@@@XXXX+ooXX+oooO.  . ",
" .  .OooXX+XXXXXXX #$$$@XXXXXXXXXXXXXXXX@$$$# XXXXXXX+XXooO.  . ",
" .  .oX+XXXXXXXXXX ##$#@XXXXXXXXXXXXXXXX@#$## XXXXXXXXXX+Xo.  . ",
" .  .OoXoXXXXXXXXX #$##@XXXXXXXXXXXXXXXX@##$# XXXXXXXXXoXoO.  . ",
" .  .OX+XXXXXXXXXXX    XXXXXXXXXXXXXXXXXX    XXXXXXXXXXX+XO.  . ",
" .  .+oXXXXXXXXXXXXXXXXXXXXXXXXXXXXXXXXXXXXXXXXXXXXXXXXXXo+.  . ",
" .  .OXXXXXXXXXXXXXXXXXXXXXXXXXXXXXXXXXXXXXXXXXXXXXXXXXXXXO.  . ",
" . @@@@@@@@@@@@@@@@@@@@@@@@@@@@@@@@@@@@@@@@@@@@@@@@@@@@@@@@@@ . ",
" .@                                                          @. ",
" @ .......................................................... @ "
};
