/* XPM */
static char *_623586c8630489ed4c4b1e4889551aaLUB6L5FT9GmjdQVb[] = {
/* columns rows colors chars-per-pixel */
"64 64 3 1 ",
"  c #CC0000",
". c #4219C9",
"X c white",
/* pixels */
"....................XXXXXXXXXXXXXXXXXXXXXXXX                    ",
"....................XXXXXXXXXXXXXXXXXXXXXXXX                    ",
"....................XXXXXXXXXXXXXXXXXXXXXXXX                    ",
"....................XXXXXXXXXXXXXXXXXXXXXXXX                    ",
"....................XXXXXXXXXXXXXXXXXXXXXXXX                    ",
"....................XXXXXXXXXXXXXXXXXXXXXXXX                    ",
"....................XXXXXXXXXXXXXXXXXXXXXXXX                    ",
"....................XXXXXXXXXXXXXXXXXXXXXXXX                    ",
"....................XXXXXXXXXXXXXXXXXXXXXXXX                    ",
"....................XXXXXXXXXXXXXXXXXXXXXXXX                    ",
"....................XXXXXXXXXXXXXXXXXXXXXXXX                    ",
"....................XXXXXXXXXXXXXXXXXXXXXXXX                    ",
"....................XXXXXXXXXXXXXXXXXXXXXXXX                    ",
"....................XXXXXXXXXXXXXXXXXXXXXXXX                    ",
"....................XXXXXXXXXXXXXXXXXXXXXXXX                    ",
"....................XXXXXXXXXXXXXXXXXXXXXXXX                    ",
"....................XXXXXXXXXXXXXXXXXXXXXXXX                    ",
"....................XXXXXXXXXXXXXXXXXXXXXXXX                    ",
"....................XXXXXXXXXXXXXXXXXXXXXXXX                    ",
"....................XXXXXXXXXXXXXXXXXXXXXXXX                    ",
"....................XXXXXXXXXXXXXXXXXXXXXXXX                    ",
"....................XXXXXXXXXXXXXXXXXXXXXXXX                    ",
"....................XXXXXXXXXXXXXXXXXXXXXXXX                    ",
"....................XXXXXXXXXXXXXXXXXXXXXXXX                    ",
"....................XXXXXXXXXXXXXXXXXXXXXXXX                    ",
"....................XXXXXXXXXXXXXXXXXXXXXXXX                    ",
"....................XXXXXXXXXXXXXXXXXXXXXXXX                    ",
"....................XXXXXXXXXXXXXXXXXXXXXXXX                    ",
"....................XXXXXXXXXXXXXXXXXXXXXXXX                    ",
"....................XXXXXXXXXXXXXXXXXXXXXXXX                    ",
"....................XXXXXXXXXXXXXXXXXXXXXXXX                    ",
"....................XXXXXXXXXXXXXXXXXXXXXXXX                    ",
"....................XXXXXXXXXXXXXXXXXXXXXXXX                    ",
"....................XXXXXXXXXXXXXXXXXXXXXXXX                    ",
"....................XXXXXXXXXXXXXXXXXXXXXXXX                    ",
"....................XXXXXXXXXXXXXXXXXXXXXXXX                    ",
"....................XXXXXXXXXXXXXXXXXXXXXXXX                    ",
"....................XXXXXXXXXXXXXXXXXXXXXXXX                    ",
"....................XXXXXXXXXXXXXXXXXXXXXXXX                    ",
"....................XXXXXXXXXXXXXXXXXXXXXXXX                    ",
"....................XXXXXXXXXXXXXXXXXXXXXXXX                    ",
"....................XXXXXXXXXXXXXXXXXXXXXXXX                    ",
"....................XXXXXXXXXXXXXXXXXXXXXXXX                    ",
"....................XXXXXXXXXXXXXXXXXXXXXXXX                    ",
"....................XXXXXXXXXXXXXXXXXXXXXXXX                    ",
"....................XXXXXXXXXXXXXXXXXXXXXXXX                    ",
"....................XXXXXXXXXXXXXXXXXXXXXXXX                    ",
"....................XXXXXXXXXXXXXXXXXXXXXXXX                    ",
"....................XXXXXXXXXXXXXXXXXXXXXXXX                    ",
"....................XXXXXXXXXXXXXXXXXXXXXXXX                    ",
"....................XXXXXXXXXXXXXXXXXXXXXXXX                    ",
"....................XXXXXXXXXXXXXXXXXXXXXXXX                    ",
"....................XXXXXXXXXXXXXXXXXXXXXXXX                    ",
"....................XXXXXXXXXXXXXXXXXXXXXXXX                    ",
"....................XXXXXXXXXXXXXXXXXXXXXXXX                    ",
"....................XXXXXXXXXXXXXXXXXXXXXXXX                    ",
"....................XXXXXXXXXXXXXXXXXXXXXXXX                    ",
"....................XXXXXXXXXXXXXXXXXXXXXXXX                    ",
"....................XXXXXXXXXXXXXXXXXXXXXXXX                    ",
"....................XXXXXXXXXXXXXXXXXXXXXXXX                    ",
"....................XXXXXXXXXXXXXXXXXXXXXXXX                    ",
"....................XXXXXXXXXXXXXXXXXXXXXXXX                    ",
"....................XXXXXXXXXXXXXXXXXXXXXXXX                    ",
"....................XXXXXXXXXXXXXXXXXXXXXXXX                    "
};
