/* XPM */
static char *_b0ff60ee95946dacc2519c6e9f7810fIRfblwflBYrwiVx1[] = {
/* columns rows colors chars-per-pixel */
"64 64 32 1 ",
"  c black",
". c #0C0C0C",
"X c #181818",
"o c gray18",
"O c #3C3C3C",
"+ c gray30",
"@ c #5A5A5A",
"# c #626262",
"$ c gray48",
"% c gray53",
"& c #9F9F9F",
"* c gray63",
"= c #A5A5A5",
"- c gray67",
"; c gray68",
": c #B2B2B2",
"> c #B4B4B4",
", c #B9B9B9",
"< c gray",
"1 c #C3C3C3",
"2 c #C6C6C6",
"3 c #CBCBCB",
"4 c gray80",
"5 c gray82",
"6 c gray83",
"7 c #D8D8D8",
"8 c #DDDDDD",
"9 c gray89",
"0 c #E4E4E4",
"q c #EAEAEA",
"w c #EEEEEE",
"e c gray94",
/* pixels */
"                                                                ",
"                                                                ",
"                                                                ",
"                                                                ",
"                                                                ",
"                                                                ",
"                                                                ",
"                                                                ",
"                                                                ",
"                                                                ",
"              O>8wqqq0qqqqq0q00qqqq0q0q0q0qq0098*+              ",
"             $eeqqq0990099990099990099099999997753#             ",
"            @eew8421211111121122111211212112135542<o            ",
"            >ew7212111221211211121121211211211222<>%            ",
"            ww72211112112121211111111122111122111,:=            ",
"            qq32112211211121112212212111122111121:;;            ",
"            q021121122111122111111121112111221111:-=            ",
"            q011112111122111122122112211221111221;-=            ",
"            q022221112122112121111211121112112111:-=            ",
"            q9111112$.      X$1212$.      X$11212;-=            ",
"            q0211221X        .1211X        .12111;-*            ",
"            09111111          1121          12122:-=            ",
"            q0122112          2111          11211;-=            ",
"            q0122112          1122          21111:-*            ",
"            q9111112          2211          21122:-=            ",
"            q0211211          1112          21121;-=            ",
"            00122121          1211          11111:-*            ",
"            q0111121          1121          12212;-=            ",
"            q9211211          2111          21111:-*            ",
"            q0111121          1122          11222;-=            ",
"            00222211          2211          12112:-*            ",
"            q0111112          1112          11211;-=            ",
"            q0211221          1212          21121;-=            ",
"            09111111          1111          21121:-=            ",
"            q0122112          2122          11111:-*            ",
"            q0122112          1111          12212;-=            ",
"            q9111112          2211          11121;-=            ",
"            q0211211.        X1122.        X22112:-=            ",
"            00122121$X      .$1211$X      .$11211;-=            ",
"            q011112111212112121112112112112112111:-*            ",
"            q921121122111122112111212111221111221:-=            ",
"            q911112111122111121121211121111221111;-=            ",
"            0022221111122111112212111212111221112;-*            ",
"            q011111222111122211111121211221111221:-=            ",
"            q91111# #1122111111221121121112112112:-=            ",
"            092222   2111121221121121211121111211;-=            ",
"            q01111# #1211212112111111122112222111:==            ",
"            q021121121211211121112212111211111122;-=            ",
"            q022121112112211112212212111211111121;-=            ",
"            0011121211211112211111111122112222111:-=            ",
"            q921112122111112211121121211121111212:-=            ",
"            0921211111122211112221121121112112111;-*            ",
"            q921112221111121121111121211221111221:-=            ",
"            q921211111221211112112111212111221112;-=            ",
"            q011211112111122221121211121111221111:-=            ",
"            0912112211212111111211212111221111222;==            ",
"            q022112211212111111212112211121112111:-=            ",
"            0011211112111122221111211112121211211;-=            ",
"            0921211111221211112122111112112122112;-*            ",
"            9821112221111121121111122211211111122;==            ",
"            7622211111122211112221111112112221111-*=            ",
"            6511112122111112211111221211211111221=**            ",
"            3221121211211112211112112121211112112**&            ",
"            1<21121112112211112211211121112211211***            "
};
