/* XPM */
static char *_238f0b0ed3043a2dcc50765e204d5b7FfRiDK0SVL76hktW[] = {
/* columns rows colors chars-per-pixel */
"32 32 6 1 ",
"  c None",
". c black",
"X c #696A6A",
"o c red",
"O c #FBF236",
"+ c #9BADB7",
/* pixels */
"           XX.XXXX.XX           ",
"         XXX+..++..+XXX         ",
"       XX++++X....X++++XX       ",
"      ..++++++X..X++++++..      ",
"     XX..++++++XX++++++..XX     ",
"    X++X..++++++++++++..X++X    ",
"   X++++X...++++++++...X++++X   ",
"   X+++++XX..++..++..XX+++++X   ",
"  X++++++++++++++++++++++++++X  ",
"  X++++++++++++++++++++++++++X  ",
"  X++++.++++++++++++++++.++++X  ",
"  X+++.X......++++......X.+++X  ",
"  X++.X++++++X.++.X++++++X.++X  ",
"  X+.X++++++++X..X++++++++X.+X  ",
"   X.++++++++++++++++++++++.X   ",
"   X.++++++++++++++++++++++.X   ",
"   X+++........++........+++X   ",
"    X++...o....++....o...++X    ",
"     X+...Oo..++++..oO...+X     ",
"    X+++.....++++++.....+++X    ",
"    X++++...++++++++...++++X    ",
"    X+.X++++++.++.++++++X.+X    ",
"    X++.X++++X.++.X++++X.++X    ",
"     X++..+++..++..+++..++X     ",
"      XX++++++++++++++++XX      ",
"        X++++++++++++++X        ",
"         X+.++.++.++.+X         ",
"         X+..........+X         ",
"         X++++.++.++++X         ",
"          X++++++++++X          ",
"           X.+.XX.+.X           ",
"            X.X  X.X            "
};
