/* XPM */
static char *a3f56593d32d4cfca0a33f297fa460faYxs8mFUbanmFDqCK[] = {
/* columns rows colors chars-per-pixel */
"32 32 8 1 ",
"  c None",
". c #100F18",
"X c #222034",
"o c #29294D",
"O c #353561",
"+ c #3F3F74",
"@ c #4D4D8C",
"# c #847E87",
/* pixels */
"       XXXXXXXXXXXXXXXXXX       ",
"     XXXXXooXooooooXooXXXXX     ",
"   XXXXXooO@XoOOOOoX@OooXXXXX   ",
"  XXXXXoOO+@XoO++OoX@+OOoXXXXX  ",
" XXXooXoO++@XoO++OoX@++OoXooXXX ",
"XXXoO@XoO++@XoO++OoX@++OoX@OoXXX",
"XXoO+@XoO++@XoO++OoX@++OoX@+OoXX",
"XXoO+@XoO++@XoO++OoX@++OoX@+OoXX",
"XXoO+@XoO++@XoO++OoX@++OoX@+OoXX",
"XXoO+@XoO++@XoO++OoX@++OoX@+OoXX",
"XXoO+@XoO++@XoO++OoX@++OoX@+OoXX",
"XXoO+@XoO++@XoO++OoX@++OoX@+OoXX",
"XXoO+@XoO++@XoO++OoX@++OoX@+OoXX",
"XXoO+@XoO++@XoO++OoX@++OoX@+OoXX",
"XXoO+@XoO++@XoO++OoX@++OoX@+OoXX",
"XXoO+@XoO++@XoO++OoX@++OoX@+OoXX",
"XXoO+@XoO++@XoO++OoX@++OoX@XOoXX",
"XXoO+@XoO++@XoO++OoX@++OoX..XoXX",
"XXoO+@XoO++@XoO++OoX@++Oo..#.XXX",
"XXoO+@XoO++@XoO++OoX@++OoX..XoXX",
"XXoO+@XoO++@XoO++OoX@++OoX@XOoXX",
"XXoO+@XoO++@XoO++OoX@++OoX@+OoXX",
"XXoO+@XoO++@XoO++OoX@++OoX@+OoXX",
"XXoO+@XoO++@XoO++OoX@++OoX@+OoXX",
"XXoO+@XoO++@XoO++OoX@++OoX@+OoXX",
"XXoO+@XoO++@XoO++OoX@++OoX@+OoXX",
"XXoO+@XoO++@XoO++OoX@++OoX@+OoXX",
"XXoO+@XoO++@XoO++OoX@++OoX@+OoXX",
"XXoO+@XoO++@XoO++OoX@++OoX@+OoXX",
"XXoO+@XoO++@XoO++OoX@++OoX@+OoXX",
"XXXXXXXXXXXXXXXXXXXXXXXXXXXXXXXX",
"XXXXXXXXXXXXXXXXXXXXXXXXXXXXXXXX"
};
