/* XPM */
static char *_9ec7f7e951d439cd78ee1cea4c0c3eavZpqISJ9tp36Dmiy[] = {
/* columns rows colors chars-per-pixel */
"32 32 18 1 ",
"  c None",
". c black",
"X c #232927",
"o c #222034",
"O c #323C39",
"+ c #663931",
"@ c #3F3F74",
"# c #3C4945",
"$ c #595652",
"% c #565858",
"& c #575858",
"* c #696A6A",
"= c #8F563B",
"- c #C7935E",
"; c #D9A066",
": c #847E87",
"> c #9BADB7",
", c #CBDBFC",
/* pixels */
"            @@o@                ",
"           @ooo@@               ",
"        ::::::oo@@:::           ",
"       &********oo@*::          ",
"      &***********o**::         ",
"     &****************::        ",
"    &******************::       ",
"    &****XOOOOOOOOOOOOOO:       ",
"    &****XOOOOOOOOOOOOOO:       ",
"    &**XXO......OO......:       ",
"    &XXOOO...---OO---...:       ",
"    &XOOOO...-;;OO;;-...:       ",
"    &XOOOO...=;;OO;;=...:       ",
"    &X&&&&--++;;OO;;++--:       ",
"     &****-;;;;;OO;;;;;-:       ",
"       **-;;;;;;;;;;;;;         ",
"        ooooooo@@@@@@           ",
"        ooooooo@@@@@@           ",
"       ***X##########           ",
"       ***XOOOOOOOOO#           ",
"       ***XOOOOOOOOO#           ",
"     .....XOOOOOOOOO#.          ",
"      ....XOOO*&*OOO#..>>>,,,,: ",
"       ...XOOO*&*OOO#..:::::::: ",
"         XXOOO*&*OOO#           ",
"         XOOOO*&*OOO#           ",
"         oooooo@@@@@@           ",
"         oooooo@@@@@@           ",
"         oooooo@@@@@@           ",
"         ....    ....           ",
"         .$..    .$..           ",
"         .....   .....          "
};
