/* XPM */
static char *_2f9114482094baec17ee71e4222da46XpXplHuAlDrJwgSf[] = {
/* columns rows colors chars-per-pixel */
"64 64 3 1 ",
"  c #CC0000",
". c #08B318",
"X c white",
/* pixels */
"....................XXXXXXXXXXXXXXXXXXXXXXXX                    ",
"....................XXXXXXXXXXXXXXXXXXXXXXXX                    ",
"....................XXXXXXXXXXXXXXXXXXXXXXXX                    ",
"....................XXXXXXXXXXXXXXXXXXXXXXXX                    ",
"....................XXXXXXXXXXXXXXXXXXXXXXXX                    ",
"....................XXXXXXXXXXXXXXXXXXXXXXXX                    ",
"....................XXXXXXXXXXXXXXXXXXXXXXXX                    ",
"....................XXXXXXXXXXXXXXXXXXXXXXXX                    ",
"....................XXXXXXXXXXXXXXXXXXXXXXXX                    ",
"....................XXXXXXXXXXXXXXXXXXXXXXXX                    ",
"....................XXXXXXXXXXXXXXXXXXXXXXXX                    ",
"....................XXXXXXXXXXXXXXXXXXXXXXXX                    ",
"....................XXXXXXXXXXXXXXXXXXXXXXXX                    ",
"....................XXXXXXXXXXXXXXXXXXXXXXXX                    ",
"....................XXXXXXXXXXXXXXXXXXXXXXXX                    ",
"....................XXXXXXXXXXXXXXXXXXXXXXXX                    ",
"....................XXXXXXXXXXXXXXXXXXXXXXXX                    ",
"....................XXXXXXXXXXXXXXXXXXXXXXXX                    ",
"....................XXXXXXXXXXXXXXXXXXXXXXXX                    ",
"....................XXXXXXXXXXXXXXXXXXXXXXXX                    ",
"....................XXXXXXXXXXXXXXXXXXXXXXXX                    ",
"....................XXXXXXXXXXXXXXXXXXXXXXXX                    ",
"....................XXXXXXXXXXXXXXXXXXXXXXXX                    ",
"....................XXXXXXXXXXXXXXXXXXXXXXXX                    ",
"....................XXXXXXXXXXXXXXXXXXXXXXXX                    ",
"....................XXXXXXXXXXXXXXXXXXXXXXXX                    ",
"....................XXXXXXXXXXXXXXXXXXXXXXXX                    ",
"....................XXXXXXXXXXXXXXXXXXXXXXXX                    ",
"....................XXXXXXXXXXXXXXXXXXXXXXXX                    ",
"....................XXXXXXXXXXXXXXXXXXXXXXXX                    ",
"....................XXXXXXXXXXXXXXXXXXXXXXXX                    ",
"....................XXXXXXXXXXXXXXXXXXXXXXXX                    ",
"....................XXXXXXXXXXXXXXXXXXXXXXXX                    ",
"....................XXXXXXXXXXXXXXXXXXXXXXXX                    ",
"....................XXXXXXXXXXXXXXXXXXXXXXXX                    ",
"....................XXXXXXXXXXXXXXXXXXXXXXXX                    ",
"....................XXXXXXXXXXXXXXXXXXXXXXXX                    ",
"....................XXXXXXXXXXXXXXXXXXXXXXXX                    ",
"....................XXXXXXXXXXXXXXXXXXXXXXXX                    ",
"....................XXXXXXXXXXXXXXXXXXXXXXXX                    ",
"....................XXXXXXXXXXXXXXXXXXXXXXXX                    ",
"....................XXXXXXXXXXXXXXXXXXXXXXXX                    ",
"....................XXXXXXXXXXXXXXXXXXXXXXXX                    ",
"....................XXXXXXXXXXXXXXXXXXXXXXXX                    ",
"....................XXXXXXXXXXXXXXXXXXXXXXXX                    ",
"....................XXXXXXXXXXXXXXXXXXXXXXXX                    ",
"....................XXXXXXXXXXXXXXXXXXXXXXXX                    ",
"....................XXXXXXXXXXXXXXXXXXXXXXXX                    ",
"....................XXXXXXXXXXXXXXXXXXXXXXXX                    ",
"....................XXXXXXXXXXXXXXXXXXXXXXXX                    ",
"....................XXXXXXXXXXXXXXXXXXXXXXXX                    ",
"....................XXXXXXXXXXXXXXXXXXXXXXXX                    ",
"....................XXXXXXXXXXXXXXXXXXXXXXXX                    ",
"....................XXXXXXXXXXXXXXXXXXXXXXXX                    ",
"....................XXXXXXXXXXXXXXXXXXXXXXXX                    ",
"....................XXXXXXXXXXXXXXXXXXXXXXXX                    ",
"....................XXXXXXXXXXXXXXXXXXXXXXXX                    ",
"....................XXXXXXXXXXXXXXXXXXXXXXXX                    ",
"....................XXXXXXXXXXXXXXXXXXXXXXXX                    ",
"....................XXXXXXXXXXXXXXXXXXXXXXXX                    ",
"....................XXXXXXXXXXXXXXXXXXXXXXXX                    ",
"....................XXXXXXXXXXXXXXXXXXXXXXXX                    ",
"....................XXXXXXXXXXXXXXXXXXXXXXXX                    ",
"....................XXXXXXXXXXXXXXXXXXXXXXXX                    "
};
