/* XPM */
static char *_3439978cb3c4c22c123a23fadcf4704dAIzize9QIQunUgo[] = {
/* columns rows colors chars-per-pixel */
"64 64 15 1 ",
"  c black",
". c black",
"X c gray12",
"o c #3A3838",
"O c #5B0B0B",
"+ c #4D4B4B",
"@ c #797878",
"# c #AC3232",
"$ c #DB4747",
"% c #EC4E4E",
"& c #FFF642",
"* c #AEAAAA",
"= c #D7D7D7",
"- c #EEEEEE",
"; c white",
/* pixels */
"                                                                ",
"                                                                ",
"                                                                ",
"                                                                ",
"                              @@@@                              ",
"                             @+=@@@                             ",
"                           @@+--@--                             ",
"                           @@+++=++                             ",
"                           @+==.+=.                             ",
"                           @++--+--                             ",
"                           @@+==+==                             ",
"                            @++==--                             ",
"                             @+=++@                             ",
"                             @+==@                              ",
"                              +@@@                              ",
"                              ++                                ",
"                       ====== += ====                           ",
"                      ==++@@======@++=                          ",
"                     *===+*****==$$+%#=                         ",
"                    ***====@@@@*=$O#O#=                         ",
"                    ***=***=@@@@*=#OO=                          ",
"                    @*= ++**=@@@*==O=@=                         ",
"                   @=    ++**=@@==== ==                         ",
"                  +===    ++*==*===  ==                         ",
"                  @===    ++*====== ===@                        ",
"                 +@@==     +**====  ==@+@                       ",
"                 +@@==     ++*===   =@o++@                      ",
"                 +@@=       +*===    @o@++@                     ",
"                 +@@=        *===    =o+@+@                     ",
"                 +@@=       @*===    =oo@+@                     ",
"                 +@==     @@@@@@@@@  ==o@+@                     ",
"                 +@==    @+========   ==++@                     ",
"                +@@==    +@========    o+++@                    ",
"                +@==     +@@@==@@@=   oo+++@                    ",
"                +@==     +@@@==@@@==  oo++++@                   ",
"                 +@=     +@@@==@@@==  ooooo+@                   ",
"                 +@=    ++@@@==+@@==   o@@@o+@                  ",
"                 +@=    +@@@@==+@@==   o@@=o+@                  ",
"                 +@=    +@@@@==+@@==   @@= o++@                 ",
"                 +@==   +@@@@==+@@==       oo+@                 ",
"                 +@=    +@@@@== +@@=        o++@                ",
"                  @@=   +@@@==  +@@=         o+@                ",
"                   @@=  +@@@==  +@@=          o+@               ",
"                        ++@@==  +@@=          o+@               ",
"                         +@@=    +@=           o+@  &           ",
"                           ==     ==           o++;;&           ",
"                          ===    ===          &;o+& ;&          ",
"                         @===   @===          ;&;&;&#           ",
"                         @===   @===          ;&#&#             ",
"                         @@@@   @@@@         & ;&#&#            ",
"                        @@@=    @@==        & #  &              ",
"                        @@@=    @@=                             ",
"                        @@@=    @@=                             ",
"                        @@@=    @@=                             ",
"                        @@@=    @@=                             ",
"                         @=      @=                             ",
"                         @=      @=                             ",
"                         @=      @=                             ",
"                         @=      @=                             ",
"                         ==      @@=                            ",
"                   XXXXX@===XXXX@@@==X                          ",
"                 XXXXXX@=====XXX@=====XX                        ",
"                     XXXXXXXXXXXXXXXXXX                         ",
"                                                                "
};
