/* XPM */
static char *_8d7eb9da8db43edcd7deb4a70a8c975B9MhY1XlvkEmx4Lo[] = {
/* columns rows colors chars-per-pixel */
"64 64 12 1 ",
"  c black",
". c gray12",
"X c #3A3838",
"o c #5B0B0B",
"O c #4D4B4B",
"+ c #797878",
"@ c #AC3232",
"# c #FFF642",
"$ c #AEAAAA",
"% c #D7D7D7",
"& c #EEEEEE",
"* c white",
/* pixels */
"                                                                ",
"                                                                ",
"                                                                ",
"                                                                ",
"                                                                ",
"                                                                ",
"                              ++++                              ",
"                             +O%+++                             ",
"                           ++O&&+&&                             ",
"                           ++OOO%OO                             ",
"                           +O%%@O%@                             ",
"                           +OO&&O&&                             ",
"                           ++O%%O%%                             ",
"                            +OO%%&&                             ",
"                             +O%OO+                             ",
"                             +O%%+                              ",
"                              O+++                              ",
"                              OO                                ",
"                       %%%%%% O% %%%%                           ",
"                      %%OO++%%%%%%+OO%                          ",
"                     $%%%O$$$$$%%@@O@o%                         ",
"                    $$$%%%%++++$%@o@oo%                         ",
"                    $$$%$$$%++++$%@oo%                          ",
"                    +$% OO$$%+++$%%o%+%                         ",
"                   +%    OO$$%++%%%% %%                         ",
"                  O%%%    OO$%%$%%%  %%                         ",
"                  +%%%    OO$%%%%%% %%%+                        ",
"                 O++%%     O$$%%%%  %%+O+                       ",
"                 O++%%     OO$%%%   %+XOO+                      ",
"                 O++%       O$%%%    +X+OO+                     ",
"                 O++%        $%%%    %XO+O+                     ",
"                 O++%       +$%%%    %XX+O+                     ",
"                 O+%%     +++++++++  %%X+O+                     ",
"                 O+%%    +O%%%%%%%%   %%OO+                     ",
"                O++%%    O+%%%%%%%%    XOOO+                    ",
"                O+%%     O+++%%+++%   XXOOO+                    ",
"                O+%%     O+++%%+++%%  XXOOOO+                   ",
"                 O+%     O+++%%+++%%  XXXXXO+                   ",
"                 O+%    OO+++%%O++%%   X+++XO+                  ",
"                 O+%    O++++%%O++%%   X++%XO+                  ",
"                 O+%    O++++%%O++%%   ++% XOO+                 ",
"                 O+%%   O++++%%O++%%       XXO+                 ",
"                 O+%    O++++%% O++%        XOO+                ",
"                  ++%   O+++%%  O++%         XO+                ",
"                   ++%  O+++%%  O++%          XO+               ",
"                        OO++%%  O++%          XO+    #          ",
"                         O++%    O+%           XO###**          ",
"                           %%     %%           XO###*           ",
"                          %%%    %%%           ###***           ",
"                         +%%%   +%%%          ##*****           ",
"                         +%%%   +%%%          #****             ",
"                        +++++   ++++         #*#*               ",
"                        +++%    ++%           ***               ",
"                        +++%    ++%                             ",
"                        +++%    ++%                             ",
"                         +%      +%                             ",
"                         +%      +%                             ",
"                         +%      +%                             ",
"                         +%      +%                             ",
"                         %%      ++%                            ",
"                   .....+%%%....+++%%.                          ",
"                 ......+%%%%%...+%%%%%..                        ",
"                     ..................                         ",
"                                                                "
};
