/* XPM */
static char *_2f0798e07c547629a14b346fb6bb8aeUicbn2lRwDOcOxwr[] = {
/* columns rows colors chars-per-pixel */
"64 64 12 1 ",
"  c black",
". c black",
"X c gray12",
"o c #3A3838",
"O c #5B0B0B",
"+ c #4D4B4B",
"@ c #797878",
"# c #AC3232",
"$ c #FFF642",
"% c #AEAAAA",
"& c #D7D7D7",
"* c #EEEEEE",
/* pixels */
"                                                                ",
"                                                                ",
"                                                                ",
"                                                                ",
"                                                                ",
"                              @@@@                              ",
"                             @+&@@@                             ",
"                           @@+**@**                             ",
"                           @@+++&++                             ",
"                           @+&&.+&.                             ",
"                           @++**+**                             ",
"                           @@+&&+&&                             ",
"                            @++&&**                             ",
"                             @+&++@                             ",
"                             @+&&@                              ",
"                              +@@@                              ",
"                              ++                                ",
"                       &&&&&& +& &&&&                           ",
"                      &&++@@&&&&&&@++&                          ",
"                     %&&&+%%%%%&&##+#O&                         ",
"                    %%%&&&&@@@@%&#O#O#&                         ",
"                    %%%&%%%&@@@@%&#OO&                          ",
"                    @%& ++%%&@@@%&&O&@&                         ",
"                   @&    ++%%&@@&&&& &&                         ",
"                  +&&&    ++%&&%&&&  &&                         ",
"                  @&&&    ++%&&&&&& &&&@                        ",
"                 +@@&&     +%%&&&&  &&@+@                       ",
"                 +@@&&     ++%&&&   &@o++@                      ",
"                 +@@&       +%&&&    @o@++@                     ",
"                 +@@&        %&&&    &o+@+@                     ",
"                 +@@&       @%&&&    &oo@+@                     ",
"                 +@&&     @@@@@@@@@  &&o@+@                     ",
"                 +@&&    @+&&&&&&&&   &&++@                     ",
"                +@@&&    +@&&&&&&&&    o+++@                    ",
"                +@&&     +@@@&&@@@&   oo+++@                    ",
"                +@&&     +@@@&&@@@&&  oo++++@                   ",
"                 +@&     +@@@&&@@@&&  ooooo+@                   ",
"                 +@&    ++@@@&&+@@&&   o@@@o+@                  ",
"                 +@&    +@@@@&&+@@&&   o@@&o+@                  ",
"                 +@&    +@@@@&&+@@&&   @@& o++@                 ",
"                 +@&&   +@@@@&&+@@&&       oo+@                 ",
"                 +@&    +@@@@&& +@@&        o++@                ",
"                  @@&   +@@@&&  +@@&         o+@                ",
"                   @@&  +@@@&&  +@@&          o+@               ",
"                        ++@@&&  +@@&          o+@    $          ",
"                         +@@&    +@&           o+@$$$           ",
"                           &&     &&           o++$$            ",
"                          &&&    &&&           $$$              ",
"                         @&&&   @&&&          $$ $              ",
"                         @&&&   @&&&          $                 ",
"                        @@@@@   @@@@         $ $                ",
"                        @@@&    @@&                             ",
"                        @@@&    @@&                             ",
"                        @@@&    @@&                             ",
"                        @@@&    @@&                             ",
"                         @&      @&                             ",
"                         @&      @&                             ",
"                         @&      @&                             ",
"                         @&      @&                             ",
"                         &&      @@&                            ",
"                   XXXXX@&&&XXXX@@@&&X                          ",
"                 XXXXXX@&&&&&XXX@&&&&&XX                        ",
"                     XXXXXXXXXXXXXXXXXX                         ",
"                                                                "
};
