/* XPM */
static char *f53cb052e37f47cfe7e9ffa51a0055d9N8jwSnKbqVHCiepu[] = {
/* columns rows colors chars-per-pixel */
"64 64 2 1 ",
"  c #CC0000",
". c white",
/* pixels */
"                                                                ",
"                                                                ",
"                                                                ",
"                                                                ",
"                                                                ",
"                                                                ",
"                                                                ",
"                                                                ",
"                                                                ",
"                                                                ",
"                                                                ",
"                                                                ",
"                                                                ",
"                                                                ",
"                                                                ",
"                                                                ",
"                                                                ",
"                                                                ",
"                                                                ",
"                         ...........                            ",
"                         ...........                            ",
"                         ...........                            ",
"                         ...........                            ",
"                         ...........                            ",
"                         ...........                            ",
"                         ...........                            ",
"                  ........................                      ",
"                  ........................                      ",
"                  ........................                      ",
"                  ........................                      ",
"                  ........................                      ",
"                  ........................                      ",
"                  ........................                      ",
"                  ........................                      ",
"                  ........................                      ",
"                  ........................                      ",
"                  ........................                      ",
"                         ..........                             ",
"                         ..........                             ",
"                         ..........                             ",
"                         ..........                             ",
"                         ..........                             ",
"                         ..........                             ",
"                         ..........                             ",
"                                                                ",
"                                                                ",
"                                                                ",
"                                                                ",
"                                                                ",
"                                                                ",
"                                                                ",
"                                                                ",
"                                                                ",
"                                                                ",
"                                                                ",
"                                                                ",
"                                                                ",
"                                                                ",
"                                                                ",
"                                                                ",
"                                                                ",
"                                                                ",
"                                                                ",
"                                                                "
};
