/* XPM */
static char *fe935a1d6adc48ca8512b1d8d31f717ekl05KLDOENOMjOdS[] = {
/* columns rows colors chars-per-pixel */
"32 32 226 2 ",
"   c #EB7D45",
".  c #EB764F",
"X  c #EC7E4A",
"o  c #EA6B5F",
"O  c #E97758",
"+  c #EB5F7E",
"@  c #D57368",
"#  c #D67669",
"$  c #CB6C77",
"%  c #D7697B",
"&  c #CE7177",
"*  c #D67B73",
"=  c #DB7579",
"-  c #ED6E65",
";  c #EA6B6C",
":  c #E97767",
">  c #ED7E6C",
",  c #E96772",
"<  c #EC6B73",
"1  c #EB627C",
"2  c #EB6A7B",
"3  c #ED757C",
"4  c #EE7D7D",
"5  c #EB8045",
"6  c #EC824D",
"7  c #EC8552",
"8  c #EC8955",
"9  c #ED845D",
"0  c #ED8C5C",
"q  c #EB915D",
"w  c #E39D59",
"e  c #DAAE51",
"r  c #E0AA5D",
"t  c #D88178",
"y  c #D9837D",
"u  c #ED8765",
"i  c #ED8E61",
"p  c #EE9364",
"a  c #EF9569",
"s  c #EF9A6D",
"d  c #F0956A",
"f  c #F09A6D",
"g  c #EE8273",
"h  c #E98B76",
"j  c #EF9D73",
"k  c #F19C73",
"l  c #F39F7A",
"z  c #DEB561",
"x  c #E5AC6A",
"c  c #ECA676",
"v  c #F1A37B",
"b  c #F1A47A",
"n  c #B8EC4C",
"m  c #BBED53",
"M  c #BEEE5D",
"N  c #BFEE61",
"B  c #CDCC56",
"V  c #C0EF5E",
"C  c #D7C567",
"Z  c #D7D374",
"A  c #D3D474",
"S  c #E2C47F",
"D  c #C1EE63",
"F  c #C5EF6B",
"G  c #C4F06C",
"H  c #C5EF70",
"J  c #C7F073",
"K  c #C8F075",
"L  c #CBF27C",
"P  c #7E46E9",
"I  c #BD658B",
"U  c #BF6B8C",
"Y  c #BD6C93",
"T  c #B66599",
"R  c #BA659B",
"E  c #BA6A9B",
"W  c #BE719C",
"Q  c #9B57BD",
"!  c #9E59B9",
"~  c #A75BAB",
"^  c #AA5CAA",
"/  c #B75CA6",
"(  c #A557B7",
")  c #A55BB2",
"_  c #B15EBD",
"`  c #AD62A7",
"'  c #AF63A9",
"]  c #B469A7",
"[  c #BB75A8",
"{  c #A965B6",
"}  c #A663BB",
"|  c #B169B3",
" . c #B576BB",
".. c #DF5C89",
"X. c #C85D98",
"o. c #D45B9A",
"O. c #EC5C87",
"+. c #EB5D8C",
"@. c #EB5B94",
"#. c #E75798",
"$. c #EB5C9B",
"%. c #C36A87",
"&. c #D7688E",
"*. c #C87487",
"=. c #C46898",
"-. c #D66A9D",
";. c #C47799",
":. c #EC6483",
">. c #EC6B83",
",. c #EA698A",
"<. c #EB7B85",
"1. c #EE7B8B",
"2. c #ED6493",
"3. c #E96798",
"4. c #ED6B9A",
"5. c #EE7895",
"6. c #EF7C9A",
"7. c #CA57AD",
"8. c #DB57A6",
"9. c #D24CB6",
"0. c #EC58A5",
"q. c #CD62A4",
"w. c #C278A3",
"e. c #D173AA",
"r. c #EC66A9",
"t. c #EF7BA7",
"y. c #8E4CCE",
"u. c #914FCE",
"i. c #9956C4",
"p. c #9A58C4",
"a. c #9252CC",
"s. c #9B5CCA",
"d. c #8C4CD3",
"f. c #8346DE",
"g. c #8B50DA",
"h. c #9358D6",
"j. c #A15EC3",
"k. c #BB5DC6",
"l. c #AA59D2",
"z. c #9E66C6",
"x. c #9B63D8",
"c. c #A463C3",
"v. c #AB67C2",
"b. c #A263C9",
"n. c #B969C6",
"m. c #B377C7",
"M. c #A26CD8",
"N. c #8349E2",
"B. c #844AE5",
"V. c #C962C4",
"C. c #B8A4BA",
"Z. c #D88A87",
"A. c #D9889B",
"S. c #DA9792",
"D. c #EF8584",
"F. c #EF8D82",
"G. c #EE8888",
"H. c #E89986",
"J. c #F08494",
"K. c #F29A9C",
"L. c #EEAA85",
"P. c #F1A682",
"I. c #F2AB85",
"U. c #F2A989",
"Y. c #EDB18E",
"T. c #F3B18D",
"R. c #F3B494",
"E. c #F3B994",
"W. c #F4BA9C",
"Q. c #C784A9",
"!. c #D79AAA",
"~. c #D687B6",
"^. c #D59FBB",
"/. c #F186A7",
"(. c #F28BB2",
"). c #DDA0A6",
"_. c #E9A9AC",
"`. c #F5BCA1",
"'. c #F5B6BA",
"]. c #E6C286",
"[. c #EEC699",
"{. c #E0D993",
"}. c #D5E787",
"|. c #CDF184",
" X c #CFF288",
".X c #D1F38D",
"XX c #D4F394",
"oX c #D6F49B",
"OX c #D8F59B",
"+X c #F4C7A7",
"@X c #F6C4AB",
"#X c #E9D8A7",
"$X c #EDC5BC",
"%X c #F7CCB5",
"&X c #F7C8BA",
"*X c #EFDAB4",
"=X c #F6D3BB",
"-X c #DAF5A3",
";X c #DEF6AC",
":X c #DFF6B0",
">X c #E3E5A7",
",X c #EFE2BE",
"<X c #F0E2BE",
"1X c #E2F7B5",
"2X c #E4F7BB",
"3X c #E5F8BC",
"4X c #B987CF",
"5X c #C493CA",
"6X c #E389CC",
"7X c #D7A7C6",
"8X c #ECB5CC",
"9X c #F8D5C3",
"0X c #FADACB",
"qX c #F3D6D2",
"wX c #F3E7CB",
"eX c #E7F8C2",
"rX c #E8F9C4",
"tX c #EAFACB",
"yX c #FBE6DB",
"uX c #EEFBD5",
"iX c #EFFBDA",
"pX c #F0FBDB",
"aX c #FDEAE2",
"sX c #FAF9ED",
"dX c #FEF6F2",
"fX c #FFFFFF",
/* pixels */
"0 S.-.;   e V W.`.r.$.T.i 7 8 8 t T a.W i X a `.fXR.i 7 w G I.v ",
"e.k.o.- d V M %X(.0.@.f 6 *.] [ } [ Z.s 8 0XdX=Xs     7 z |.p p ",
"k.#.. 7 dXF D '.0.0.4 7 # a.h.M.7Xp 0 * 4X| E T ~ %.6 yX-XOXb j ",
"8.O   b ;XV L /.$.1.0 I i.^ V.~.^ E ] ] ) ' I E } I X I.rX:Xj j ",
"O 5 p ,XM m {.3 < 0 # i.) D.@.O.h ] ] U * 7 v R.  X 6 c Z v 6 q ",
"7 c {.G e r s 6 # ] T Q X.@.@.3 p p 8 0 p a +X0 6 k E.A Y.b 5 5 ",
"0XD n N w W } ^ M.Q.%.Q 9.#.g 8 8 8 L.s b U.%XW.E.:X|.R.8 I.8 d ",
"J n n |.0 T p.{ ~.> X i.9.0.; p L.@XfXfX9XU.[.eXXX>X[.7 q 7 v b ",
"D oX|.F s p 7 j 6.6.v c.V.4.D.0X3XOXrXrX3XrX-XOXwXT.5 7 7 8XT A.",
"R.v ].L -X`.0 7 6.6.R.!.z.t I.fXL -XrXrX1X3XrX*Xj 7 6   R.} x.^.",
"w.0 I.OXJ ].T.v > 3.6.K.w.} S.w J.1.f %X9X%X@Xv 6 6 q p Y g.| s ",
"m.d R.pXXXK 3XwX9XG.0.0.6XC.z.| q.$.g %X9X%X@XR.8 8 P.& a.{ . ,.",
"i.} ( !.@X%X#X.X2X9X1.4.<.2.~.l.l.'.r./.'.9X8X(.f t I Q E O.2 8 ",
"o.( s.b.*.D.6.$X.XL F  Xp O 1.V.n.j g r.r.,.@.O.u ) I = 2.h a 7 ",
"@.< = j.x.&.4.G.#X.XD L #Xa 0 b.v.0 I.<.2.:...X.! . D.3.J.j q x ",
"K.h v w.s.c.= 1.- c OXL 1Xi Y s.a.;.Q.Q.4X] ^ ~ @   > ,.h w C -X",
"1X1X-X*X).U y.q.+.u ;XL ;Xw.i.m.qX;.I ;.] 7.o.%   6 f ].J XXiX@X",
"1X1X1XL ;Xq ! u.X.D.;XG .X} j.!.h < ; , 2 @.@.- v v q C iXyX0Xi ",
"d 0 I.#XL S y j./ g tXD A ;.%.u 1 O.; , 1 6.: W.*XS }.iX0Xp p 0 ",
"X   6 T.-X1X%X$ $ 8 pX.XB c x L.K.g 0 p +X%XyXuXXXOXwXE.0 p v k ",
"$ I   X sXXXwX6   8 Y.A #X1X2X:X;XtXeX1XrXtX:X:X3X*Xv 8 U.a U.k ",
"d.~   . &XuX3X6 5 I.x 8 p P.v R.E.#XeX1XeXeXiXaXl 8 6 b v @X!.~ ",
"i.Q 6 1 2 rX-Xc f <Xw 6 7 0 7 f a g G.I.v a q 8 X 7 s 6 p * p.[ ",
"N.( 6 + 1 wXXXeXtXH q 6 ;.| E y Y.g 3.2 o 5 7 d s > 2 % [ z.;.t ",
"P N.@ , < W.sXK F -X7 5 5X| ;.} Q.[ % +.O.+ 1 :.1 ,.#./ ) -.: i ",
"B.N.~ >., X +XL N tXd 9 g 5.H.H.5X .' % 1 1 :.:.>.,./ ^ #.<.F.b ",
"x.N.u.= @.O d  XJ tXyXR.> < 4./.t.A.{ { $ 6 0 a H._ -.r.U.I.v d ",
"j.g.N.R R #.2._.-X-X:X3X<Xa 9 2.$.6.y } a.! *.*.Q @.#.7 i d Z.' ",
"f.g.N.h.;.=.2.5.v T.iXOXOX,Xd a J.>.p ' p.s.} { ` o.#.o i H.m.x.",
"d.f.f.y.g.} = i X 8 =XpXV F l 5 : ; [ w.7 * =.o.q.-.9.-.%.} Q.] ",
"y.d.y.y.a.P f.R 5 7 k 9Xm n k   . } e.4.3 >.2 < 3 4 >.=.E * d ).",
"T d.y.4Xx.x.B. .T.R.v =Xm m 0X# ! _._.(.(.K.W.L.v b d 7 i v E.W."
};
