/* XPM */
static char *_4108c203f1648bac6ea97f421c84278QMllBKXapYkeUXdd[] = {
/* columns rows colors chars-per-pixel */
"48 48 215 2 ",
"   c #394A2D",
".  c #465A3E",
"X  c #53772F",
"o  c #53683F",
"O  c #58773B",
"+  c #525D4C",
"@  c #575C58",
"#  c #4E6946",
"$  c #4E6648",
"%  c #54684A",
"&  c #5F7A4F",
"*  c #5D6B55",
"=  c #5C6959",
"-  c #586553",
";  c #5E7555",
":  c #5F7B55",
">  c #64794E",
",  c #62645F",
"<  c #627553",
"1  c #65735D",
"2  c #647A5E",
"3  c #6C7A55",
"4  c #676D61",
"5  c #6C7B66",
"6  c #6E7D6B",
"7  c #657860",
"8  c #727F6A",
"9  c #5F8E3D",
"0  c #5B953C",
"q  c #5C9344",
"w  c #68854F",
"e  c #639643",
"r  c #6A984B",
"t  c #6B8657",
"y  c #6A8D55",
"u  c #6A875A",
"i  c #748C5B",
"p  c #679950",
"a  c #6C9359",
"s  c #699653",
"d  c #719156",
"f  c #7A9B56",
"g  c #749A5B",
"h  c #7D9B5A",
"j  c #779459",
"k  c #68A049",
"l  c #61A14A",
"z  c #73A44B",
"x  c #6AA55B",
"c  c #6EA057",
"v  c #75A552",
"b  c #76A058",
"n  c #7AA65D",
"m  c #77A755",
"M  c #79B359",
"N  c #6E8D63",
"B  c #728363",
"V  c #738D64",
"C  c #798B65",
"Z  c #75846B",
"A  c #728B6A",
"S  c #7C8B6D",
"D  c #6C9C60",
"F  c #739364",
"G  c #799364",
"H  c #739D63",
"J  c #7D9B65",
"K  c #76936C",
"L  c #7B946E",
"P  c #7E996E",
"I  c #7C8675",
"U  c #7C8C72",
"Y  c #7D867B",
"T  c #788774",
"R  c #7A9374",
"E  c #7E9A72",
"W  c #73A462",
"Q  c #7EA366",
"!  c #7EAF60",
"~  c #7BA968",
"^  c #7EBC6C",
"/  c #73B261",
"(  c #7EA674",
")  c #80AF5E",
"_  c #80A05D",
"`  c #84B75E",
"'  c #87B85C",
"]  c #849E66",
"[  c #849F6B",
"{  c #85936F",
"}  c #848B7E",
"|  c #819772",
" . c #8A9D7C",
".. c #849977",
"X. c #8BAB6C",
"o. c #88A768",
"O. c #82B262",
"+. c #89B562",
"@. c #84B36C",
"#. c #8BB66C",
"$. c #85BB69",
"%. c #8BBA66",
"&. c #92B863",
"*. c #80A476",
"=. c #8BA476",
"-. c #8AAB75",
";. c #86A37A",
":. c #8BA379",
">. c #8FA979",
",. c #83AA75",
"<. c #90A773",
"1. c #8AB975",
"2. c #94B675",
"3. c #94BB72",
"4. c #99BB75",
"5. c #94BD79",
"6. c #92B07A",
"7. c #96C55F",
"8. c #8CC66F",
"9. c #9BCC66",
"0. c #93C36A",
"q. c #99C46C",
"w. c #94CB6B",
"e. c #9CCB6D",
"r. c #94C564",
"t. c #9BD16C",
"y. c #8CC477",
"u. c #93C273",
"i. c #9AC473",
"p. c #94CA71",
"a. c #9BCB75",
"s. c #9BC37C",
"d. c #99CB7B",
"f. c #92C179",
"g. c #9BD073",
"h. c #9CD17C",
"j. c #A1CE6F",
"k. c #A3CD74",
"l. c #A8CF76",
"z. c #A4CC7C",
"x. c #A5CA7B",
"c. c #A2D37A",
"v. c #A3D375",
"b. c #858C84",
"n. c #8D9B87",
"m. c #919A8E",
"M. c #979E96",
"N. c #93AE84",
"B. c #97AC86",
"V. c #93B082",
"C. c #98B582",
"Z. c #97B089",
"A. c #9DB988",
"S. c #99A993",
"D. c #9BB394",
"F. c #A4BC8D",
"G. c #A4BB83",
"H. c #A2A89C",
"J. c #A2B69A",
"K. c #A4A6A5",
"L. c #ABB5A8",
"P. c #B1BCAE",
"I. c #B8BEB2",
"U. c #9CC984",
"Y. c #9DC48D",
"T. c #9ED384",
"R. c #ABCC83",
"E. c #A4C984",
"W. c #A1D284",
"Q. c #ACD58B",
"!. c #AFD484",
"~. c #ABCC94",
"^. c #AEC7AA",
"/. c #B8CCA6",
"(. c #BBCDAE",
"). c #B5C6A9",
"_. c #B9D8AF",
"`. c #ADC3B3",
"'. c #B1C7B0",
"]. c #BCC4B4",
"[. c #B9C5B9",
"{. c #BBD2B2",
"}. c #C5D7BC",
"|. c #CAEFBC",
" X c #BFC5C1",
".X c #C3CCC2",
"XX c #C3CDCF",
"oX c #C5D4C2",
"OX c #C9DAC4",
"+X c #D4DDCC",
"@X c #D8DBD6",
"#X c #D4E5CA",
"$X c #D7EBCF",
"%X c #DBE4D6",
"&X c #DEE7DD",
"*X c #D8E5D6",
"=X c #E1EADB",
"-X c #E1EBD9",
";X c #E9F3DB",
":X c #E9ECEA",
">X c #E5ECE5",
",X c #EBFAE2",
"<X c #ECFCEB",
"1X c #EEF4EB",
"2X c #F1FFE5",
"3X c #F4FEED",
"4X c #FCFEED",
"5X c #F6F7EB",
"6X c #F6F7F5",
"7X c #F4FCF3",
"8X c #FAFDF5",
"9X c #FBF5F9",
"0X c #F7FFFA",
"qX c #FEFFFE",
"wX c #FAF7F2",
/* pixels */
"qXqXqXqXqXqXqXqXqXqXqXqXqXqXqXqX8X8XqXqXqXqXqXqXqXqXqXqXqXqXqXqXqXqXqXqXqXqXqXqXqXqXqXqXqXqXqXqX",
"qXqXqXqXqXqXqXqXqXqXqXqXqXqXqXqXqXqXqXqXqXqXqX8XqXqXqXqXqX9XqXqXqXqXqXqXqXqXqXqXqXqXqXqXqXqXqXqX",
"qXqXqXqXqXqXqXqXqXqXqXqXqXqXqXqXqXqXqXqXqXqXqX8XqXqXqXqXqXqXqXqXqXqXqXqXqXqXqXqXqXqXqXqXqXqXqXqX",
"qXqXqXqXqXqXqXqXqXqXqXqXqXqXqXqX8XqXqXqXqXqX8XqXqXqXqXqXqXqXqXqXqXqXqXqXqXqXqXqXqXqXqXqXqXqXqXqX",
"qXqXqXqXqXqXqXqXqXqXqXqXqXqXqXqXqXqXqXqXqXqX8X8XqXqXqXqXqX8XqXqXqXqXqXqXqXqXqXqXqXqXqXqXqXqXqXqX",
"qXqXqXqXqXqXqXqXqXqXqXqXqXqXqXqX8XqXqXqXqXqXqXqX8XqXqXqXqXqX8XqXqXqXqXqXqXqXqXqXqXqXqXqXqXqXqXqX",
"qXqXqXqXqXqXqXqXqXqXqXqXqXqXqXqXqXqXqXqXqXqXqX9XqXqXqXqXqXqXqXqXqXqXqXqXqXqXqXqXqXqXqXqXqXqXqXqX",
"qXqXqXqXqXqXqXqXqXqXqXqXqXqXqXqXqXqXqXqXqXqXqXqXqXqXqXqXqXqXqXqXqXqXqXqXqXqXqXqXqXqXqXqXqXqXqXqX",
"qXqXqXqXqXqXqXqXqXqXqXqXqXqXqXqXqXqXqXqXqXqX8XqXqXqX8XqXqXqXqXqXqXqXqXqXqXqXqXqXqXqXqXqXqXqXqXqX",
"qXqXqXqXqXqXqXqXqXqXqXqXqXqXqXqX9XqXqXwXqXqXqXqXwXqXqX8XqX9XqXqXqXqXqXqXqXqXqXqXqXqXqXqXqXqXqXqX",
"qXqXqXqXqXqXqXqXqXqXqXqXqXqXqXqXqXqXqX8X9X9XqX0XqXqXqXqXqXqX9XqX8XqXqXqXqXqXqXqXqXqXqXqXqXqXqXqX",
"qXqXqXqXqXqXqXqXqXqXqXqXqXqXqXqXqX9XqX8X3XqXqXqX8X8X8X8XqX9XqXqXqXqX9XqX8XqXqXqXqXqXqXqXqXqXqXqX",
"qXqXqXqXqXqXqXqXqXqXqXqXqXqXqXqXqX8X0X8X7X8X0X0X:X} } @XqX9XqXqXqXqXqXqXqXqXqXqXqXqXqXqXqXqXqXqX",
"qXqXqXqXqXqXqXqXqXqXqXqXqXqXqXqXqXqX%XS.n.oX0X0X].= } 4 qX8XqX8XqX6XqXqX8XqXqXqXqXqXqXqXqXqXqXqX",
"qXqXqXqXqXqXqXqXqXqXqXqXqXqXqXqXqX@X< } 2 1 7X0X1XZ { I 8X0X0XqXqX8XqXqXqXqXqXqXqXqXqXqXqXqXqXqX",
"qXqXqXqXqXqXqXqXqXqXqXqXqXqXqXqX0X=X< S B (.<XOX).E L -X8X8X0XK.b.K.6XqXqXqXqXqXqXqXqXqXqXqXqXqX",
"qXqXqX0XqXqXqXqXqXqXqX9XqXqX3X4XwXqX5XS N.J ] j f 4.j F.7X0X>X+ U 7 S.7XqXqX8XqXqXqXqXqXqXqXqXqX",
"qX0XqXqXqXqXqXqXqX0X9XqXqX>XZ 3 5X4X).L U.1.O.` c.i.i.a R <X,XS E # L.0X0XqXqXqX0XqXqXqXqX8XqXqX",
"qXqXqXqXqX8XqX8XqXqXqXqX0XZ ..> { B.j U.d.h.c e a.a.p.y.D ( N.u K ^.0XqX9XqXqXqXqXqXqXqX8XqXqXqX",
"qXqXqXqXqXqXqXqXqXqXqX0X8X6 $ C C.X.s.e M a.w.a.w.w.g.k q W ~ a _.3X7XqXqXqX9XqXqXqXqXqXqXqXqXqX",
"qXqXqX0XqXqXqXqXqX9XqXqX8X>XXX`.H W.z.m ` v.r.9.j.r.a.0.p @.U.x ( 3X0XqX9XqXqXqXqXqXqXqXqXqXqXqX",
"qX0XqXqXqXqXqXqXqXqX8XqX8X0X0X`.H T.i.&.X 3.!.l.l.l.z.O ~ T./ y.u oX0X9XqXqX8XwXqXqXqXqXqXqXqXqX",
"qXqXqXqXqXqXqXqXqXqXqX8X-X+X#XV U.8.i.f Z.  t C j i   ;.J 1.x x ( D.0XqXqX9XqXqXqXqXqXqXqX8XqXqX",
"qXqXqXqXqXqXqXqX0X9X9X}.% | J 2.n 9 q.j 2X5 < % o < = ,X>.1.y.1.-.A m.b.:XqX8XqX0XqXqXqXqXqXqX8X",
"8XqXqXqXqXqXqXqXqXqX0XY 7 t 2.x.' &.l._ | {.>.] X.] {.Z.y U.8.$.1.-.< = m.0XqXqXqXqXqXqXqXqXqXqX",
"8XqXqXqXqXqXqXqX9X8XqX XZ /._ &.k.e.e.s.-.| :.E.G.<.{ :.y n 0.0 ! a J.B [.8XqX0X9XqXqXqXqXqXqXqX",
"qXqXqXqXqXqXqXqXqXqXqX0X0X2X] 4.a.w.9.q.~.>.Z B 8 { C 2.#.8.M 0 p Y.,X8X0XqX0X0X0X0XqXqXqX8X8XqX",
"qX8XqX0XqXqXqXqXqX9XqX6X0X}.i Q.$.w.9.a.h { %X8XwX4X/.w i.h.8.^ p |.3X0XqXqX8XqX0XqXqXqXqXqX8XqX",
"qXqXqXqXqXqXqXqXqXqX0X0XOXG 5.z.0 0 t.9.O #XwX#X].;X2Xi m h.l ^ W ;.D..XqXqXqX8XqXqXqXqXqXqXqXqX",
"qXqXqXqXqXqXqXqXqXqXqX.X* A.Q @.5.! 9.j.d L C B C t C d 3.p.$.y.,.S - 4 wXqX8XqXqXqXqXqXqXqXqXqX",
"qXqXqXqXqXqXqXqXqXwXqXM.1 2 S.N.J z.a.r.g.` 4.R.x.x.%.c.a.d.#.a  .n.@ K.qXqXwX8XqXqXqXqXqXqXqX0X",
"0XqXqXqXqXqXqX9XqXqX8X=XY Y 0X7X:.X.a.t.w.g.q.q.j.q.v.' m y.g V.7XqX@X9XqX9XqX8X8X8XqXqXqXqXqXqX",
"qXqXqXqXqXqXqXqXqXqXqXqXqX0XqX8X(.J Q.` z a.e k a.a.i.v r 1.t 3X8X8XqXqX9XqXqXqXqXqXqXqXqXqXqXqX",
"qXqXqXqXqXqXqXqXqXqXqXqXqX6XqX1X .=.a a r s.3.! W.f.E.o.g D L S @XqX8XqXqXqXqXqXqXqXqXqXqXqXqXqX",
"qXqXqXqXqXqXqXqXqXqXqXqXqXqX8XP.: N {.S.u 6.5.f n s.J Z.oX'.: $ b.6XqXqXqX9XqXqXqXqXqXqXqXqXqXqX",
"qXqXqXqXqXqXqXqXqXqXqXqXqXqXqXoX; $ &X0X%XG u ~.~.F : $X0X0XT A @XqXqXqXqXqXqX8XqXqXqXqXqXqXqXqX",
"qXqXqXqXqXqXqXqXqXqXqXqXqX9XqXqXI.H.qX7XD.N R J.7XD.K : >X0X0X8X0XqXqXqXqXqXqXqXqXqXqXqXqXqXqXqX",
"qXqXqXqXqXqXqXqXqXqXqXqXqXqX6XqXqXqX8X8X$ R = M.0X6 2 % .XqX9XqXqXqXqX9XqXqXqXqXqXqXqXqXqXqXqXqX",
"qXqXqXqXqXqXqXqXqXqXqX8XqXqXqXqXwXqXqXqXS.Y M.6XqXL.T P.0XqXqXqX9XqX8XqXqXqX6XqXqXqXqXqXqXqXqXqX",
"qXqXqXqXqXqXqXqXqX9XqXqXqXqXqXqXqXqX0X8XqX6XqXqXqXqXwXqXqXqXqXqXqXqXqXqX8XqXqXqXqXqXqXqXqXqXqXqX",
"qXqXqXqXqXqXqXqXqXqXqXqXqXqXqXqXqXqXqXqX9XqXqX0X0XqXqXqXqX9XqXqXqXqXqXqXqXqXqXqXqXqXqXqXqXqXqXqX",
"qXqXqXqXqXqXqXqXqXqXqXqXqXqXqXqXqXqXqX8XqXqXqX0X0XqXqXqXqXqXqXqXqXqXqXqXqXqXqXqXqXqXqXqXqXqXqXqX",
"qXqXqXqXqXqXqXqXqXqXqXqXqXqXqXqXqXqXqXqXqXqXqX0XqXqXqXqXqXqXqXqXqXqXqXqXqXqXqXqXqXqXqXqXqXqXqXqX",
"qXqXqXqXqXqXqXqXqXqXqXqXqXqXqXqXqXqXqXqXqX0XqXqXqXqXqX0XqXqXqXqXqXqXqXqXqXqXqXqXqXqXqXqXqXqXqXqX",
"qXqXqXqXqXqXqXqXqXqXqXqXqXqXqXqXqXqXqXqXqXqX9XqXqXqXqXqXqXqXqXqXqXqXqXqXqXqXqXqXqXqXqXqXqXqXqXqX",
"qXqXqXqXqXqXqXqXqXqXqXqXqXqXqXqX0XqXqXqXqXqXqXqXqXqX9XqXqXqXqX0XqXqXqXqXqXqXqXqXqXqXqXqXqXqXqXqX",
"qXqXqXqXqXqXqXqXqXqXqXqXqXqXqXqXqXqXqXqX8XqXqXqXqXqXqX8XqXqXqXqXqXqXqXqXqXqXqXqXqXqXqXqXqXqXqXqX",
"qXqXqXqXqXqXqXqXqXqXqXqXqXqXqXqXqXqXqXqX8XwXqXqXqXqXqX8XqXqXqXqXqXqXqXqXqXqXqXqXqXqXqXqXqXqXqXqX"
};
