/* XPM */
static char *d98c36bfb70845448fe5b62ca414466a4d53wwJ0aUm8JUkB[] = {
/* columns rows colors chars-per-pixel */
"32 32 175 2 ",
"   c #517837",
".  c #557B39",
"X  c #4E5F54",
"o  c #56644B",
"O  c #5E734C",
"+  c #5F7A4F",
"@  c #566C57",
"#  c #5C7555",
"$  c #60745D",
"%  c #677264",
"&  c #68746A",
"*  c #6A7C62",
"=  c #707D69",
"-  c #578944",
";  c #618847",
":  c #66844E",
">  c #648C4E",
",  c #69904F",
"<  c #6E8B5B",
"1  c #70815F",
"2  c #789C52",
"3  c #76945D",
"4  c #759D5A",
"5  c #7A9F59",
"6  c #7CA55C",
"7  c #7BAE5F",
"8  c #7BB25F",
"9  c #718262",
"0  c #76846A",
"q  c #7E9B62",
"w  c #7B906F",
"e  c #7C9B6A",
"r  c #738471",
"t  c #728478",
"y  c #7D887C",
"u  c #719070",
"i  c #7D9C73",
"p  c #7FA667",
"a  c #7DA860",
"s  c #83A75F",
"d  c #81AE59",
"f  c #83AB55",
"g  c #859B73",
"h  c #869F7B",
"j  c #8B9D7D",
"k  c #81A663",
"l  c #83AB64",
"z  c #83A46B",
"x  c #85AB6B",
"c  c #83B463",
"v  c #8CB163",
"b  c #84B866",
"n  c #8CB966",
"m  c #84B269",
"M  c #8ABF6F",
"N  c #93B66C",
"B  c #92BD6B",
"V  c #8CA674",
"C  c #87AC76",
"Z  c #8CAB73",
"A  c #87A778",
"S  c #8AA37B",
"D  c #8CA979",
"F  c #8EB272",
"G  c #8AB877",
"H  c #9BBD75",
"J  c #91B97A",
"K  c #9CBC7C",
"L  c #9AB37C",
"P  c #97C16F",
"I  c #99C56E",
"U  c #9AC377",
"Y  c #9AC27A",
"T  c #9DCA7C",
"R  c #A4C975",
"E  c #A9CD76",
"W  c #A3CC7D",
"Q  c #A2D475",
"!  c #879885",
"~  c #8A9984",
"^  c #8CA68B",
"/  c #92AA85",
"(  c #92AD8A",
")  c #95B283",
"_  c #9AB283",
"`  c #9DBC82",
"'  c #9CB68D",
"]  c #9FBC8C",
"[  c #9DA693",
"{  c #97A09D",
"}  c #9BAC99",
"|  c #A0BF84",
" . c #A2BE8E",
".. c #A0AE9D",
"X. c #A0BC93",
"o. c #A6B69B",
"O. c #AAB89F",
"+. c #A6ABA4",
"@. c #A5B1A3",
"#. c #A5BCA0",
"$. c #A7B2A8",
"%. c #ADBAA9",
"&. c #AEB8B0",
"*. c #ACB5B2",
"=. c #9FC582",
"-. c #9EC38D",
";. c #A5C980",
":. c #A0C18C",
">. c #A4CD89",
",. c #A8C597",
"<. c #AEC5A0",
"1. c #B6CAA1",
"2. c #B5C3A9",
"3. c #B3D6AC",
"4. c #BFD6AA",
"5. c #B8C3B2",
"6. c #BECEB3",
"7. c #B1C0BB",
"8. c #B4C5B2",
"9. c #BED2B6",
"0. c #BFD5BE",
"q. c #C1C7BD",
"w. c #C5DDBB",
"e. c #CDEDBB",
"r. c #BCC1C4",
"t. c #C0C8CB",
"y. c #CAD4C9",
"u. c #CEDACA",
"i. c #D5DFDE",
"p. c #CDE7C4",
"a. c #CEE4CD",
"s. c #D0E9C2",
"d. c #DAEDD4",
"f. c #D7E8D8",
"g. c #DFF9DC",
"h. c #E1ECDB",
"j. c #E2FBDE",
"k. c #E9FFDA",
"l. c #DFF4E3",
"z. c #E4EBE3",
"x. c #E4F7E4",
"c. c #EBF6E5",
"v. c #EBFCE4",
"b. c #EEFEEA",
"n. c #E3FBE1",
"m. c #F3FFE5",
"M. c #F2F6EE",
"N. c #F4FEEC",
"B. c #ECF2F2",
"V. c #F4FCF3",
"C. c #FCFEF5",
"Z. c #F0F5F8",
"A. c #F8F7FF",
"S. c #F6FEFC",
"D. c #FFFDFD",
"F. c #FCFFFD",
"G. c #FDFFFD",
"H. c #FEFEFC",
"J. c #FFFEFD",
"K. c #FEFFFD",
"L. c #FFFFFD",
"P. c #FDFCFF",
"I. c #FFFCFF",
"U. c #FEFDFF",
"Y. c #FFFDFF",
"T. c #FFFDFE",
"R. c #FCFFFF",
"E. c #FDFEFF",
"W. c #FEFEFF",
"Q. c #FFFEFF",
"!. c #FEFFFF",
"~. c white",
"^. c #FEFEFE",
"/. c gray99",
"(. c #FEFEFC",
/* pixels */
"~.~.~.~.~.~.~.F.G.G.~.G.~.~.~.~.G.G.G.G.D.I.D.G.~.~.C.S./.F.~.~.",
"~.~.~.~.~.~.G.~.G.~.G.~.~.~.~.~.~.G.G.G.D.D.D.~.~.F.C.S./.~.~.~.",
"~.~.~.~.~.~.~.~.~.~.~.~.~.~.~.~.~.~.G.C.D.D.G.G.D.F.F././.~.~.~.",
"~.~.~.~.~.~.~.~.~.~.~.~.~.~.~.~.~.~.G.G.G.D.G.~.~.D.F.F.G.G.~.~.",
"~.~.D.~.~.~.~.~.~.~.~.~.G.G.G.~.~.~.G.C.G.G.G.G.D.D.~.G.~.G.G.C.",
"~.~.~.~.~.~.~.D.~.~.~.D.G.G.G.~.~.F.G.G.G.C.G.~.D.D.~.~.~.~.G.C.",
"~.F.~.~.~.D.~.D.~.~.~.~.G.G.C.G./.G.G.G.G.G.G.~.~.D.~.~.~.~.G.C.",
"G.~.G.~.~.~.~.~.~.~.~.~.~.G.G.G.C.V.C.F.G.C.G.~.~.~.~.~.~.~.G.C.",
"C.C.C.G.G.G.~.~.C.D.P.F.C.z.Z.G.2.0 y./.S.C./.~.G.D.D.~.D.D.D.C.",
"C.C.C.C.C.G.~.G.~.S./.B.y % %.N.1.O ..S.S././.F.G.C.G.~.D.D.~.C.",
"G.~.~.~.~.~.~.G.V.G.N.v.~ 9 <.4.L 3 d.S.u.y &.M.C.C.G.~.D.~.G.C.",
"D.D.~.~.~.~.~./.G.2.O.m.1.L V q H K h j.9.# & V.C.C.G.~.~.~.~.G.",
"D.D.D.D.~.D.C./.u.o 1 _ k L K s ;.=.e i i S f.S.G.G.C.D.D.~.~.F.",
"D.D.D.~.~.P.G.G.c.o./ _ | s ;.W H K C e F ) V.S.~.G.G.G.D.D.~.F.",
"D.G.G.G.~.G.G.M.N.N.'  .` , 4 H Y l > G l 3 a.S.P.G.G.C.~.~.~.F.",
"G.C.C.G.C.G.C.h.~ / D z k >.;     - -.m P x ^ *.Z.C.G.G.~.~.~.F.",
"G.G.G.G.D./.~.*.@ A P P H k K A V ` 6 a P G u X r.S.G.C.C.C.~.D.",
"~.D.C.D./.D.~.V.j.-.n Q I R g g S z l b 8 - 3.l.B.~.A.C.C.G.~.D.",
"F.P.C.C.C.D.M.N.k.x U f W 4 <.b.n.p.4 =.c 6 e.b./.F.P.~./.C.~.~.",
"F.P.G.C.D.D.~.z.w D x 6 U 6 ] / S ] p U c p + 0 S.C.D.~./.D.~.F.",
"A.S.C.G.F.A.A.r.X #.,.F W R v R Y N H =.p X.} { D.D.~.G.G.~.~.~.",
"/./.C.~.P.F.F.S.f.V.v.g K v B f E R 2 q ) b.S.F.~.D.D.D.G.C.D.~.",
"/./.~.F.F.F.A.S./.S.9.g A : K 7 N K V D * +.F.A.P.P.~.G.G.C.C.D.",
"~.P.~.S././.F.C.C.C.[ o d.w.e ) :.< s.v.= +./.~.~.~.~.G.G.G.D.C.",
"~.~.D.~./.C.G.G.G.G.M.q.C.8.# ( g.$ ! M.C.C.C.C.G.G.~.~.~.~.~.~.",
"D.~.D.~.G.G.G.C.D./.D.G.F.$.r 0.l.t $.G.C.C.G.C.C.G.~.~.~.~.~.~.",
"D.D.D.~.~.G.G.C.D.D.D.P././.b.V.V.V./.V./.D.~.~.G.G.G.~.D.~.~.~.",
"D.D.D.~.~.~.G.G.~.D.D.D./././.C.S.C.D.D.D.D.~.F.~.~.G.G.~.D.~.F.",
"~.~.C.C.G.~.G.~.~.A.~.D.~.~.~.P.F.F.D.D.D.~.D.A.~.G.G.G.~.G.G.G.",
"G.G.C.C.C.~.~.~.D.F.~.P.~.C.A.D.F.~.D.D.D.C.F.F.F.~.G.~.D.C.G.C.",
"~.~.G.G.C.G.~.~.F.F.F.C.G.G.D.D.D.D.D.C.C.G.F.S.F.~.D.D.G.G.G./.",
"~.~.~.~.G.G.~.~.F.S.C.C.D.C.C.D.D.D.D.D.C./.S.S.F.~.~.D.~.G./.S."
};
