/* XPM */
static char *c4321b37ce164bb0988d7d66d0ee9deedInzHmeqYAMdfRaJ[] = {
/* columns rows colors chars-per-pixel */
"64 64 240 2 ",
"   c #242B1B",
".  c #212F22",
"X  c #35482E",
"o  c #3B4B37",
"O  c #3D5739",
"+  c #3A552A",
"@  c #4B5D3B",
"#  c #425A38",
"$  c #515F3C",
"%  c #477B2A",
"&  c #536F3D",
"*  c #4E723E",
"=  c #4F7F33",
"-  c #56753A",
";  c #476D3E",
":  c #667A3F",
">  c #495644",
",  c #4A5A45",
"<  c #485A47",
"1  c #525E4C",
"2  c #595B56",
"3  c #4F6949",
"4  c #4A6944",
"5  c #5C6D45",
"6  c #566D4C",
"7  c #58684A",
"8  c #557341",
"9  c #597E4A",
"0  c #587849",
"q  c #5C6B5A",
"w  c #586854",
"e  c #5C7454",
"r  c #5D7B51",
"t  c #5F7659",
"y  c #64744C",
"u  c #667D4A",
"i  c #647B55",
"p  c #697A54",
"a  c #6A775C",
"s  c #6B7B5B",
"d  c #667657",
"f  c #6D7B6A",
"g  c #697664",
"h  c #737F6B",
"j  c #737E70",
"k  c #636969",
"l  c #50882F",
"z  c #498736",
"x  c #5A8B3C",
"c  c #4F9034",
"v  c #619F3A",
"b  c #588745",
"n  c #5F8754",
"m  c #5C9C45",
"M  c #648B4B",
"N  c #678646",
"B  c #63914C",
"V  c #679848",
"C  c #658254",
"Z  c #6B8554",
"A  c #648C55",
"S  c #65835A",
"D  c #6D855B",
"F  c #6B8D5B",
"G  c #648B57",
"H  c #788D5C",
"J  c #728857",
"K  c #6B9759",
"L  c #769957",
"P  c #709C47",
"I  c #5FA04C",
"U  c #6CA34C",
"Y  c #67A14A",
"T  c #76A64C",
"R  c #6AA955",
"E  c #75A95D",
"W  c #79A857",
"Q  c #7AB656",
"!  c #6CB559",
"~  c #6C8365",
"^  c #6E8967",
"/  c #718267",
"(  c #738C63",
")  c #718A6C",
"_  c #7B8C6D",
"`  c #75866D",
"'  c #6D9364",
"]  c #739362",
"[  c #7A9D6E",
"{  c #789567",
"}  c #7F8B75",
"|  c #758674",
" . c #799675",
".. c #7BAD65",
"X. c #78A468",
"o. c #7BBC62",
"O. c #7BC16B",
"+. c #85BB59",
"@. c #85B458",
"#. c #83887A",
"$. c #889778",
"%. c #849364",
"&. c #8BAC6D",
"*. c #89A766",
"=. c #90AF6B",
"-. c #84B765",
";. c #84BB65",
":. c #8DB26D",
">. c #84BD6C",
",. c #8AB965",
"<. c #94B76B",
"1. c #85AB75",
"2. c #8AAD72",
"3. c #85A97B",
"4. c #88A779",
"5. c #91AE74",
"6. c #95AD7B",
"7. c #89B772",
"8. c #8FB77B",
"9. c #95B573",
"0. c #93BB73",
"q. c #95BD7B",
"w. c #99B77C",
"e. c #A0BF79",
"r. c #85C15F",
"t. c #99CA5C",
"y. c #94C95A",
"u. c #8EC563",
"i. c #8DCA63",
"p. c #89C66A",
"a. c #94C564",
"s. c #94CB66",
"d. c #9CCC62",
"f. c #93C46B",
"g. c #9AC66C",
"h. c #94CA6B",
"j. c #9BCC6B",
"k. c #99C364",
"l. c #92D16B",
"z. c #99D16B",
"x. c #9AD366",
"c. c #8FC472",
"v. c #8AC977",
"b. c #93C573",
"n. c #9CC473",
"m. c #95CD73",
"M. c #9CCC73",
"N. c #9DCD7B",
"B. c #96C379",
"V. c #95D071",
"C. c #9AD274",
"Z. c #9ED37C",
"A. c #92D878",
"S. c #A2CB6E",
"D. c #A2C66C",
"F. c #A1D16D",
"G. c #A3CC73",
"H. c #A4C47C",
"J. c #A3CC7B",
"K. c #A7CB79",
"L. c #A3D37C",
"P. c #A9D378",
"I. c #8B9787",
"U. c #859A83",
"Y. c #8A9987",
"T. c #919B8A",
"R. c #8E9A90",
"E. c #959C92",
"W. c #848E83",
"Q. c #8EAE80",
"!. c #8EA58A",
"~. c #93A58B",
"^. c #9AA78B",
"/. c #8EB284",
"(. c #95BF82",
"). c #9ABC83",
"_. c #92B48C",
"`. c #9FB88E",
"'. c #99A794",
"]. c #9CB594",
"[. c #8FA598",
"{. c #A4AE9E",
"}. c #A5BA98",
"|. c #A4BB8D",
" X c #9DADA2",
".X c #ADBBAA",
"XX c #AAB5A8",
"oX c #B3BCAA",
"OX c #AEB9B4",
"+X c #A7AAA3",
"@X c #9CC985",
"#X c #A5C584",
"$X c #A8C988",
"%X c #A9D485",
"&X c #A9D389",
"*X c #B2D08F",
"=X c #B5C5AB",
"-X c #BBC6B4",
";X c #B9D1BB",
":X c #C4D2BD",
">X c #CDD2BC",
",X c #C6C8BB",
"<X c #BFC8C3",
"1X c #C5CDC4",
"2X c #CCD4C2",
"3X c #CBD4CB",
"4X c #CCDBCD",
"5X c #C4D5C4",
"6X c #D5D9CC",
"7X c #D5DCD4",
"8X c #D9DAD7",
"9X c #CDE1C8",
"0X c #DFE0C1",
"qX c #D9ECD5",
"wX c #DFEBDC",
"eX c #DAE5D6",
"rX c #E7F5DF",
"tX c #E0E8DB",
"yX c #D7DCE0",
"uX c #DCE9E0",
"iX c #E9ECE3",
"pX c #E7ECE9",
"aX c #EEEFEF",
"sX c #E5EAE3",
"dX c #ECF9EA",
"fX c #F5F4EF",
"gX c #F4FCEE",
"hX c #FAFFED",
"jX c #F4FAE5",
"kX c #ECF8F2",
"lX c #F3F5F3",
"zX c #F9F7F3",
"xX c #F5FDF4",
"cX c #FBFEF5",
"vX c #FCF7FC",
"bX c #F6FCFB",
"nX c #FFFFFF",
"mX c #FEFFFE",
"MX c #F7F7FF",
"NX c #F1EDEA",
/* pixels */
"nXnXnXnXnXnXnXnXnXnXnXnXnXnXnXnXnXnXnXnXnXnXnXnXnXnXnXnXnXnXnXnXnXnXnXnXnXnXnXnXnXnXnXnXnXnXnXnXnXnXnXnXnXnXnXnXnXnXnXnXnXnXnXnX",
"nXnXnXnXnXnXnXnXnXnXnXnXnXnXnXnXnXnXnXnXnXnXnXnXnXnXnXnXnXnXnXnXnXnXnXnXnXnXnXnXnXnXnXnXnXnXnXnXnXnXnXnXnXnXnXnXnXnXnXnXnXnXnXnX",
"nXnXnXnXnXnXnXnXnXnXnXnXnXnXnXnXnXnXnXnXnXnXnXnXnXnXnXnXnXnXnXnXnXnXnXnXnXnXnXnXnXnXnXnXnXnXnXnXnXnXnXnXnXnXnXnXnXnXnXnXnXnXnXnX",
"nXnXnXnXnXnXnXnXnXnXnXnXnXnXnXnXnXnXnXnXnXnXnXnXnXnXnXnXnXnXnXnXnXnXnXnXnXnXnXnXnXnXnXnXnXnXnXnXnXnXnXnXnXnXnXnXnXnXnXnXnXnXnXnX",
"nXnXnXnXnXnXnXnXnXnXnXnXnXnXnXnXnXnXnXnXnXnXnXnXnXnXnXnXnXnXnXnXnXnXnXnXnXnXnXnXnXnXnXnXnXnXnXnXnXnXnXnXnXnXnXnXnXnXnXnXnXnXnXnX",
"nXnXnXnXnXnXnXnXnXnXnXnXnXnXnXnXnXnXnXnXnXnXnXnXnXnXnXnXnXnXnXnXnXnXnXnXnXnXnXnXnXnXnXnXnXnXnXnXnXnXnXnXnXnXnXnXnXnXnXnXnXnXnXnX",
"nXnXnXnXnXnXnXnXnXnXnXnXnXnXnXnXnXnXnXnXnXnXnXnXnXnXnXnXnXnXnXnXnXnXnXnXnXnXnXnXnXnXnXnXnXnXnXnXnXnXnXnXnXnXnXnXnXnXnXnXnXnXnXnX",
"nXnXnXnXnXnXnXnXnXnXnXnXnXnXnXnXnXnXnXnXnXnXnXnXnXnXnXnXnXnXnXnXnXnXnXnXnXnXnXnXnXnXnXnXnXnXnXnXnXnXnXnXnXnXnXnXnXnXnXnXnXnXnXnX",
"nXnXnXnXnXnXnXnXnXnXnXnXnXnXnXnXnXnXnXnXnXnXnXnXnXnXnXnXnXnXnXnXnXnXnXnXnXnXnXnXnXnXnXnXnXnXnXnXnXnXnXnXnXnXnXnXnXnXnXnXnXnXnXnX",
"nXnXnXnXnXnXnXnXnXnXnXnXnXnXnXnXnXnXnXnXnXnXnXnXnXnXnXnXnXnXnXnXnXnXnXnXnXnXnXnXnXnXnXnXnXnXnXnXnXnXnXnXnXnXnXnXnXnXnXnXnXnXnXnX",
"nXnXnXnXnXnXnXnXnXnXnXnXnXnXnXnXnXnXnXnXnXnXnXnXnXnXnXnXnXnXnXnXnXnXnXnXnXnXnXnXnXnXnXnXnXnXnXnXnXnXnXnXnXnXnXnXnXnXnXnXnXnXnXnX",
"nXnXnXnXnXnXnXnXnXnXnXnXnXnXnXnXnXnXnXnXnXnXnXnXnXnXnXnXnXnXnXnXnXnXnXnXnXnXnXmXnXnXnXnXnXnXnXnXnXnXnXnXnXnXnXnXnXnXnXnXnXnXnXnX",
"nXnXnXnXnXnXnXnXnXnXnXnXnXnXnXnXnXnXnXnXnXnXnXnXnXnXnXnXnXnXnXnXnXnXmXnXnXnXmXmXnXnXnXnXnXnXnXnXnXnXnXnXnXnXnXnXnXnXnXnXnXnXnXnX",
"nXnXnXnXnXnXnXnXnXnXnXnXnXnXnXnXnXnXnXnXnXnXnXnXnXnXnXnXnXnXnXnXnXnXmXmXnXnXmXmXnXnXnXnXnXnXnXnXnXnXnXnXnXnXnXnXnXnXnXnXnXnXnXnX",
"nXnXnXnXnXnXnXnXnXnXnXnXnXnXnXnXmXnXmXmXnXnXnXnXnXnXnXnXnXnXnXnXnXnXnXmXmXmXmXmXnXnXnXnXnXmXnXmXnXnXnXnXnXnXnXnXnXnXnXnXnXnXnXnX",
"nXnXnXnXnXnXnXnXnXnXnXnXnXnXnXnXmXnXnXmXmXmXmXnXnXnXnXnXmXnXnXnXnXbXbXmXmXmXmXmXmXmXnXnXmXmXmXmXnXnXnXnXnXnXnXnXnXnXnXnXnXnXnXnX",
"nXnXnXnXnXnXnXnXnXnXnXnXnXnXnXmXmXzXmXmXmXcXcXmXmXmXmXmXbXmXmXvXmXXXf  .wXnXmXcXcXmXnXnXmXcXcXnXnXnXnXnXnXnXnXnXnXnXnXnXnXnXnXnX",
"nXnXnXnXnXnXnXnXnXnXnXnXnXnXnXnXcXnXnXnXcXcXcXcXnXlX3X3XcXcXcXmXpXw  . .q fXcXmXcXmXvXmXmXmXnXnXnXnXnXnXnXnXnXnXnXnXnXnXnXnXnXnX",
"nXnXnXnXnXnXnXnXnXnXnXnXnXnXnXnXnXmXMXmXmXxXmXcX.Xe S 0 g vXmXvXaX7 9 K < 7XcXmXnXvXmXbXmXxXnXvXnXnXnXnXnXnXnXnXnXnXnXnXnXnXnXnX",
"nXnXnXnXnXnXnXnXnXnXnXnXnXnXnXnXmXmXmXbXbXmXnX:X, Q.8.F # aXmXmXmX$.1.X.q lXmXvXmXmXbXxXcXbXMXnXnXnXnXnXnXnXnXnXnXnXnXnXnXnXnXnX",
"nXnXnXnXnXnXnXnXnXnXnXnXnXnXmXmXnXcXmXnXmXbXnX3X> 6 F n [.mXbXNXfX} X.A 4XnXnXcXmXpXU. .].xXnXvXnXnXnXnXnXnXnXnXnXnXnXnXnXnXnXnX",
"nXnXnXnXnXnXnXnXnXnXnXnXnXnXmXmXcXzXmXnXmXbXbXvXtXa ).{ !.;X_ f a { 0.- jXmXcXnXmXj 3 [ e h vXnXnXnXnXnXnXnXnXnXnXnXnXnXnXnXnXnX",
"nXnXnXnXnXnXnXnXnXnXnXnXnXnXnXmXcXmXnX8X1XbXxXcXmX^.L n.B M 9.H.n.J.C.W 4 XXmXbXbX~ n n 4.& 6XmXnXnXnXnXnXnXnXnXnXnXnXnXnXnXnXnX",
"nXnXnXnXnXnXnXnXnXnXnXnXnXnXnXmXmXcX'.q o .XcXhX>Xy e.G.j.L.P @.j.a.s.h.).6 ^.xXkX .1.1.@ s cXmXnXnXnXnXnXnXnXnXnXnXnXnXnXnXnXnX",
"nXnXnXnXnXnXnXnXnXvXnXnXmXnXnXcXcX-X0 _.g 3 $X}.y ).K.k.S.,.l V j.s.i.l.v.).9 6.9Xe 3.e ~.lXbXbXmXnXnXnXnXvXnXnXnXnXnXnXnXnXnXnX",
"nXnXnXnXnXnXnXnXvXnXnXnXbXnXnXmXbXU.0 K ^ @X{ F q.B.T k.j.j.o.c.C.x.l.i.R B ..B * 3.r :XnXnXbXbXmXmXmXnXnXnXnXmXnXnXnXnXnXnXnXnX",
"nXnXnXnXnXnXnXnXnXnXxXnXnXnXvXMXvX8X1 , i H #X%X#XU = -.h.s.M.M.i.i.h.Z.E x b v.0.0.e kXcXvXmXbXnXnXnXmXnXnXnXnXnXnXnXnXnXnXnXnX",
"nXnXnXnXnXnXnXnXnXnXvXnXvXnXnXnXmXmXcXfXjXZ n.f.C.c.X.@XC.h.h.s.z.s.m.B.@X7.X.-.Q v.' | nXnXmXmXnXmXnXnXmXbXnXnXnXnXnXnXnXnXnXnX",
"nXnXnXnXnXnXnXnXnXnXnXnXnXnXvXnXmXvXmXzX0X: n.s.i.%X] * N.M.k.d.t.t.S.&XG - &Xf.+.o.v.b :XmXcXcXvXbXmXnXnXnXnXnXnXnXnXnXnXnXnXnX",
"nXnXnXnXnXnXnXnXmXnXnXbXnXnXzXnXcXcXmXhX%.*.G.M.M.,.p _ & &.H.H.D.K.<.& ~ ~ W L.Q l p.K !.cXmXbXmXnXmXmXnXnXbXnXnXnXnXnXnXnXnXnX",
"nXnXnXnXnXnXnXnXnXnXnXmXnXlXnXcXOXY.}.`.u $X<.E %Xx =X6X  o o 6 5 @ o .  XqX8 %XQ v p.E ~ bXsXfXlXnXnXvXnXnXnXnXnXnXnXnXnXnXnXnX",
"nXnXnXnXnXnXnXnXmXvXmXnXnXnXmXR.X  .[ F e.<.x b Z.V ^.cX#.2 I.w 7 #.g k kX5X9 J.l.r.Q v.S f g w 8XcXmXmXnXnXvXnXnXnXnXnXnXnXnXnX",
"nXnXnXnXnXnXnXnXmXmXnXnXmXnXaXg 3.G 2.$XH.k.@.a.z.f.& oXsXeX_ %.6.y >XiX1X6 2.#Xm.u.+.o.q.3.n  .j mXvXmXnXbXmXmXnXnXnXnXnXnXnXnX",
"nXnXnXnXnXnXnXnXmXmXvXnXnXzXvX| O 8 { A K.<.D.j.i.C.7.i p 5 %.$X$X5.y d y $.B ;.V.R U v.K b 4 O | mXmXmXvXnXmXmXnXnXnXnXnXnXnXnX",
"nXnXnXnXnXnXnXnXmXmXnXnXmXmXnXpX-XwXxXS 0.S.g.s.l.V.M.J.H.*X#X2.&.9.$X*X&X,.% p.v.I c ..r dXwXOXsXmXbXnXnXmXbXvXnXnXnXnXnXnXnXnX",
"nXnXnXnXnXnXnXnXmXmXnXvXnXnXlXnXxXmX5Xe %Xg.g.j.p.V.g.K.*.- - C Z p 5 - =.g.;.v.O.z R K ~.nXmXvXnXmXvXnXnXnXnXnXnXnXnXnXnXnXnXnX",
"nXnXnXnXnXnXnXnXvXmXmXmXvXnXnXnXmXnX$.4.J.g.a.g.l.s.H.H d >XiXhXjXhXiX,X5 =.P.h.A.! O.n 1XmXvXmXvXmXmXmXzXnXmXbXnXnXnXnXnXnXnXnX",
"nXnXnXnXnXnXnXnXmXmXvXnXnXnXmXlXMX6Xp 9.d.@.x @.x.M.<.y :XlXcXxXcXcXnXyX^.u G.s.o.o.v.b oXcXlXcXmXmXcXmXnXnXnXnXnXnXnXnXnXnXnXnX",
"nXnXnXnXnXnXmXmXmXmXmXmXmXnXnXbX{.0 =.K.P.+.l Y m.M.5.$ 2XfX3XU.h W.yXlXs N D.F.m R p.-.N a > Y.xXnXnXnXnXvXnXvXnXnXnXnXnXnXnXnX",
"nXnXnXnXnXnXmXmXmXmXvXnXcXnXnX{.+ H.H.N L %X>.p.m.g.#XJ p p 6 ( 4._ 7 d Z e.j.j.>.>.c.E 2.Z ~ q xXnXMXnXnXnXnXmXnXnXnXnXnXnXnXnX",
"nXnXnXnXnXnXnXnXnXnXnXnXvXnXnXf J F i ^.U.S &Xm.h.h.M.G.<.q.%XN.Z.Z.N.<.G.M.h.f.-.q.r ) ) < q R.nXnXnXnXnXnXnXnXnXnXnXnXnXnXnXnX",
"nXnXnXnXnXnXnXnXnXvXnXnXmXvXbX+Xt 6 q bXmXU.N Z.j.y.s.j.m.M.h.l.h.s.d.t.s.P.m.b.B.8 ^.xXkX+X'.xXnXnXnXnXnXnXnXnXnXnXnXnXnXnXnXnX",
"nXnXnXnXnXnXnXnXmXmXmXmXnXmXmXxX.XXXaXmXcXhX( :.S.F.f.m.h.p.-.c.s.y.y.F.E b m v.C !.cXcXbXmXzXmXmXnXnXnXnXnXnXnXnXnXnXnXnXnXnXnX",
"nXnXnXnXnXnXnXnXmXnXnXmXnXnXmXmXmXbXmXxXcXcX( 2.*Xn.x U %XQ % T j.x.y.d.K F X.@X0 qXcXcXcXcXzXmXnXnXnXnXnXnXnXnXnXnXnXnXnXnXnXnX",
"nXnXnXnXnXnXnXnXvXnXbXnXnXnXbXbXbXxXmXbXcX.XC q.Z 2.K l f.N.T T d.t.g.n.*X/.G X.X.i XXmXmXcXbXnXnXnXnXnXnXnXnXnXnXnXnXnXnXnXnXnX",
"nXnXnXnXnXnXnXnXnXnXcXnXnXnXnXmXbXmXcXnXpXw ).M ].^ D 1.@XB.J.n.J.K.K.7.e ~ _.' [ S o XXbXbXnXcXnXnXnXnXnXnXnXnXnXnXnXnXnXnXnXnX",
"nXnXnXnXnXnXnXnXnXmXnXnXnXcXnXvXnXvXmXvX6X1 ' ; qXbX'./ H ^.F S D ~ 6.u eXcXcXqXX  .g +XnXMXnXmXmXnXnXnXnXnXnXnXnXnXnXnXnXnXnXnX",
"nXnXnXnXnXnXnXnXnXnXnXzXmXnXnXnXnXnXvXvXfXg ) O 4XmXnXcXD %.~ dX9X].i i ,XcXxXcX[.w T.hXnXnXnXcXmXnXnXnXnXnXnXnXnXnXnXnXnXnXnXnX",
"nXnXnXnXnXnXnXnXnXnXnXnXnXnXnXnXcXmXcXmXmX8Xj T.mXxXbX~.D |.i =XgXrXf ^.1 -XcXbXxXcXcXcXmXmXmXmXnXnXnXnXnXnXnXnXnXnXnXnXnXnXnXnX",
"nXnXnXnXnXnXnXnXnXnXnXnXnXnXnXnXmXmXvXnXmXnXzXmXmXbX7X< D F 6 '.xX=Xd } d / cXcXmXcXmXcXcXmXmXmXnXnXnXnXnXnXnXnXnXnXnXnXnXnXnXnX",
"nXnXnXnXnXnXnXnXnXnXnXnXnXnXnXnXmXmXmXnXMXMXmXcXbXbX<X< ^.$.# 9XxX.XX #.w {.bXnXnXbXcXmXcXmXmXmXnXnXnXnXnXnXnXnXnXnXnXnXnXnXnXnX",
"nXnXnXnXnXnXnXnXnXnXnXnXnXnXnXmXcXcXmXmXnXnXcXmXnXmXmXE.f / 9XbXxXgXI.#.oXzXmXbXnXnXmXmXnXmXnXmXnXnXnXnXnXnXnXnXnXnXnXnXnXnXnXnX",
"nXnXnXnXnXnXnXnXnXnXnXnXnXnXnXmXmXcXnXnXmXnXcXcXvXbXnXmXxXcXxXbXbXbXbXcXmXmXmXmXnXnXnXnXmXmXnXnXnXnXnXnXnXnXnXnXnXnXnXnXnXnXnXnX",
"nXnXnXnXnXnXnXnXnXnXnXnXnXnXnXnXbXmXmXnXvXnXnXmXnXnXvXMXnXbXbXmXmXbXbXcXkXmXmXbXnXnXnXnXnXnXnXnXnXnXnXnXnXnXnXnXnXnXnXnXnXnXnXnX",
"nXnXnXnXnXnXnXnXnXnXnXnXnXnXnXnXvXmXmXmXnXvXmXmXnXnXnXmXnXxXnXnXMXmXnXnXmXmXnXnXnXnXnXnXnXnXmXmXnXnXnXnXnXnXnXnXnXnXnXnXnXnXnXnX",
"nXnXnXnXnXnXnXnXnXnXnXnXnXnXnXnXnXbXmXnXnXnXcXmXnXnXmXmXnXnXvXnXnXmXnXmXmXnXvXnXnXnXnXnXnXmXmXmXnXnXnXnXnXnXnXnXnXnXnXnXnXnXnXnX",
"nXnXnXnXnXnXnXnXnXnXnXnXnXnXnXnXnXnXnXnXnXmXmXmXmXmXmXmXmXmXnXnXnXnXnXnXnXnXnXnXmXmXmXnXnXnXmXmXnXnXnXnXnXnXnXnXnXnXnXnXnXnXnXnX",
"nXnXnXnXnXnXnXnXnXnXnXnXnXnXnXnXnXnXnXnXmXmXmXmXcXmXcXmXmXmXnXmXnXnXnXnXnXnXnXmXmXmXmXnXmXmXmXmXnXnXnXnXnXnXnXnXnXnXnXnXnXnXnXnX",
"nXnXnXnXnXnXnXnXnXnXnXnXnXnXnXnXnXnXnXnXmXcXnXnXmXcXmXcXmXmXmXcXnXmXnXnXnXnXmXcXmXmXnXnXnXmXcXcXnXnXnXnXnXnXnXnXnXnXnXnXnXnXnXnX",
"nXnXnXnXnXnXnXnXnXnXnXnXnXnXnXnXnXnXnXnXmXmXnXnXmXmXcXcXmXmXmXmXmXmXnXnXnXnXmXmXcXmXnXnXnXnXmXmXmXnXnXnXnXnXnXnXnXnXnXnXnXnXnXnX",
"nXnXnXnXnXnXnXnXnXnXnXnXnXnXnXnXnXnXnXmXcXmXnXnXmXcXcXmXmXmXmXcXcXmXnXnXnXnXmXcXmXmXmXnXmXmXmXmXmXnXnXnXnXnXnXnXnXnXnXnXnXnXnXnX",
"nXnXnXnXnXnXnXnXnXnXnXnXnXnXnXnXnXnXnXmXmXmXnXnXnXmXcXmXnXnXmXcXcXmXnXnXnXnXmXmXcXmXmXnXnXmXmXcXmXmXnXnXnXnXnXnXnXnXnXnXnXnXnXnX",
"nXnXnXnXnXnXnXnXnXnXnXnXnXnXnXnXmXcXmXmXcXnXnXnXmXmXcXnXnXnXnXcXmXmXnXnXmXmXmXcXmXnXmXmXnXnXnXmXnXnXnXnXnXnXnXnXnXnXnXnXnXnXnXnX",
"nXnXnXnXnXnXnXnXnXnXnXnXnXnXnXnXmXmXcXcXmXnXnXmXmXmXmXnXnXnXnXmXmXcXnXnXnXmXmXmXnXcXmXnXnXnXnXmXnXnXnXnXnXnXnXnXnXnXnXnXnXnXnXnX"
};
