/* XPM */
static char *c3a689bae80b4604b553e5c02af4be2fe5Z6OSL1bTFbas7S[] = {
/* columns rows colors chars-per-pixel */
"64 64 202 2 ",
"   c #222034",
".  c #262135",
"X  c #242334",
"o  c #262735",
"O  c #282135",
"+  c #2A2236",
"@  c #2F2337",
"#  c #2E2937",
"$  c #2A2E36",
"%  c #2B2F36",
"&  c #2A293A",
"*  c #2F2D3B",
"=  c #302437",
"-  c #332438",
";  c #352438",
":  c #3C263A",
">  c #372B39",
",  c #352D38",
"<  c #382939",
"1  c #3F293B",
"2  c #392E39",
"3  c #382F3D",
"4  c #2E3537",
"5  c #323038",
"6  c #363739",
"7  c #33343C",
"8  c #36343F",
"9  c #3B323A",
"0  c #39343A",
"q  c #3C363E",
"w  c #323C39",
"e  c #393C3C",
"r  c #402D3B",
"t  c #45283C",
"y  c #41303E",
"u  c #3B423F",
"i  c #333241",
"p  c #3B3540",
"a  c #383646",
"s  c #3C3544",
"d  c #3D3B43",
"f  c #3D3847",
"g  c #3A3748",
"h  c #3F3748",
"j  c #3C3B48",
"k  c #4A3341",
"l  c #413943",
"z  c #453A42",
"x  c #413F42",
"c  c #413C44",
"v  c #463D45",
"b  c #4E3847",
"n  c #4E3D47",
"m  c #4F3F47",
"M  c #41394A",
"N  c #443848",
"B  c #473D4E",
"V  c #4E3C4D",
"C  c #543D4E",
"Z  c #424143",
"A  c #434345",
"S  c #434544",
"D  c #474645",
"F  c #4A4446",
"G  c #4A4547",
"H  c #444845",
"J  c #454945",
"K  c #414049",
"L  c #47414A",
"P  c #44434A",
"I  c #42464A",
"U  c #474649",
"Y  c #45454F",
"T  c #4A424B",
"R  c #4C4049",
"E  c #4F4348",
"W  c #4B484A",
"Q  c #4D494B",
"!  c #4C4A4A",
"~  c #4C4E4B",
"^  c #4F4F4B",
"/  c #4A4E4C",
"(  c #53474C",
")  c #524B4C",
"_  c #544A4C",
"`  c #514D4C",
"'  c #51514D",
"]  c #51514F",
"[  c #404354",
"{  c #484752",
"}  c #494952",
"|  c #4D4853",
" . c #564051",
".. c #524852",
"X. c #574953",
"o. c #544D50",
"O. c #5A4B56",
"+. c #584E56",
"@. c #504E59",
"#. c #544D5A",
"$. c #534F5D",
"%. c #5A495A",
"&. c #5C4F5C",
"*. c #4D5351",
"=. c #515053",
"-. c #545451",
";. c #535354",
":. c #505157",
">. c #555154",
",. c #595652",
"<. c #5A5753",
"1. c #5A5255",
"2. c #5A5355",
"3. c #595857",
"4. c #51575A",
"5. c #565458",
"6. c #57575C",
"7. c #5A535C",
"8. c #555858",
"9. c #585A59",
"0. c #5D5B58",
"q. c #5F5D5B",
"w. c #59595F",
"e. c #5B5E5D",
"r. c #585E5E",
"t. c #60595E",
"y. c #605E5C",
"u. c #61605E",
"i. c #63605F",
"p. c #5A5764",
"a. c #565C63",
"s. c #575864",
"d. c #5E5B62",
"f. c #5D5D62",
"g. c #5E5E65",
"h. c #605260",
"j. c #645361",
"k. c #625561",
"l. c #605C65",
"z. c #6A5E6D",
"x. c #5D6266",
"c. c #5E6675",
"v. c #636261",
"b. c #616163",
"n. c #656261",
"m. c #656564",
"M. c #676767",
"N. c #6A6667",
"B. c #636268",
"V. c #62646B",
"C. c #676669",
"Z. c #65616E",
"A. c #64676C",
"S. c #6A6069",
"D. c #6B6768",
"F. c #6D646E",
"G. c #686868",
"H. c #696A6A",
"J. c #6B6A6B",
"K. c #6A6B6B",
"L. c #6A686E",
"P. c #6E6A6C",
"I. c #6C6C6D",
"U. c #6E6D6F",
"Y. c #636E72",
"T. c #6F6F71",
"R. c #6F6D73",
"E. c #716B73",
"W. c #726F72",
"Q. c #746874",
"!. c #706A79",
"~. c #667478",
"^. c #6E717A",
"/. c #717174",
"(. c #737174",
"). c #757175",
"_. c #767478",
"`. c #797479",
"'. c #78717D",
"]. c #79767C",
"[. c #7C777E",
"{. c #757A7D",
"}. c #79797E",
"|. c #7D797F",
" X c #7D7C82",
".X c #7C7F84",
"XX c #847E87",
"oX c #7A8184",
"OX c #7B8386",
"+X c #7F858A",
"@X c #818188",
"#X c #828B90",
"$X c #858A91",
"%X c #898993",
"&X c #858B98",
"*X c #88939A",
"=X c #8A939A",
"-X c #8A979D",
";X c #8F959F",
":X c #8E9CA3",
">X c #95A1AB",
",X c #9BADB7",
/* pixels */
"XXP.,.  6.{.,XXXXXXXXXXX|.H.  Y {.,X%XXXXXXXXXW.w w $   w w u 3.XXP.,.                        { {.,X%XXXXXXXXX(.w w $   w w u ,.",
"_.W.P.- ^.#X#X_._._._._._._.- p.#X#X X)._._.(.b.D H p - e./ / q._.W.P.      @ , 7 d d o   ; ; p.#X#X}.)._._.(.v.H D q - f./ ^ u.",
"H._.XXt &X:XH.H.H.H.H.H.R.XXt !.:XD.H.H.H.H.q.,.,.,.R t XXv.0.H.H._.XX    + t w H ,.,.* + t t !.:XH.H.H.H.H.q.5.-.,.m t @Xu.0.G.",
"H.u.,.w R.|.H.H.H.H.H.0.,.,.t j. XH.H.H.H.H.H.H.H.0.J w XXR.H.H.H.u.,.  : r w -.,.0.H.0.' w   @. XH.H.H.H.H.H.D.H.0.J w XXR.H.H.",
"0.u.m.o f.(.|.H.v.0.0.,.' u + | (. X[.(.H.H.m.0.0.v.Y o R.`.(.0.0.y.m.  + - , u =.u.0.m y o   } (.|. XW.H.H.m.0.0.u.U o (.`.).q.",
"^ ;.6.  } d.Q.6.o.! ' ) G 4   j 0.R.R.b.7.w._ ! ) 8.h   0.F.S.! ^ >.7.    + : 4 I 8.' y ;     g f.W.W.B.6.6.o.! ) 6.j   5.F.S.! ",
"w $       + t     o w r :       o w w 4       + t +       : :   w 4         X X   o w o     .   o w w $       X t +       : :   ",
"H.#X,XXXXX|.H.  $ u ,.,.,.,.,.,.,.,.-.x.K.  Y {.,X%XXXXXXXR.8.  H.+X,XXXXX XH.  $ u ,.,.,.,.,.,.,.,.,.0.H.  { {.,X&XXXXXXXR.6.  ",
"#X#X#X`.).).H.= d x.oX(.P.P.P.P.G.u.D.K.G.4 a.#X+X X_._._._.v.4 #X#X#X_._.(.H.= c r.OX(.P.P.P.P.P.u.G.P.H.$ a.#X#X}._._._._.m.$ ",
">X+XH.H.H.N.m.1 7.oX:X@X|.|.`.`.).K.`.`.W.w Y.=XH.H.H.H.H.(.C.w >X@XI.H.H.G.m.1 7.OX:XOX|.|.`.`.(.H.`._.(.w Y.=XH.H.H.H.H.).C.w ",
"XX_.H.H.H.m.,.w ~.:XH.H.H.H.,.,.0.G.G.`.XXw e.}.H.H.H.H.H.0.^ w XX_.H.G.H.m.,.w ~.:XK.H.H.H.,.,.0.H.H._.XXw e. XH.G.H.H.H.0.^ w ",
"XX_.H.H.H.m.8.w x.OXH.H.m.0.`.P.m.K.K.m.0.y j. XH.e.v.H.H.0.^ w XX_.H.I.H.m.,.w x.XXH.H.m.0.`.P.m.H.H.m.q.1 j.}.H.y.i.H.H.q.^ w ",
"|._.R.H.m.v.0.4 w.|.H.H.m.u. X(.H.H.H.l.,.: 7.`.R.v.e.m.m.0.=.4  X(.T.G.G.v.0.4 p.|.H.H.m.m.|.(.H.H.H.u.,.: 7.[.T.y.y.m.m.q.' 4 ",
"H._.XXH.0.0.H.  >.|.H.H.(.XXH.H.H.G.H.y.,.  P W.XXT.u.,.,.m.7.  G._.@XG.0.3.K.  ;.|.H.G.U.XXH.G.H.H.H.u.9.  T R.XX(.y.-.,.m.6.  ",
"w $     4 4     j y.XXU.H.H.,.,.,.,.,.m t   + + t +     w o     w $     w 4     g u.XX(.P.G.-.,.,.,.,.R t               w o     ",
"f.*.Y   { 4.c.5.l.P.P.8.*.*.m G D m R R C $.$.@.X.& i } ~.p.$.$.g.:.[   I 4.c.#.l.P.P.8.*.*.( G S d d 3 ;       ;   i { ~.s.$.$.",
" X).R.+ B.OX:X|. XW.0.D u u : h Y k y ( y.|.|.[.W.q @.{.:X@X X[. X_.W.+ B.OX:X X|.).3.D u u : 2 %   + X     X - 1 @ #.{.:X@X|.|.",
"H._.XXt &X:XH.H.H.H.H.0.,.,.  5.`.,.,.m.D.H.N.W.XXC !.,XH.H.H.H.H._.XXt &X:XD.H.H.H.H.y.,.,.        : -     - r w y !.,XH.H.H.H.",
"H.m.m.t '.@XH.H.H.H.H.D.m.m.: j.|.m.m.m.H.H.m.H.m.Z v.%XH.H.H.H.H.m.y.t '.+XH.H.H.H.H.m.m.m.: + + : + - : 4 d ( 1 9 v.$XH.H.H.H.",
"H.u.,.9 E.|.H.H.H.H.H.H.m.y.t j.}.H.H.H.H.H.H.m.-.u r.XXH.H.H.H.H.y.,.2 E. XH.H.H.H.H.H.N.u.9 #   - ; < 9 J ' 9.E u r.XXH.H.H.H.",
"H.y.-.w R. XH.H.H.H.H.H.m.<.t j.|.H.H.K.H.H.H.m.,.u r.XXH.G.H.H.H.y.,.w (.[.H.H.H.H.H.H.m.,.w $ X   : 9 w -.u.m.,.u r.@XH.H.H.H.",
",.y.H.  ! y.XXH.y.,.,.,.0.G.  Y R.XX(.u.,.,.,.` w o f ,.XX(.H.H.,.y.H.X Q 0.XXH.u.,.,.,.9.G.    + t 6 w w I.q.) w o d ,.XXR.H.H.",
"( n }   i v j.Y A c R E T Y   i | q.O.B d d v c $ X * d r.+...Y m T {   i T j.{ M l W n T {       ; 2 , $ Y P 8 4 . * g f.O...Y ",
"b B [ 7 g M b   & s %. .V g g a N C C N 7 X = 1 * * * * u y <   b B [ i g j n   + N %.( m g g g s h V N i     o * * * , u 9 >   ",
"G.#X,XG. X|.H.  Y {.,X%X@XXXXXXXXXXXXXW.H.  = k ,.,.,.,.,.u 4   H.#X,XH. XXXD.  { {.,X%XXXXXXXXXXXXXXX_.G.    * ,.,.,.,.,.u 4   ",
":X#X{.K.I.(.|.: Z.=X{.(.T.T.U.(.W.R.R.`. X4 U P.-X X`.`.`.7.G : :X#X{.H.H.W.[.: z.=X{.R.R.U.T.T.T.T.U._. X4 I H.-X X`.`.`.9.U : ",
":X.XK.G.H.U.).t z.$XG.K.H.H.H.H.H.H.H.R.).9 f.#X#X[._._._.m.2.t ;X.XH.H.H.I._.t z.$XH.H.H.H.H.H.H.H.H.R._.9 g.#X#X[.(._.).m.2.t ",
"XX_.K.K.H.H.H.t j.}.I.G.H.H.H.H.H.H.H.H.H.t !.:XC.H.H.H.H.H.q.t XX_.H.H.H.H.G.t j. XH.H.H.H.H.H.H.H.H.H.G.t !.:XH.H.H.H.H.H.y.t ",
"XX(.H.H.H.m.,.t j. XH.H.H.H.H.H.H.H.H.y.,.6 f. XH.H.H.H.H.y.^ w @X_.H.H.H.m.,.t j.}.H.H.H.H.H.H.H.K.K.u.,.w f.|.H.H.H.H.H.0.) w ",
"W._.|.3.0.y.m.+ L N. XW.m.0.0.0.9.0.y.y.m.o L m.H.H.H.H.H.3.! o W._.}.0.0.q.m.+ T D. XH.m.0.0.0.9.0.0.u.m.o P v.H.H.H.H.H.0.W o ",
"s.S.W.) ) _ w.  8 ) Q.b.8.' ) ) ) ' ) -.9.  s ,.R.K.G.m.m.-.D   e.D.Q.' ) o.6.  i ;.Q.v.0.~ ^ ` ^ ^ ) -.5.  q 1.W.H.H.m.m.-.S   ",
"w 9 t w 2 1       + t 6 w w w 9 r w 2 ;     - C XXT.u.-.,.u 4   w 9 t w 1 :       + t 6 w w w 9 1 u : ;     ; C @XR.y.,.,.u 4   ",
"XXP.,.                        [ {.,X%XXXXXXXXXR.w w $ . w w u ,.XXP.,.. 5.{.,XXX@XXXXXXX|.m.X L }.,X%XXXXXXXXXE.w w $   w w u -.",
"`.(.P.    + @ $ 7 d f o X - - p.#X#X}._._.).(.m.J J 0 - e./ ' u.W.W.P.; ^.#X#X_._.`.`._._._.= p.#X#X}._._._.W.m.H H q ; e.~ ' u.",
"G.`.XX    + t w H ,.,.* + t k !.:XH.H.H.H.H.v.-.,.,.m t XXl.8.H.H._.@Xt &X:XH.H.H.H.H.H.(.XXt !.:XH.H.H.H.H.u.8.,.,.m t XXu.0.H.",
"K.0.,.  1 > w ,.,.0.H.0.' 7   :. XH.H.H.H.H.P.H.H.0.H w @X(.H.H.H.l.,.w W. XH.H.H.H.H.0.,.,.t t. XH.H.H.H.H.H.G.G.0.H w XXR.H.H.",
"0.u.m.  . - 1 u ' u.y.m r +   ! (.|.|.(.G.H.v.8.0.y.U o R.`.).0.0.u.m.o f.(.}.H.u.9.0.3.' u + | (. X XW.H.H.m.0.0.i.Y o (.`.).0.",
"` -.8.    . : 4 I 8.' r ;     g f.R.W.b.6.6.o.! ` 8.j X 6.F.S.! ' +.6.  } d.Q.7.o.U ' _ G 4   g d.R.W.B.6.6...! ` 8.g   8.F.z.! ",
"w $               o w o       X o w w $       + t + .     : :   w $ X     + t     o w r :   X   o w w $       O t +       : :   ",
"H.$X,X@XXX XH.  $ u ,.,.,.,.,.,.,.,.,.q.D.  { {.,X%XXXXXXXW.w.  G.#X,XXX@X}.H.  4 u ,.,.,.,.,.,.,.,.,.0.H.  { {.,X%XXXXXXX(.8.  ",
"#X#X#X_._.(.H.- h r.OX(.P.P.P.P.D.l.H.P.H.$ a.#X#X}._._._._.b.$ #X#X#X_._.(.H.; c r..XR.P.P.P.P.D.u.G.K.H.$ s.#X#X|.)._._._.b.% ",
">X@XH.H.H.H.m.r 7.OX:X X X X`.`.).K.`._.W.w Y.=XH.H.H.H.H.).m.w >X+XH.H.H.H.m.2 7.+X:X@X|.|.`.`.).H.`._.R.w Y.=XH.H.H.H.H.).D.w ",
"@X_.H.H.H.m.,.w ~.:XH.H.m.H.,.,.0.H.H._.@Xw r.|.H.H.H.H.H.0.' w XX_.H.H.H.m.,.w ~.:XH.H.H.H.,.,.0.H.K._.XXw f.{.H.K.H.H.H.0.' w ",
"XX_.H.H.H.m.,.w x.@XH.H.C.0.`.U.m.H.H.m.u.1 j.|.H.u.u.H.H.0.^ w XX_.H.H.H.m.,.w x.@XH.H.m.0.`.U.m.H.K.m.u.1 j. XH.0.m.H.H.9.^ w ",
"|._.R.H.m.m.0.4 p. XD.H.N.i.|.).H.H.H.y.,.1 &.[.T.u.u.m.m.r.` 4 |._.W.H.m.l.0.4 w.|.H.H.m.i.|.(.H.H.H.u.,.: 7.[.(.q.y.m.m.q.' 4 ",
"H._.XXH.0.0.H.  ,.|.H.H.(.@XH.K.H.H.H.q.,.  Y R.XXR.u.,.,.m.7.  H._.XXH.0.0.P.  *.|.H.H.(.XXH.H.H.H.H.u.,.  L W.XX(.u.-.,.m.6.  ",
"w $     4 4     d i.@XK.G.K.] <.,.,.,.m t       .       w o     w $     4 4     h l.XX(.H.H.,.,.,.,.,.E t   X + t +     w o     ",
"f.;.Y   I 4.c.$.l.P.P.8.*.*.C U S d d 9 -     X =   i } ~.p.$.$.r.*.{   I 4.c.:.l.P.P.8.*.*.m G F m m E n $.$.$.X.& i { ~.s.$.$.",
"}._.R.+ A.+X:X[.|.).0.J u u : , 4   +       + + r = #.{.:X@X X X|._.W.+ B.OX:X X X).y.J u u : N D y k _ 0.|.|.`.T.a @.{.:X@X X[.",
"H._.XXt &X:XH.H.H.H.H.0.,.,.        : -     = r w r Q.,XH.H.H.G.H._.XXt &X:XG.K.H.C.H.0.,.1.  #.`.,.<.y.H.H.K.W.@XC !.,XH.H.H.H.",
"H.m.y.t !.@XH.H.H.H.H.m.m.m.: - + : + ; : 4 c E > 0 x.%XH.H.H.H.H.m.y.t '.+XG.K.H.H.H.m.i.m.: t.[.m.N.N.H.H.H.m.u.Z v.%XH.H.H.H.",
"H.u.,.9 R. XH.H.H.H.H.H.D.e.9 #   ; ; > 9 U ' 0._ e f.XXH.H.H.H.H.y.,.2 R. XK.K.H.H.H.P.m.y.t j.|.H.H.H.H.H.H.m.,.u f.XXH.H.H.H.",
"H.u.,.w R.[.N.C.H.H.H.H.m.,.w $     : q w ,.q.m.<.u r.XXH.H.H.H.H.u.,.w Q..XG.G.H.H.H.H.m.,.t t.|.H.K.H.H.H.G.m.,.u e.XXH.H.H.H.",
",.u.G.  Q q.XXF.u.,.,.,.0.H.    + t 7 w w G.v.*.w + d ,.XXT.H.H.,.y.H.  W q.XXK.u.,.,.,.0.H.  Y W.XX(.l.,.,.,.) w o d ,.XXP.H.H.",
"( T Y   i T q.Y A l ( b T Y       ; , , $ { P p $   , j r.2...L m T {   8 n t.Y P c m R T Y   i | 7.O.m d f v v $ o * a x.O...{ ",
"b B [ 8 a M b . + j %.C V g g g g a V M 7       & , * * u y ,   b B [ i a M b   & f %.C V g g g M C C N 7   = r , & * , u 9 <   ",
"H.#X,XH.|.|.H.  { {.,X$XXXXXXXXXXXXXXX_.G.    * ,.,.,.,.<.u 4   H.#X,XH.[. XH.  Y {.,X%XXXXXXXXXXXXXXX_.G.  ; k -.3.,.,.,.u 4   ",
":X$X{.H.K.(.|.: Z.=X{.(.W.R.R.R.(.I.T._. X4 I H.-X X`.`.`.<.U : :X#X{.H.P.).[.: z.=X{.W.R.R.T.T.T.T.R.).}.4 { H.-X X`.`.`.3.G : ",
";XOXH.H.K.I._.t z.#XH.H.H.H.H.H.H.H.G.(._.0 f.#X#X}._._.`.m.O.t ;XOXH.H.H.P._.t z.%XH.H.H.H.H.H.H.H.H.(._.9 g.#X#X}._._._.m.2.t ",
"XX).H.H.H.H.H.t j. XH.H.H.H.H.H.H.H.H.H.G.t !.:XH.H.H.H.H.H.q.t XX_.H.H.H.H.H.t t.|.H.H.H.H.H.H.H.H.H.H.H.t !.:XH.H.H.H.H.H.q.t ",
"XX_.H.H.K.m.,.t t.|.H.H.H.H.H.H.H.H.H.u.,.w f.[.H.H.H.H.H.0.) w @X_.H.H.H.m.,.t t.|.P.H.H.H.H.H.H.H.H.u.,.w f.|.H.H.H.H.H.0.^ w ",
"(.).|.0.0.t.m.+ n N. XU.m.0.0.0.9.u.0.u.m.o x m.H.H.H.H.H.0.~ o W._.}.0.0.q.m.+ B N.[.U.m.0.0.0.0.0.0.u.m.o P v.H.H.H.H.H.q.! o ",
"q.B.Q.^ ) =.6.  i -.Q.v.8.^ ^ ` ) ) ) >.8.  q 2.T.H.C.m.m.-.A   e.D.Q.' ) o.6.  8 ] W.m.9.^ ) ) ) *.` -.6.  p -.(.K.D.m.m.-.x   ",
"w 0 t w 1 :       + t 6 w w w 9 r w r ;     ; C @XR.u.,.-.u 4   w 9 t w 1 :       O t 7 w w w 9 r w 1 ;     ; C XXR.y.,.,.u 4   "
};
