/* XPM */
static char *e4f4704628124d31b8d31f03cae20aa7TVKeh99DoNaB7Da1[] = {
/* columns rows colors chars-per-pixel */
"64 64 106 2 ",
"   c #3A392F",
".  c #3E3D2E",
"X  c gray20",
"o  c #323433",
"O  c #323534",
"+  c #323736",
"@  c #373736",
"#  c #323937",
"$  c #353837",
"%  c #383830",
"&  c #3A3E32",
"*  c #3A3F33",
"=  c #323A38",
"-  c #323B38",
";  c #373B39",
":  c #323C39",
">  c #373E3B",
",  c #393B39",
"<  c #3C3B3A",
"1  c #39403D",
"2  c #3B423F",
"3  c #4E4926",
"4  c #464229",
"5  c #42432E",
"6  c #44432C",
"7  c #4A4729",
"8  c #524B24",
"9  c #534D2F",
"0  c #474837",
"q  c #41403E",
"w  c #544F35",
"e  c #514F39",
"r  c #565031",
"t  c #575235",
"y  c #55503B",
"u  c #5E573C",
"i  c #3F4745",
"p  c #434240",
"a  c #404441",
"s  c #434743",
"d  c #464442",
"f  c #434745",
"g  c #454A41",
"h  c #454945",
"j  c #4A4843",
"k  c #4D4C40",
"l  c #484845",
"z  c #4A4846",
"x  c #434A48",
"c  c #444B4A",
"v  c #464C4A",
"b  c #464C4C",
"n  c #4A4C48",
"m  c #4A4F48",
"M  c #494E4B",
"N  c #4F4D4A",
"B  c #4F4F4B",
"V  c #514F4C",
"C  c #504E4F",
"Z  c #4B504E",
"A  c #565344",
"S  c #555247",
"D  c #5D5A47",
"F  c #51504A",
"G  c #51514D",
"H  c #54514E",
"J  c #54544E",
"K  c #595849",
"L  c #5D594A",
"P  c #4D5351",
"I  c #505352",
"U  c #565356",
"Y  c #595652",
"T  c #5A5753",
"R  c #5B5855",
"E  c #5C5956",
"W  c #555859",
"Q  c #575A5C",
"!  c #5D5B58",
"~  c #5E5B58",
"^  c #5B5E5D",
"/  c #5D5F5C",
"(  c #5F5C5E",
")  c #605E54",
"_  c #605D5B",
"`  c #616159",
"'  c #636258",
"]  c #61605E",
"[  c #63605F",
"{  c #5B5D60",
"}  c #636261",
"|  c #606064",
" . c #656564",
".. c #696565",
"X. c #676368",
"o. c #696A6A",
"O. c #6A696E",
"+. c #6E6A6C",
"@. c #77716E",
"#. c #6F6D73",
"$. c #736F70",
"%. c #767478",
"&. c #797479",
"*. c #7B767C",
"=. c #7D797F",
"-. c #847E87",
/* pixels */
"Y Y Y Y Y N X : h Y Y Y Y Y o.[ Y Y Y Y Y Y Y Y Y 1 h Y Y Y Y Y Y Y Y Y Y V X = c T T Y Y Y o._ Y Y Y Y Y Y Y Y Y i x R Y Y Y Y ",
"d d d d d q X 5 k Y Y Y Y Y o.[ Y Y Y Y Y Y Y Y Y 0 e Y Y Y Y Y d d d d d q X 5 e T Y Y Y Y #./ Y Y Y Y T T Y Y J 0 e J Y Y Y Y ",
"X X X X X X X 8 y Y Y Y Y Y o.[ Y Y Y Y Y Y Y Y Y r e E Y Y Y Y O O X O X X X 8 r T T T Y Y o._ Y Y Y Y T J T K Y 9 y T Y Y Y Y ",
": : : : : * 8 8 5 # X N Y Y o.[ Y Y Y h : : : * 8 8 8 3 : : : = : : = : : * 8 8 1 + X N Y Y o.( Y Y Y h : > - 1 8 8 8 8 : = = ; ",
"^ ^ ^ ^ ^ / ' @.$.| # , 2 Y E E Y Y a W #.^ / / / ' ' ' ~ ^ ^ ^ ^ ^ ^ ^ / / ' @.$.{ = < a Y ~ R Y Y i W #.Q Q ! ' ' ' ' ^ ^ ^ ^ ",
" . . . . . . .&.*.O.: o < Y Y Y Y Y h W =. . . . . . . . . . . . . . . . . . .&.&.$.: X , Y Y Y Y Y i W =. . . . . . . . . . . .",
"Y Y Y Y Y Y Y Y [ / : o < Y Y Y Y Y 1 P O.Y Y Y Y Y Y Y Y Y Y Y Y Y Y Y Y Y Y Y / / = X < Y Y Y Y Y i P o.Y Y Y Y Y Y Y Y Y Y Y ",
"Y +.-.-.[ Y Y Y } ' 8   X X o X X o = P o.Y Y Y Y Y Y Y Y Y Y Y Y +.-.-.[ Y Y Y } ' 8 % X X X X X X + Z o.Y Y Y Y Y Y Y Y Y Y Y ",
"Y _ +.+.~ Y Y Y _ ' 8 4 1 = = # O = = i P x a h h h h h d G Y Y Y [ +.+.E Y Y Y [ ' 8 4 . O O = O # = i P h h h h h x h d G Y Y ",
"V N N V V V Y Y ~ ~ 8 r r q i i i x i x c i i x i i h v   j N N N N N N G F Y Y ~ ) 8 r e i i i i i i x c i i h i i c b   j N V ",
"X X X X X < Y Y Y A 8 ' o.o.o.o.o.o.o.%.-.O.o.o.o.o.%.-.8   o X X X X X X < Y Y Y S 8 ' o.o.o.o.o.o.O.%.-.o.o.o.o.o.%.-.8   X X ",
"# # # # # $ , Y Y F 1 S ' E E E ! ~ ~ ~ / ~ ~ ~ ~ ~ L u 8 * # - # # # = $ $ < Y Y S 1 J ~ ~ ~ ~ ~ ~ ~ _ / ~ ! ! ~ ~ K u 8 * # O ",
"f i i i c h % V V h : G Y Y Y Y Y Y Y Y Y Y Y Y Y N A u t h a h i i i i x x X F V q - F Y Y Y Y Y Y Y Y Y Y Y Y T N A u t h i i ",
"o.o.o.o.=.@.8 X X o : Z Y Y Y Y Y Y Y Y Y Y Y Y Y i ^ -.o.o.o.o.o.o.o.o.=.@.8 X @ X - Z Y Y Y Y Y Y Y Y Y Y Y Y Y i / -.o.o.o.o.",
"Y Y Y Y  .' 8 8 5 = : : : : = h R Y Y Y Y Y Y Y G i P o.Y Y Y Y Y Y Y Y  .' 8 8 6 : : : : : : v Y Y Y Y Y Y Y Y Y 1 P o.Y Y Y Y ",
"Y Y Y Y  .' 8 y k h P P P P ^ P z Y ..[ Y Y Y G d > P o.Y Y Y Y Y Y Y Y  .' 8 e y x P P P P / P z Y  .} Y Y Y G d 1 Z o.Y Y Y Y ",
"Y Y Y Y  ./ 7 Y Y E  . . . .=.Q > V X._ V N V V o # P o.Y Y Y Y Y Y Y Y  .' 7 Y Y ~  . . . .=.~ 1 V  ._ N N N N X # P o.Y Y Y Y ",
"Y Y Y Y  .~ : Y Y Y Y Y Y Y o.P = X X X X X d V o # P o.Y Y Y Y Y Y Y Y  ./ : Y Y Y Y Y Y Y o.P = O X X X @ d G X # P o.Y Y Y Y ",
"; , < E  ./ : Y Y Y Y Y Y Y o.P = = # = O = ; > # 6 K o.Y q , < < < < Y  ./ : Y Y Y Y Y Y Y o.P : : O # = # > 1 # 6 K o.Y q < < ",
"o = O h M v = Y Y Y Y Y Y Y o.P > f h h h P P M 5 3 t L h > # o O = O x Z b o Y Y Y Y Y Y Y o.P > h d v h P P N 5 3 w D h > o # ",
": : : : = : X Y Y Y Y Y Y Y O.P i Y Y Y T o.o.' 8 8 8 8 : : : # : : : : : : X Y Y Y Y Y Y Y o.P i Y Y Y Y o.O.' 8 8 8 8 : : : : ",
"Y Y Y = O < Y Y +.&.Y Y Y T o.P > Y Y Y Y Y _ o.o.i P o.o.o.o.o.Y Y Y : O < Y Y O.&.Y Y Y Y o.P > Y Y Y Y Y / o.o.i P o.o.o.o.o.",
"Y Y Y = @ @ d d V U d J Y Y _ M 1 T Y Y Y Y ~  .o.i P o.[ [ _ } Y Y Y : o @ d d N Y d G Y Y } M i Y Y Y Y Y E } o.i P o.[ [ [ [ ",
"Y Y J i X @ % %     X h Z F V a > Y Y Y Y Y Y ~ o.i P o.Y Y Y Y Y Y Y i X $ % % % @ O z F Z N a > Y Y Y Y Y Y E o.i Z o.Y Y Y Y ",
"Y Y Y Y i > 8 8 8 7 : : = : : # < Y Y Y Y Y Y ! o.i P o.Y Y Y Y Y Y Y Y 1 * 8 8 8 7 # : : : = O > Y Y Y Y Y Y ~ o.i P o.Y Y Y Y ",
"Y Y Y Y G F A 8 9 A M V h X O O < E Y Y Y Y Y ! o.i v ! Y Y Y Y Y Y Y Y V Z K 8 w F G N h O O X , Y Y Y Y Y Y ~ o.i x E Y Y Y Y ",
"Y Y Y Y Y Y Y 5 y Y Y Y V d d d z Y ~ ~ Y Y Y ! o.i h Y Y Y Y Y Y Y Y Y Y Y Y 4 e Y Y Y J d d d z Y ' ~ Y Y Y ~ o.i h Y Y Y Y Y ",
"Y Y Y Y Y Y Y : h Y Y Y Y Y Y Y T E  ._ Y Y Y ! o.i h Y Y Y Y Y Y Y Y Y Y Y Y = h Y Y Y Y Y Y Y Y Y  .[ Y Y Y E o.i h Y Y Y Y Y ",
"Y Y Y Y Y Y Y : h Y Y Y Y Y o.o.o.o.! Y Y Y Y Y Y 1 h Y Y Y Y Y Y Y Y Y Y Y Y = h Y Y Y Y T o.o.o.o.~ Y Y Y Y Y Y i h Y Y Y Y Y ",
"Y Y Y Y Y Y Y : h Y Y Y Y Y o.} ! ! T Y Y Y Y Y J i h Y Y Y Y Y Y Y Y Y Y Y Y = h Y Y Y Y T o.} ~ ~ E Y Y Y Y Y Y 1 h Y Y Y Y Y ",
"Y Y Y Y Y Y Y : h Y Y Y Y ~  ./ Y Y Y Y Y Y Y Y Y 2 h Y Y Y Y Y Y Y Y Y Y Y Y : h Y Y Y T Q  .~ Y Y Y Y Y Y Y Y Y 1 h Y Y Y Y Y ",
"Y Y Y Y Y Y Y : h Y Y Y ~ o.Y Y Y Y Y Y Y Y Y Y Y 2 h Y Y Y Y Y Y Y Y Y Y Y Y : h Y Y T ! o.Y Y Y Y Y Y Y Y Y Y Y 1 h Y Y Y Y Y ",
"Y Y Y Y Y V X : h Y Y Y T T o.[ Y Y Y Y Y Y Y Y J i h Y Y Y Y Y Y Y Y Y Y V X # s Y Y Y Y Y o.} Y Y Y Y Y Y Y Y Y 1 h Y Y Y Y Y ",
"d d d d d 2 X 5 y Y Y Y Y J o.[ Y Y Y Y Y Y Y E Y 0 k Y Y Y Y Y d d d d d q o 5 j Y Y Y Y Y O.~ Y Y Y Y Y Y Y Y T 0 e Y Y Y Y Y ",
"X X X X X X X 8 e T Y Y Y Y o.[ Y Y Y Y Y Y K Y Y 9 y Y Y Y Y Y O O X X X X X 8 e R Y R Y Y o. .Y Y Y Y Y Y Y Y Y w y Y Y Y Y Y ",
": : : = = * 8 8 1 O o N Y Y o.[ Y Y Y h : = # 1 8 8 8 8 : : : : = : : : : * 8 8 5 = X N Y Y o.~ Y Y Y h : : : * 3 8 8 8 : : : : ",
"/ ^ ^ ^ ^ ^ ' @.@.^ - - q Y ! E Y Y h W #.^ ^ ! ' ' ' ' ~ ^ ^ ^ ^ ^ ^ ^ ^ ~ ' @.$.{ ; , a Y ~ Y Y Y h W #.^ ^ _ ' ' ' ' Q / ^ ^ ",
" . . . . . . .&.&.@.: o < Y Y Y Y Y i W =. . . . . . . . . . . . . . . . . . .%.&.#.= O < Y Y Y Y Y 2 Q =. . . . . . . . . . . .",
"Y Y Y Y Y Y Y Y [ ^ : o $ T T T Y Y 1 P o.Y Y Y Y Y Y Y Y Y Y Y Y Y R Y Y Y E Y / / = O < Y Y Y Y Y 2 P o.Y Y Y Y Y Y Y Y Y T Y ",
"Y +.-.-.[ Y Y Y [ ' 8   X o o o X X # P o.Y Y Y Y Y Y Y Y Y Y Y Y +.-.-._ Y Y Y } ' 8 % X X X O o @ # Z o.Y Y Y Y Y Y Y Y Y Y Y ",
"Y [ +.+.E Y Y Y [ ' 8 4 . # # o o # : i P h h h h h h h d J Y Y Y } +.+.E Y Y Y ~ ' 8 4 . o # O O O : i P h h h h h h h d G T Y ",
"N N N N V V Y Y _ T 8 r y s i i i i i h v i i f i i x v   z N V N N N N V V Y Y _ ) 8 r y i i i i i i h c i i h i i h M % z N F ",
"X X X X X , Y Y Y A 8 ! o.o.o.o.o.o.o.%.-.o.o.o.o.o.%.-.8   X X X X X X @ , Y Y Y S 8 ' o.o.o.o.O.o.O.%.-.o.o.o.o.o.%.-.8   o X ",
"= # # # # ; , Y Y S 1 Y ! ! ! ! E Q ! / / ! ~ ~ ! ! L u 8 * # # # # # # # $ , Y Y Z * Y ~ ~ ~ E ~ ~ ) Q } ~ ! ! E Q L u 8 * # # ",
"i i i h c d % N N x : N Y Y Y Y Y Y Y Y Y Y Y Y T F A u t q i x i i i i v f % V F j : N Y Y Y Y Y Y Y Y Y Y Y Y Y N A u r h h i ",
"o.o.o.o.=.@.8 O X O : V Y Y Y E Y Y Y Y R Y Y Y T 2 ^ -.o.o.o.o.o.o.o.o.=.@.8 X X o : V Y Y Y E Y Y Y Y Y Y Y Y Y i ^ -.o.o.o.o.",
"Y Y Y Y } ' 8 8 5 : : : = : : h Y Y R Y Y Y Y Y Y 1 P o.Y Y Y Y Y Y Y Y  .' 8 8 5 = : : : : : x Y Y Y Y Y Y T T Y 1 P o.Y Y Y Y ",
"Y Y Y T  .' 8 y e v P P P P { I z Y .._ Y Y Y G h 1 P o.Y Y Y Y Y Y Y Y  .' 8 e e v P P P P ^ P m Y  .} Y Y Y G q 1 P o.Y Y Y Y ",
"Y Y Y Y  .' 7 Y Y ~  . . . .=.Q 1 N  ._ N N G V X : P o.Y Y Y Y Y Y Y Y  .' 7 Y Y ~  . . . .=.! > N X./ V N F N o o P o.Y Y Y Y ",
"Y Y Y Y  ./ : Y Y Y Y Y Y Y o.P # X o o X X d G X O P o.Y Y Y Y Y Y Y Y  .^ : Y Y Y Y Y Y Y o.P ; X X X X X d G X : P o.Y Y Y Y ",
"< , , Y  ./ # Y Y Y Y Y Y Y o.P : # # # + = > , : 4 K o.Y q < , < < , Y  .^ : Y Y Y Y Y Y Y o.P : = O = # # , 2 # 5 K o.Y a < < ",
"O = O h Z b O Y Y Y Y Y Y Y o.P > h h d h P P M 5 3 t L x < O # O = O x Z b O Y Y Y Y Y Y Y o.P > h h f h P P M 5 3 t D h < O o ",
": : = = : = X Y Y Y Y Y Y Y o.P i Y Y Y Y o.o.' 8 8 8 8 = : : : : : : : , : O Y Y Y Y Y Y Y o.P i J Y Y Y o.O.' 8 8 8 8 : : : : ",
"Y R Y # O ; Y Y +.&.Y Y Y Y o.P 1 Y Y Y Y Y } o.o.i P o.o.o.o.o.Y Y Y : X < Y Y +.%.Y Y Y Y o.P i Y Y Y Y Y _ o.o.i P o.o.o.o.o.",
"R Y Y # O $ d d V Y d J Y Y / M i J Y Y Y Y ~ } o.i P o.~ { [ [ Y Y Y : o o d z N U d Z Y Y _ m > Y Y Y Y Y ~ } o.i P o.} _ } _ ",
"Y Y Y f = o     % @ O h V Z N a 1 Y Y Y Y Y Y ~ o.i P o.E Y Y Y Y Y G h o @ . % X % @ z Z N G a > Y Y Y Y Y Y ~ o.i Z o.Y Y Y R ",
"Y Y Y Y f * 8 8 8 7 = = : = = # < Y Y Y Y Y Y ~ o.i P o.Y Y Y Y Y Y Y Y i & 8 8 8 7 = : : : = = , Y Y Y Y Y Y ~ o.i P o.Y Y Y Y ",
"Y Y Y Y N G A 8 w S N N c O O O < Y Y Y Y Y Y ~ o.f M E Y Y Y Y Y Y Y Y N Z A 8 t S Z N d O X @ < Y Y Y Y Y Y ~ o.i x ~ Y Y Y Y ",
"Y Y Y Y Y Y Y 5 e Y Y Y V d d d h Y ~ E Y Y Y ~ o.i h Y Y Y Y Y Y Y Y Y Y Y Y 6 e T Y Y I d d d M Y / E Y Y Y ~ o.i h Y Y Y Y Y ",
"Y Y Y Y Y Y Y : f R Y Y Y Y R Y Y E  .[ Y Y Y E o.i h Y Y Y Y Y Y Y Y Y Y Y Y : h Y Y Y T Y Y Y Y Y  .} Y Y Y E o.i h Y Y Y Y Y ",
"Y Y Y Y Y Y Y : h Y Y Y Y Y o.o.o.o.~ Y Y Y Y Y Y i h Y Y Y Y Y Y Y Y Y Y Y Y : h Y Y Y Y Y o.o.o.o.~ Y Y Y Y Y Y 1 h Y Y Y Y Y ",
"Y Y Y Y Y Y Y : h Y Y Y Y Y o.} E E E Y Y Y Y Y Y 1 s Y Y Y Y Y Y Y Y Y Y Y Y : h Y Y Y Y Y o. .E E E Y Y Y Y Y Y i h Y Y Y Y Y ",
"Y Y Y Y Y Y Y : h Y Y Y E ~  ._ Y Y Y Y Y Y Y Y J i s Y Y Y Y Y Y Y Y Y Y Y Y : h Y Y Y Y E  ._ Y Y Y Y Y Y Y Y Y 1 h Y Y Y Y Y ",
"Y Y Y Y Y Y Y = h Y Y Y E o.Y Y Y Y Y Y Y Y Y Y Y 1 h Y Y Y Y Y Y Y Y Y Y Y Y : h Y Y Y E o.Y Y Y Y Y Y Y Y Y Y Y 1 h Y Y Y Y Y "
};
