/* XPM */
static char *_06e34b0eeec492bd964f48d0a82cc09KX2gnywabIAQmVTy[] = {
/* columns rows colors chars-per-pixel */
"64 64 193 2 ",
"   c #3B372C",
".  c #222034",
"X  c #2A2336",
"o  c #2B2E36",
"O  c #2F2D3B",
"+  c #312637",
"@  c #342438",
"#  c #3C263A",
"$  c #342D3C",
"%  c #2E3537",
"&  c #2E3139",
"*  c #3A3F33",
"=  c #33323C",
"-  c #3B333C",
";  c #323C39",
":  c #3A3C3A",
">  c #42273B",
",  c #45283C",
"<  c #40353D",
"1  c #3B4533",
"2  c #3D4C36",
"3  c #3B423F",
"4  c #3E5234",
"5  c #42432E",
"6  c #4A4729",
"7  c #524B24",
"8  c #4C5A2B",
"9  c #515026",
"0  c #474730",
"q  c #474537",
"w  c #404B31",
"e  c #484935",
"r  c #4C4C3B",
"t  c #425431",
"y  c #445D31",
"u  c #49573C",
"i  c #54503B",
"p  c #4C612C",
"a  c #4B692F",
"s  c #4E6437",
"d  c #4E623E",
"f  c #52693D",
"g  c #292744",
"h  c #2E2D42",
"j  c #312F42",
"k  c #3D2943",
"l  c #312C4D",
"z  c #333241",
"x  c #3A3340",
"c  c #3D3C43",
"v  c #363449",
"b  c #3A3748",
"n  c #3A394F",
"m  c #302F54",
"M  c #3E2F50",
"N  c #3D3257",
"B  c #383D55",
"V  c #383259",
"C  c #373764",
"Z  c #3D3B65",
"A  c #3F3F74",
"S  c #432D4A",
"D  c #433240",
"F  c #4B3442",
"G  c #413D46",
"H  c #4E3C46",
"J  c #4E3848",
"K  c #543D4E",
"L  c #423051",
"P  c #4C3C52",
"I  c #423358",
"U  c #403E5F",
"Y  c #403966",
"T  c #3F4745",
"R  c #3B4845",
"E  c #434444",
"W  c #454945",
"Q  c #4B4B41",
"!  c #44444E",
"~  c #4E414E",
"^  c #464C4C",
"/  c #4C4B4B",
"(  c #54444D",
")  c #544A4C",
"_  c #485A44",
"`  c #4C5248",
"'  c #5A5641",
"]  c #585746",
"[  c #53524D",
"{  c #414354",
"}  c #4D4455",
"|  c #4C4B53",
" . c #43455D",
".. c #4A455C",
"X. c #4B495E",
"o. c #534351",
"O. c #524E54",
"+. c #5A495A",
"@. c #4C5351",
"#. c #4C5858",
"$. c #525654",
"%. c #595652",
"&. c #575957",
"*. c #5B5A55",
"=. c #54535B",
"-. c #565D5D",
";. c #5D5C59",
":. c #645E4B",
">. c #605D5B",
",. c #596E44",
"<. c #566053",
"1. c #5D605F",
"2. c #6A6454",
"3. c #62605E",
"4. c #6B655A",
"5. c #454061",
"6. c #494465",
"7. c #4C4B63",
"8. c #45446B",
"9. c #4E476A",
"0. c #4C496D",
"q. c #524663",
"w. c #534B60",
"e. c #564C66",
"r. c #54546F",
"t. c #55586C",
"y. c #5D5B68",
"u. c #5E5F6C",
"i. c #454672",
"p. c #494971",
"a. c #504E78",
"s. c #575878",
"d. c #645361",
"f. c #5E6365",
"g. c #5E6675",
"h. c #656564",
"j. c #686565",
"k. c #6B6569",
"l. c #676B6E",
"z. c #696A6A",
"x. c #706C6F",
"c. c #737067",
"v. c #6F6F71",
"b. c #64627B",
"n. c #716F71",
"m. c #706A79",
"M. c #667477",
"N. c #6F7174",
"B. c #667478",
"V. c #727275",
"C. c #757971",
"Z. c #757579",
"A. c #787479",
"S. c #757A7D",
"D. c #7C797F",
"F. c #555A84",
"G. c #6F6D80",
"H. c #6F7D81",
"J. c #6E738E",
"K. c #7C7D82",
"L. c #737389",
"P. c #6D7695",
"I. c #837E86",
"U. c #7A8184",
"Y. c #7D868B",
"T. c #7E8A92",
"R. c #83838A",
"E. c #80898D",
"W. c #838C91",
"Q. c #898992",
"!. c #8D8F99",
"~. c #85949B",
"^. c #8E959E",
"/. c #8E9CA3",
"(. c #9395A3",
"). c #9299A5",
"_. c #969EAD",
"`. c #989DAC",
"'. c #95A1AA",
"]. c #99A7B4",
"[. c #9BADB7",
"{. c #A3ACBE",
"}. c #9FAFC0",
"|. c #A6ACC0",
" X c #A6B5C6",
".X c #A7B6CA",
"XX c #A9B8CA",
"oX c #ADBBD0",
"OX c #B1BED6",
"+X c #B2C3D9",
"@X c #B8C3DD",
"#X c #BECEEA",
"$X c #CADAFB",
/* pixels */
"%.%.%.%.%.3.h.%.%.%.%.A 7.%.%.%.$.%.%.F F %.%.%.%.[.S.z.z.z.>.%.[.^.I.I.I.A.%.I.x.%.%.+ O %.z.3.%.%.%.H , %.>.h.%.%.x.I.z.*.%.%.",
"%.%.*.h.h.h.z.A.>.%.%.S ~ %.%.%.N./.A.9.Y %.%.%.%.S.v.z.k.;.&.%.$X`.n.I.(.^.A.I.D.x.%.O O %.z.h.h.%.%...Z %.h.k.h.n.V.z.z.;.%.%.",
";.;.>.z.h.h.z.A.>.%.%., ( >.%.>.Y.[.Q.p.U %.%.;.;.z.z.h.h.S.V.z.OX(.z.V.^.).Q.I.I.D.3.z = %.h.k.h.;.;.X.C %.v.K.z.Z.V.z.l.;.*.*.",
"z.z.z.z.%.%.%.%.%.%.%., >.A.%.A.(.[.[.T $ %.h.z.z.z.z.h.%.$X+X[.I.V.z.%.A.Q.[.I.I.I.I.K F %.%.>.z.z.z.! . %.).+Xz.z.z.z.z.k.j.%.",
"I.v.z.z.; W @.; ; ; ; . o 3 %.%.W ; %.& O %.: ; 1 % ) %.%.R.I.I.[.U.%.%.A.I.I.I.z.*.%.F > ; %.*.` ; ; o . ; W ` ; ; ; ; %.h.h.%.",
"z.V.V.z.; : - o o $ - . X O c .. .B c X X G - - - B | %.%.z.Q.{.[.^.U.%.h.j.d.d.w...c # + o 7...H - & X . o = x & & - W %.h.h.3.",
"%.n.A.z.; o . z O - F z j O O B 8.8.O O O O D K K A O.%.%.3.^.@X X[.'.z.&.o.S K q.0.b = O z p.P F < - $ O O & z z . - ` %.z.z.h.",
"%.j.z.z.; o z l.*.%.%.z.>.%.*.*.%.%.%.%.%.%.%.z.Y.A =.%.%.I.I.I.$X|.R.[.z.=.i.I.I.I.I.3.;.z.z.z.h.%.%.%.%.%.1.z.l.z o ; %.A.A.&.",
"h.l.K.OX` x = z.h.>.%.;.3.h.h.h.;.&.%.%.%.%.3.V.R.g | ;.A.I.I.R. X).R.Q.d./ g I.I.D.V.j.j.z.z.z.z.h.h.h.h.h.h.4.;.& o ; %.>.>.%.",
"1.d.v./.W = = 3.k.&.W W ^ $.3.$.| W %.%.%.%.>.h.z.. c -.^.^.`.{.+XXX{.x.h.$.. R.I.D.z.V.l.@.@.@.$.>.$.@.@.@.&.1.%.- O ; %.%.%.%.",
"%.%.%.%.; o O %.h.@.; ; ; 3 %.3 ; ; %.%.%.%.%.%.%.. % #.[.[.+X$X$X$X$X%.h.=.. R.I.D.z.D.v.; ; ; 3 %.R ; ; ; W %.%.F - ; %.%.%.%.",
", Y C . . . $ %.h.@.; A I S A A A Y , , F %.%.%.%.. . . X Y I , Y m . , X X , [.^.A.%.8.Y , , > , , Z A A ; W 1.z.z . . , , L Y ",
"~ | X.! o . & %.h.@.c Y I S l m m m , , F 3.>.;.%.. - c ! r.b.m.P.s.: ( c x , B.S.A.%.8.Y , @ @ + @ M I M ; ^ d.h.& X o d.( ~ 7.",
"%.%.;.z.; & = %.h.@.R Y n @ X . . X # , H h.z.3.%.X / ;.z.h.Y.[.[.Y.%.;.%.) , $.f.k.;.8.Z # X X . X @ S S R $.h.%.O % 3 A.>.%.%.",
"%.%.;.z.; - F %.h.3.%., @ X , X @ > . # F %.h.3.%., ) ;.z.%.U.[.[.U.%.z.>.) , [.B.W z.p.C . , + X , X l A %.d.h.%.O c %.%.%.%.%.",
"%.3.h.z./ H F h.z.$.: , @ . X @ @ X . V 6.h.k.n.A., ) *.z.%.3.z.Q.A.h.z.*.O.Y #._ _ z.P k . X + @ X . m i.3 #.h.*.B ..%.A.>.%.%.",
"3.h.h.>.*.} ..k.z.@.; , @ . @ @ @ @ . C p.z.z.K.^., %.d.A.z.3.%.^.R.Z.z.;.| m 4 4 _ k.J # . + + @ @ X m i.z @.;.%.8. .W ~.Y.Z.%.",
"z.z.j.%.%.7.p.l.z.@.; , @ X , X @ , . C p.z.z.W.].S >.n.I.R.x.*.[.^.I.z.;./ . a 4 E z.J # . , X X , X m Y ; W %.%.8.B ; [.[.~.%.",
"%.%.%.%.; o z z.z.@.; , , # . . . . > Z p.z.z.W.[.A f.S.[.[.+X$XI.^.[.l.;./ . ; 5 7 7 U Y , . . . . # > , %.%.%.%.O c &.[.Q.A.%.",
"& O = F # + $ ;.j.l.v.Y Y Y C k # # Y S P l.k.S.Q.i.i.9.+.+.w.7.K e.F.p.v X . ; * 1 * q Q Y C C M # > , , %.%.%.%.& X O { 0.9.F ",
"O $ x K F $ $ 3.j.V.D.8.8.8.0.P H H p.P o.z.V.Y.Q.C Y Y F F - O K q.a.a.n j g ^ | @.R 0 0 Z p.p.6.F H F F %.%.%.%.O X $ O 5.5.D ",
"%.%.3.I.%.c b I.n.z.z.%.%.;.z.z.z.z.z.z.z.z./.[.[.. / *.%.%.*.%.I.I.I.I.x.u.Y R.^./.z.T ; ; z.z.j.%.h.3.%.%.%.%.%.O c %.%.%.%.%.",
"%.z.A.I.3 B 0.I.K.D.D.A.A.A.D.h.z.K.D.D.R.).].XX#X. / >.A.~.N.%.'.K.>.I.h.| g @XXX~.T 0 < ; E r ' h.z.3.%.%.;.3.%.D - 3 h.*.%.%.",
"x.K.I.I.; R -.I.I.I.I.(.Q.R.^.R.Q.^.^.^.^.^.XX+XOX. / j.^.U.z.%.U.l.*.I.f./ . +X+X}.B.r 0 w 4 w q ] >.*.%.%.j.V.z.J - ; z.;.%.%.",
"I.I.I.I.; t ,.I.I.R.I.[.^.Q.[.[.[.[.[.[.'.I.@X+X[.. / z.[.%.%.%.%.%.%.I.d./ . [.+X#X[.#.* 7 a 4 1 7 ' %.%.%.x.I.R.K j : l.;.%.%.",
"%.A.Q.[.I.-.; ; X . . > , , , Y m . . . g A g . . . =.S.[.[.U.%.%.%.%.I.3./ . . . . . C A A , q y ; 6   . . . g i.Y R ; l.z.S.[.",
"A.:.2.Q.I.j.W ; E $.=.; ; < ) $.| / / X j u.| / / / Y.T.#.#.@.%.3 3 3 W Y.Y.=./ / / / Y i.u.;.*._ y 1   <   c / w.=.| ) z.z.z.S.",
"I.' i z.A.z.) ; ` *.;.* 3 E ;.;.;.*.;.v n v.h.3.>.3.Y.H.3 % c / % % % T S.T.S.l.h.>.%. .9.S.v.h.*.f 1 1 6 1 ` >.$.*.%.%.h.z.z.z.",
"I.^ ; ; %.%.@.; y 4 ; 7 i *.z.z.z.z.z.p.a.I.I.I.I.I.W c %.. . . . . . [ 3 #.[.[.^.Z.%.F +.[.R.A.z.z.E ; ; 7 2.A.%.*.%.%.%.h.z.z.",
"I.n.-.; a 4 1 a 1 5 7 . c %.%.h.A.I.[.F.a.I.3.%.%.%.R % . . @ , , @ . . % #.[.$.U.^.%.F +.[.I.x.%.%.h.@.; a 4 W R.d.z.I.$XZ.;.z.",
"^.`.T.; a y t 8 t 2 5 m t.U.U.A.R.^.^.e.q.I.K.z.%.%.3 % . + @ @ @ @ @ . 3 #.U.%.l.V.%.- +.+Xz.3.3.U.Y.f.- 4 0 r 2.` j.I.+XN.*.;.",
"[.#X.X; a a 8 7 p 4 ; A P.[.[.Q.^.[.I.K K I._.U.%.%.3 % . > @ . . @ , . / %.%.%.%.%.%.& 7.$X%.%.z.[.[.m., ; 5 7 7 * -.I.[.l.%.*.",
"z.Z.K.~.C.<.1 7 9 5 ; S G.[.[.V.h.z.@XX.- 3.z.3.%.%.[ E . , @ . . @ , . - T %.%.Z.W.A.J o.(.~.E.R.[.[.J.Z ; w 8 7 8 d ,.#._. X/.",
"3.$.v.+XI.h./ 2.r w t - y.E.U.3.3.x.@XX.- %.V.z.%.U.$.c . @ + @ @ @ @ . % 3 %.%.z.K.R.q.e.^.^.R.A.U.U.t.l 5 w t 8 t y a ; T._.!.",
"z.;.V.oXA.j.;.Z.$.u p ; ^ 1.*.*.x.I.[.+.F &.W.R.l.[.#.% $ . X # # X . O % T 3.3.h.k.I.a.F./.D.N.j.*.&.E o 6 5 2 y 2 u s ; #.h.I.",
"z.z.h.%.%.%.%.%.A.2.7 ; ; R z.c.A.I.[.+.F %.A.^.[.[.#.3 %.. . . . . . %.3 ^ I.I.I.I.I.p.i.z.k.z.z.j.>.i 7 ; 4 y ; / *.%.; ; ^ I.",
"z.z.h.h.%.%.%.%.>.` 1 6 1 2 s <.h.V.S.9.Y *.>.h.z.S.T.H.3 % % % E c % 3 H.U.f.>.h.h.v.n v ;.;.;.;.;.Q 3 * ;.*._ ; / j.V.v.r ' I.",
"W.N.z.z.W | 7.7.G = X   < 5 t u ] o.r.i.Z c G c c ! M.S.-.W W W [ f.M.M.Y.S.c c b G r.h X c c { X.H < - - ! ! : ; T j.I.(.c.4.k.",
"[.S.z.z.; B A A g X . .   6 ; y e > A A C . . . . . / >.I.%.%.%.%.U.[.[.S.=.. . . g i.g . . . m Y , , , , . . . ; ; y.I.[.Q.A.%.",
"%.%.;.z.; - K I.I.z.%.%.%.] 7 1 4 a 7 1 #.[.#X+X[.. / >.I.%.%.%.%.%.%.[.z./ . [.+X@XI.'.[.[.[.[.[.[.Q.^.[.I.I.I.I.,.t ; I.I.I.I.",
"%.%.;.l.; - K z.V.h.%.%.&.>.] e 2 4 5 5 r M.{.+X+X. / >.I.%.z.U.3.z.U.^.j./ . OX+X.X^.^.^.^.^.Q.R.^.Q.Q.^.I.I.I.I.-.R ; I.I.D.x.",
"%.%.*.j.: - < %.h.;.%.%.3.z.j.] r E ; 1 0 R ~..X@Xg | h.R.d.U._.z.V.^.S.;./ . #XoX]./.Y.D.K.D.k.h.D.A.A.A.D.D.D.I.0.B : I.A.x.%.",
"%.%.%.$.*.c $ %.%.%.%.%.3.j.%.h.z.z.; 3 R l./.^.I.A u.n.R.I.I.I.>.%.%.%.%./ . [.[./.z.z.k.z.z.z.z.z.;.%.%.z.z.N.I.b c %.I.>.%.%.",
"F 5.T l O X + %.%.%.%.F < H , q.8.p.Z q 0 R @.@.^ g j n a.a.+.K x - F < 5.Z C Q.R.V.z.o.P p.J F P 0.8.8.8.D.V.h.3.= $ F K = O $ ",
"H y.s.g.c O O %.%.%.%., , > @ l m m I H E 5 5 * ; . x { r.P.b.d.L.L.m.m.u.p.A (.U.z.z...N I @ @ @ m V I I -.h.k.3.$ o - K G c c ",
"*.A.!.[.*.c O %.%.%.%., , # . . . . , Y ..7 7 5 ; . W ;.z.[.^.I.@X@X[.[.S.b.i.[.E.z.z.p.Z , . . . . # , , ; @.z.z.$ o ; %.%.%.%.",
"%.~.[.[.; B 8.%.[ W v Y m X D X @ > . # H z.R 4 a . / *.z.I.^.[.z.x.I.I.x.>., [.W.z.z.p.C . , @ X , X @ , ; @.z.z.p.7.%.%.h.z.z.",
"*.h.V.Q.^ ..8.%.f.@.c Y m . X @ @ X . # H z._ 4 1 C O.;.z.x.K.Q.h.*.>.n.3.) , Q.D.z.z.p.C . X @ # X . @ > ; @.z.z.P ~ %.h.z.h.*.",
"%.%.>.A.%. .T *.j.$.3 A m . X @ @ X . k P k.u _ #.Y =.;.z.h.Z.Q.V.3.%.z.;.) , m.v.z.h.6.V . X @ @ X . @ , 3 $.z.h.F < [ z.h.3.%.",
"%.%.%.%.%.c l $.h.;.*.A m X , X @ , . C p.l.R M.[., ) ;.z.%.U.[.[.U.%.z.;.) , %.3.h.%.F # . , + X , X @ , %.3.h.%.F - ; z.;.%.%.",
"%.&.>.A.3 & O %.h.#.1 S S @ X . . X # Z 8.;.l.f.#., ) %.&.%.Y.[.[.E.j.z.;./ X %.3.h.h.F , # X . . X @ L Z 3 $.h.%.= O ; z.;.%.%.",
"7.J ( d.& X & 3.d.@.; I L L @ @ @ @ , Y 8.%.A.D.M., D G ( c r.P.m.b.r.{ c - . %.;.3.f.F , , m m m m k I A ; @.h.%.O X % ! X.} ~ ",
"Y L , , . . z z.;.W R Y A Y , , , , , Z 8.%.A.!.[., X X , . m Y S I A . . . . *.%.%.%.F , , Y A Y Y k N A 3 @.h.%.O . . . C Y , ",
"*.*.%.%.; - F %.%.W % ; ; : %.R ; ; ; v.D.c.D.I.I.. &.h.%.$X$X$X$X+X[.[.#.% . *.%.%.%.%.%.%.c ; R y.3 3 ; ; @.h.%.O o ; %.%.%.%.",
"%.*.%.%.; & $ %.h.1.-.-.;.f.h.;.;.1.;.z.z.z.D.R.I.. / 3.A.(.].XX`.!.Q.E.;.E . Z.z.3.%.%.%.%.` &.-.h.;.&.` / ;.z.h.z c ` XXS.h.h.",
"%.;.>.%.; X $ *.h.h.h.h.h.h.h.k.z.z.l.h.h.V.D.I.I.g | h.Q.I.(.XX!.I.I.A.>./ g I.A.3.%.%.%.%.%.;.j.j.h.d.&.%.;.h.z.z - ) OXU.z.h.",
"%.A.A.%.; o z z.z.3.%.%.%.%.%.h.z.z.z.&.>.I.R.I.I.A =.z.[.R.{.$X(.I.I.%.%.=.Y I.z.*.%.%.%.%.%.%.%.%.%.1.z.%.%.&.z.z o ; l.z.h.%.",
"z.z.j.%.%.c . . . . . . . X , , I i.. . . X C I , , ( %.%.[.[.[.#X(.%.%.%.=.Y S , # . . . . A A C . . . . , + . . . o ; h.D.S.%.",
";.k.j.%.W : o o = = & . X o - H } 7.& @ + c ..e.>.d.j.j.%.U.^.[.{.Q.z.%.%.$.B x - - c X X c B  ...c = X . - = o o = : ; z.V.V.z.",
"%.h.j.;.R R R E l.-.3 . % T T $.*.%.3 , F h.>.m.I.Q.R.A.%.;.K.'.!.!.(.*.&.=.T E T ^ %.O = z.#.-.;.%.^ - X 3 3 c 3 @./ 3 z.z.x.D.",
"%.h.z.z.z.z.z.z.+X).%.. ! z.z.z.f.%.%.< K I.I.I.I.[.Q.A.%.z.A.K.'.+X$X%.h.z.z.z.j.h.%.+ T [.[.^.A.%.A.>., %.%.%.%.%.%.%.z.z.z.z.",
"%.&.;.z.z.V.Z.z.K.v.%.V X.;.;.h.h.h.%.$ x >.D.I.I.Q.(.^.A.z.(.@XY.V.S.h.k.z.z.*.>.>.%.U p.Q.[.Y.3.%.>.( , %.%.;.Z.z.h.h.z.>.;.*.",
"%.%.;.z.n.V.V.h.h.3.%.Y X.%.%.3.k.z.%.O $ %.x.D.I.A.^.(.I.N.`.#XV.%.;.z.l.z.S.%.%.%.%.Y 9.A.~.Z.%.%.%.J S %.%.>.A.z.j.h.h.*.%.%.",
"%.%.;.z.I.z.%.%.h.3.%., ~ %.%.%.>.z.%.O O %.%.z.I.%.A.I.I.I.^.[.z.3.z.z.z.S.[.%.%.%.%.F F &.%.%.%.%.*.7.i.%.%.%.%.h.3.%.%.%.%.%."
};
