/* XPM */
static char *_32b694e752d429ea05c7c91a32dae08OVjBETzPkXoigUGf[] = {
/* columns rows colors chars-per-pixel */
"64 64 140 2 ",
"   c #222034",
".  c #242034",
"X  c #2B2636",
"o  c #2A2836",
"O  c #2E2937",
"+  c #2C2B36",
"@  c #2D2738",
"#  c #2F2D3B",
"$  c #2E2B3E",
"%  c #362C39",
"&  c #322C3F",
"*  c #352F3F",
"=  c #3A2A3B",
"-  c #31303E",
";  c #35303F",
":  c #36343F",
">  c #383D3E",
",  c #432C3D",
"<  c #40353D",
"1  c #3B2E41",
"2  c #3D3B43",
"3  c #3F3D46",
"4  c #3E3A4C",
"5  c #433342",
"6  c #4A3341",
"7  c #4A3544",
"8  c #453840",
"9  c #4F3F47",
"0  c #443949",
"q  c #403C49",
"w  c #4E3F4C",
"e  c #434345",
"r  c #444146",
"t  c #454945",
"y  c #424049",
"u  c #454148",
"i  c #474548",
"p  c #45454F",
"a  c #44494A",
"s  c #4B484A",
"d  c #4F494B",
"f  c #4A484E",
"g  c #4E4B4C",
"h  c #514449",
"j  c #50434C",
"k  c #50424E",
"l  c #50454F",
"z  c #544A4C",
"x  c #514D4C",
"c  c #514E4D",
"v  c #554D4D",
"b  c #484752",
"n  c #494753",
"m  c #494952",
"M  c #4D4853",
"N  c #4B4F50",
"B  c #4B4954",
"V  c #4D4A56",
"C  c #4E4E55",
"Z  c #4F4C59",
"A  c #514752",
"S  c #554650",
"D  c #514F52",
"F  c #534E55",
"G  c #584F52",
"H  c #504E59",
"J  c #534F5D",
"K  c #555250",
"L  c #565554",
"P  c #575455",
"I  c #595652",
"U  c #5A5753",
"Y  c #5D5457",
"T  c #5B5855",
"R  c #5C5956",
"E  c #57575C",
"W  c #5C505A",
"Q  c #56585B",
"!  c #57585D",
"~  c #5D5B58",
"^  c #5E5C59",
"/  c #5F5D5B",
"(  c #5A5A5E",
")  c #5F595C",
"_  c #5A5D5D",
"`  c #5B5E5D",
"'  c #5F5E5C",
"]  c #605E5C",
"[  c #61605E",
"{  c #63605F",
"}  c #555463",
"|  c #5F5860",
" . c #645361",
".. c #5B6465",
"X. c #5C696B",
"o. c #5E6675",
"O. c #636261",
"+. c #646362",
"@. c #656164",
"#. c #656564",
"$. c #666665",
"%. c #676767",
"&. c #64616B",
"*. c #67646C",
"=. c #6B6768",
"-. c #6F656E",
";. c #686868",
":. c #696A6A",
">. c #6A6B6B",
",. c #69696C",
"<. c #6C6C6D",
"1. c #6E6D6F",
"2. c #6C6E6E",
"3. c #676877",
"4. c #6F6F71",
"5. c #6B6978",
"6. c #726B72",
"7. c #706F71",
"8. c #6B7078",
"9. c #69727F",
"0. c #737174",
"q. c #707274",
"w. c #767177",
"e. c #727678",
"r. c #78757A",
"t. c #79767C",
"y. c #757A7D",
"u. c #7D797F",
"i. c #727A81",
"p. c #737D87",
"a. c #7E7980",
"s. c #7A7F83",
"d. c #807B83",
"f. c #847E87",
"g. c #7F8288",
"h. c #7A8690",
"j. c #85808A",
"k. c #818B8F",
"l. c #898993",
"z. c #8E9CA3",
/* pixels */
"r [ :.:.C s I I s J E b b g Q Z r [ :.:.C g K I j Q V b p N ( Z y ..,.:.C s I I s ! J m p N Q Z r [ >.:.C s I I s J E p p N Q H ",
"I [ :.:.:.l 6 > V f.t.:.*.:.2.g.I [ :.:.:.l 6 > V f.y. .+.:.1.g.I [ %.,.:.V 6 > Z d.r.:.:.*.3.g.U [ :.:.:.b 7 > V a.y.[  .>.2.h.",
"z P E E E S v I =.:.:.:.:.>.,.p.A P E ! Q w @     ) :.~ ] +.>.p.z I W E Q l v I :.:.:.:.:.:.,.p.M K Q Q Z k +     Q ;.~ / O.>.h.",
" .| J J 1 9 I I ~ :.:.:.>.q.Z p  .| Z ! # + a 3 # # +.+.R :.H p ]  .J J = j I I R :.:.:.:.0.Z m  .| E Q 1 + a 2 & 1 #.[ ~ ;.B a ",
"f.d.:.:.r.j K $.O.U :.:.4.4 ] :.j.a.>.:.e.1 B F 1 K : f 7.4 R >.f.u.:.:.r.j K $.^ ^ *.:.q.3 / >.d.d.:.:.r.# p H = K : p 6.4 ] =.",
"d.4.:.:.:.&.y T ~ U U @.B x :.:.a.4.>.>.:.&.$ + > 1 . & j x :.:.a.4.:.:.:.*.q I ~ I ^ O.j c >.:.d.7.:.:.:.&.1 @ : :   1 B c :.:.",
"1.:.:.:.:.1.&.m F P s u + r ~ =.,.,.:.:.%.,.*.4 q % + . @ r ~ :.4.,.:.:.:.4.=.B F I s q + q ^ ;.4.>.>.:.:.>.&.3 0 % +   + e ] %.",
"O.:.:.:.:.:.:.l.5.1 A } o.o.r ] O.:.:.:.,.,.:.l.3.< A } o.o.r ] O.:.:.:.:.:.,.l.5.< A E o.3.r ^  .>.:.:.:.:.>.l.5.< l } o.3.q ~ ",
"~ :.:.:.:.>.>.l.3.U a.j.j.y.i.a ~ :.:.:.:.:.,.l.o.U u.j.j.y.9.g ~ :.:.:.:.:.:.l.o.! a.j.j.y.9.g ~ ,.:.:.:.:.:.l.3.I u.j.j.y.9.x ",
"I [ :.:.:.>.>.l.o.' a.r.:.:.e.X.I [ :.:.:.:.=.l.o.+.a.r.:.:.e.X.I ] :.:.:.:.:.l.o./ a.r.:.:.e.X.I ] :.:.:.:.:.l.o.O.d.r.:.:.e.X.",
"I U :.:.:.:.>.l.5.~ 2.:.:.>.;.z.I R :.:.:.:.:.l.5.^ >.>.:.:.:.z.I R :.:.:.:.,.l.5./ 4.:.:.:.:.z.I R :.:.:.:.:.l.5.^ >.:.:.:.:.z.",
"~ [ ;.:.:.:. ., h ~ >.>.:.;.>.r.~ [ $.:.:.:.) 8 h R :.:.:.:.:.r.^ ] $.:.:.:.| 6 l U :.:.:.:.:.r.~ [ %.:.:.:.| 6 j R :.:.:.:.:.r.",
"~ #.U #.>.E q U ~ ^ :.:.:.:.:.:.T #.T +.:.! 3 I ^ ~ :.:.:.:.:.:.~ $.U $.:.E 2 U R ^ :.:.:.:.:.:.~ +.T +.:.Q 3 U ^ R ,.,.:.:.:.:.",
"g.U U U R i K U O.U ] :.:.:.:.:.g.T I R ) i K R O.I [ %.:.:.:.:.s.~ I R ) i K ~ [ U [ $.:.:.:.:.g.R I T ^ i K I [ T [ %.:.:.:.:.",
"W t 2 2 = P I I ~ I U ] :.:.:.q.W t 2 2 , G I I T I I [ >.:.>.q.W t 2 2 , K U U ^ I I [ :.:.:.0.E t 2 2 , K I I ^ I U ] ,.=.:.q.",
"7 ` Q Q 1 %.T I I I / / :.:.:.a.2 _ | _ 1 O.R I U s C K Q _ _ w.7 _ E E 1 #.U U I I ] ] :.:.:.a.5 _ | _ : +.I I I g C C E ] ] q.",
"y [ :.:.C s I I a E J m p N Q B e / %.,.C s I I s J J m p N ! Z q ] :.:.V s I K i E E b p g Q V r [ :.:.C h U I s Q ( b p g ! H ",
"U [ :.*.:.l 6 > V f.r.| O.:.4.i.I O.*.%.:.M 6 > V f.t.:.:.:.3.g.I ] :.:.:.B 8 2 B f.r.' +.:.1.p.I [ :.:.:.j 6 2 V a.r.>.&.:.2.h.",
"x P E E E w X   . ) >.R ^ $.=.5.g P ! E Q l v I :.:.:.:.:.:.:.p.z U E E E w X     | ;.~ ~ ;.:.5.l P ! Q Q l g I :.%.,.:.>.>.,.p.",
"]  .E J $ + a 2 # & +.] ^ :.Z B  . .Q E 1 j I I ^ :.:.:.:.0.Z b  .] J J $ + a 2 # # ;.' T :.V M  .| J Q 1 h I I ~ ,.,.:.:.q.Z p ",
"f.s.:.:.r.1 m H = I : f 6.q ] 7.j.a.:.:.r.A I %./ ~ *.>.4.3 ^ >.f.d.,.:.r.# m C = K 1 p 7.q ] 7.f.a.:.:.r.j K :.[ U ;.2.7.4 ] :.",
"d.2.:.:.:. .1 o < : . * j x :.4.a.7.:.:.:. .r R ~ I T O.l c >.>.d.7.:.:.>.&.1 + 5 2   1 j x ,.7.d.q.:.:.1. .y T ~ I [  .M x :.:.",
"4.,.:.:.,.>.X.4 q = X . + r ] :.7.,.:.:.>.:.*.p P P x r + e ^ ;.7.:.:.:.:.:.%.4 7 *     + e ^ :.>.:.:.:.>.1.%.m K P j e X e ] $.",
"O.,.:.:.:.;.,.l.5.: A } o.o.r ^ +.:.:.:.:.,.:.l.5.= A } o.o.e ^  .:.:.:.:.,.=.l.3.> B } o.o.e ^ +.:.:.:.,.,.,.l.5.: m Q o.5.q ] ",
"^ :.:.:.:.:.:.l.o.U a.j.g.y.9.x ^ :.:.:.:.:.:.l.o.! a.j.j.y.9.g ~ :.:.:.:.:.:.l.o.P a.j.j.y.9.K ^ ,.:.:.:.:.,.l.3.P a.j.g.y.i.f ",
"I / :.:.:.:.:.l.o.O.a.r.:.:.e...I [ :.:.:.:.:.l.o.[ a.r.:.:.e.X.U ] :.:.:.:.:.l.3.] a.t.:.:.e...I / :.:.:.:.:.l.3.^ a.r.>.>.e.X.",
"I R :.:.:.:.:.l.5.~ 4.:.:.:.:.k.I R :.:.:.:.$.l.5./ 1.:.:.:.:.z.U ~ =.:.>.>.:.l.5./ >.:.:.:.:.k.I T :.:.:.:.=.l.5.^ >.:.,.%.:.z.",
"^ [ $.:.*.=.] 7 h ~ :.:.:.:.:.7.~ [ $.:.:.:.| 7 h ^ :.:.:.:.:.r.~ O.$.:.=.>.] : h ^ ,.:.:.:.:.1.^ [ $.:.:.:.) 7 h T >.:.:.:.:.r.",
"~ $.R $.:.! q U ~ ~ ,.:.:.:.:.$.~ #.U $.=.! 3 U T ^ :.:.:.:.:.:.^ $.R $.>.E q I T ^ :.:.:.:.:.#.^ +.T $.>.! 3 U ~ ^ >.>.:.:.:.:.",
"s.~ I I ) i K I / R ] :.:.:.%.q.g.~ I R ) i K T [ I ' ;.:.:.:.:.s.R I I ] u K R [ T ..$.:.,.$.q.g.T I T T i K I [ U [ ;.:.:.:.:.",
"W t 2 2 , G I I ~ I I [ :.:.:.q.G t 2 2 , K P I ^ I I O.:.:.:.0.W t 2 2 , K I I ^ I I [ :.:.:.4.W t 2 2 , G I I ~ U U [ :.>.:.8.",
"7 _ E E * $.R I I I / / :.:.:.-.7 _ E E 1 $.T U I I / / :.:.:.a.7 _ ! ( = %.R I I I ^ [ :.:.:.-.7 _ Q Q : ;.T I I I ^ ~ :.>.:.a.",
"q ] :.>.C s I I j J E b p g E H q ] :.:.V h I I p J P m p N E } e ] ,.,.C s I I s E J B p N ! Z e [ :.:.C s I I s J J p p N ! Z ",
"U ] :.>.:.A 6 > B f.r.:.,.:.4.h.U ] :.:.:.b 6 > V f.r.[ O.:.,.g.I [ ,.%.:.B , > V f.r.:.:.*.3.g.I [ :.:.:.b 6 > V d.y.[ O.:.q.g.",
"z U E E Q k v I :.:.:.:.:.:.:.p.z I Q Q Q k X     ( *.~ / $.:.p.z P ! E P k K T :.:.:.:.:.:.:.p.k P Q Q Z j X . . ! :.~ / @.,.p.",
" .] J J * j I I ~ :.:.:.:.q.V p  . .J J $ + a 3 # - $.[ R :.V p  . .E Z 1 h U I R :.:.:.:.q.Z b  .| E ! 1 + a 2 # 1 #.] ~ :.Z a ",
"f.a.>.>.r.j K =./ T *.>.4.q ] :.j.a.>.>.r.& m G = c 1 p 7.q ] :.f.a.:.:.r.j K $.^ ^ *.:.q.3 / >.f.a.:.:.r.$ p C = K : p 6.4 ] %.",
"d.6.>.=.,.*.q U ^ P ^ #.l g :.:.a.4.>.>.*.*.$ X 8 2   & A g :.:.a.4.:.:.>.*.u U ^ I ^ O.j c >.,.a.4.:.:.:.&.1 + < :   1 B c :.:.",
"7.:.=.:.:.>.*.V G U s e + e [ ;.4.:.:.:.:.>.=.q q % +   o e / %.4.,.:.:.%.4.*.B P I s e + q ~ %.4.:.:.:.:.>.*.4 0 % X   + e ] %.",
"+.:.:.:.:.:.%.l.3.: A } o.o.e ^ O.:.:.:.:.:.:.l.5.: M } o.o.e ~ O.,.:.:.:.:.:.l.5.= A } o.3.e ~ O.,.:.:.:.:.,.l.3.< M E o.3.q ] ",
"~ =.:.:.:.:.:.l.o.U a.f.j.i.9.g ~ :.:.:.:.:.:.l.o.Y a.j.j.y.i.s ^ :.:.:.:.:.:.l.o.E a.j.j.y.i.f ^ ,.:.:.:.:.,.l.o.Y u.j.j.r.9.g ",
"U / :.:.:.:.:.l.o.[ d.t.:.:.r.X.U ^ :.:.:.:.:.l.o.[ a.t.:.:.e.X.I / :.:.:.:.:.l.o.] d.r.:.:.q.X.I ] :.:.:.:.:.l.o.O.d.r.:.:.e.X.",
"U ~ ,.:.:.:.:.l.5.^ 1.:.:.:.:.z.U T >.:.:.:.:.l.5.^ 1.:.:.:.:.z.I T :.:.:.:.:.l.5.] 1.:.:.:.:.z.I R :.:.:.:.%.l.5.] :.:.:.:.>.z.",
"~ / :.$.:.:.| 6 h T :.:.:.:.:.r.~ ' ;.:.:.:.) 7 h T :.:.:.:.:.r.^ [ $.:.:.:.) 7 h U :.:.:.:.:.r.^ [ %.:.:.:.) 7 j R :.:.:.>.>.r.",
"~ $.U $.:.! 3 I ^ T >.:.:.:.:.:.R #.U +.:.! 3 I ^ R :.:.:.:.:.:.^ $.T $.:.Q q I ~ ~ :.:.:.:.:.:.R #.T O.:.Q 3 U ~ ~ :.:.:.:.:.:.",
"s.~ U I _ i K T [ I [ :.:.:.:.:.g.^ U R ~ u K R [ I [ :.:.:.:.>.s.~ I T ) i K R [ U [ %.:.:.:.:.g.R I T ~ a K U [ T ] :.:.:.:.:.",
"W i 2 2 , K I I ^ I U [ :.:.:.0.P t 3 2 , K I I ^ I I [ :.:.>.q.W t 2 2 , G I I ~ I I [ :.:.:.0.! t 2 2 , K I I ~ I I ] :.,.:.q.",
"6 _ E Q * :.T I I I ^ / :.:.:.a.5 _ } _ 1 O.R I I s C F Q _ _ e.7 _ E E * $.U U I I ] ] :.:.:.a.5 _ | _ 1 +.U I I g C C E ] ^ q.",
"r [ :.:.B s U I s E J p p N E B r ] ,.:.C g I I s J J p p C Q Z r ] :.:.V g I K f E E b p g Q V r [ :.:.C h P I s E ! b p N E Z ",
"I [ :.:.:.p 6 > B f.y.O.O.:.:.i.I ] :.:.:.A 6 > V f.t.,.:.:.1.g.I ] :.:.:.V < 2 b f.r.' O.:.1.p.I [ :.:.>.h 7 > Z a.r.>.,.%.1.h.",
"l P ! Q E w X     | %.^ ] $.>.8.A P E E Q S v I >.:.:.:.:.:.:.p.z I E E Q w X     | ;.~ ^ $.:.5.M I Q Q ! l g I =.:.:.,.>.:.,.p.",
" .| J Q 1 + a 2 $ # #./ ~ :.Z B  .| H Q 1 9 I I R :.:.:.:.0.H p  .] J J $ @ a 2 # # ;.' T ,.V M ]  .J Q 1 h I I ~ ,.:.%.:.q.Z p ",
"f.a.:.:.r.$ p C = K : f 6.4 ] 7.j.a.>.:.r.l K $.] ~ =.=.6.4 ] :.f.d.,.:.r.& m F = K 1 p 4.q ] 7.f.d.:.:.r.k I $.[ U ;.>.6.4 ] :.",
"d.q.:.:.:. .1 + < : . & j x ,.7.u.4.>.:.:.&.q ~ ~ I ] +.j v :.:.d.7.:.:.>.&.* + 5 2   # k c :.7.d.4.:.:.>. .y T R I ] +.M x :.:.",
"4.:.:.:.:.1.,.4 0 % X   + s ~ :.4.;.:.:.:.:.*.p F I x q + r R :.7.:.:.:.:.:.*.4 7 = o   + e ^ :.-.:.:.:.>.4.*.b K P j q + e ] ;.",
"O.:.:.:.,.,.,.l.3.< M } o.o.r ] +.:.:.:.:.>.:.l.5.: A } o.o.r ^  .:.:.:.:.,.%.l.3.> V } o.o.e ^ O.:.:.:.,.,.:.l.5.1 b Q o.5.q ^ ",
"~ :.:.:.:.:.=.l.3.P u.f.f.y.i.g ~ :.:.:.:.:.:.l.o.U a.j.g.y.i.g ~ :.:.:.:.:.:.k.o.I u.f.j.y.9.K ~ :.:.:.:.>.>.l.3.P u.j.g.y.i.f ",
"I [ :.:.:.,.,.l.o.] d.r.>.,.e...I O.:.:.:.:.:.l.o.O.a.y.%.=.q.X.U ] :.:.:.:.>.l.3.[ a.r.:.:.e...I [ :.:.:.>.>.l.3.[ u.r.>.>.e.X.",
"I R $.:.:.:.,.l.5.] >.:.:.:.=.h.U T :.,.:.:.:.l.5.~ ,.,.,.:.:.z.I [ :.:.1.:.;.l.5.^ >.:.:.:.:.k.I R :.:.:.:.:.l.5.^ >.:.:.:.:.z.",
"~ [ :.:.:.:.~ 6 j ~ >.:.:.:.,.4.^ ' $.=.:.:.| 8 h ) :.:.:.,.:.r.~  .$.:.:.,.] < d ~ :.:.:.:.:.4.~ [ $.:.:.:. ., h T :.:.:.:.;.r.",
"~ +.T +.:.Q q I ~ ~ :.:.:.:.:.$.R +.U $.:.! 3 I R ~ :.:.:.:.:.:.~ $.T $.:.Q 3 I ~ ~ :.:.:.:.%.$.~ #.U $.:.E q U ~ ^ :.:.:.:.:.:.",
"j.T I T / s K I [ I [ $.:.:.:.q.g.~ U U ~ i K R [ R [ %.:.:.:.:.s.~ I I R s K T ' R ..$.:.:.:.0.g.U U U R i K U [ T ] :.:.:.:.:.",
"W t 2 2 = I I I ~ I U O.:.:.:.1.W t 2 2 , G I I ^ I I [ :.:.:.q.W t 2 2 , K I I ~ I U  .:.:.:.7.W t 2 2 , P I I ~ I U [ :.:.:.e.",
"7 ` Q ! 1 %.U I I I / / :.:.:.-.7 _ E E 1 $.R I I U ^ ] :.:.:.a.7 _ E Q 1 ;.T I I I [ ] :.:.:.>.7 ` Q Q & :.T I I I / ~ :.:.%.u."
};
