/* XPM */
static char *_5bee2b101eb4583bec5b82f2f5eaaedMyeG0ATOMXlt0kLN[] = {
/* columns rows colors chars-per-pixel */
"64 64 192 2 ",
"   c #222034",
".  c #242334",
"X  c #262735",
"o  c #2A2236",
"O  c #2A2E36",
"+  c #2D2639",
"@  c #2A293A",
"#  c #2F2D3B",
"$  c #332438",
"%  c #3C263A",
"&  c #302F3E",
"*  c #382939",
"=  c #3F293B",
"-  c #2E3537",
";  c #363739",
":  c #36343F",
">  c #3B323A",
",  c #3F323C",
"<  c #323C39",
"1  c #402D3B",
"2  c #45283C",
"3  c #3B423F",
"4  c #333241",
"5  c #343241",
"6  c #3B3540",
"7  c #383646",
"8  c #3C3544",
"9  c #3D3B43",
"0  c #383944",
"q  c #3D3847",
"w  c #3A3748",
"e  c #3C3B48",
"r  c #4A3341",
"t  c #413943",
"y  c #453A42",
"u  c #403B44",
"i  c #413C44",
"p  c #463D45",
"a  c #4E3847",
"s  c #4F3F47",
"d  c #41394A",
"f  c #443848",
"g  c #473D4E",
"h  c #4E3C4D",
"j  c #543D4E",
"k  c #553D4F",
"l  c #424143",
"z  c #434345",
"x  c #474645",
"c  c #4A4446",
"v  c #4A4547",
"b  c #444845",
"n  c #454945",
"m  c #47414A",
"M  c #44434A",
"N  c #424649",
"B  c #474649",
"V  c #47474B",
"C  c #40454C",
"Z  c #47444D",
"A  c #45454F",
"S  c #4A424B",
"D  c #4C4049",
"F  c #464C4C",
"G  c #4B484A",
"H  c #4D494B",
"J  c #4C4A4A",
"K  c #4C4E4B",
"L  c #4F4F4B",
"P  c #4A4E4C",
"I  c #53474C",
"U  c #524B4C",
"Y  c #544A4C",
"T  c #51514D",
"R  c #51514F",
"E  c #404354",
"W  c #494952",
"Q  c #4D4853",
"!  c #564051",
"~  c #504354",
"^  c #574354",
"/  c #524852",
"(  c #574953",
")  c #544D50",
"_  c #5A4B56",
"`  c #584E56",
"'  c #504E59",
"]  c #544D5A",
"[  c #534F5D",
"{  c #5A495A",
"}  c #5C4F5C",
"|  c #4D5351",
" . c #4A5555",
".. c #515053",
"X. c #545451",
"o. c #535354",
"O. c #555154",
"+. c #595652",
"@. c #5A5753",
"#. c #5A5255",
"$. c #5A5355",
"%. c #595857",
"&. c #51575A",
"*. c #565458",
"=. c #55525E",
"-. c #57575C",
";. c #5A535C",
":. c #555858",
">. c #585A59",
",. c #5D5B58",
"<. c #5F5D5B",
"1. c #59595F",
"2. c #5B5E5D",
"3. c #585E5E",
"4. c #60595E",
"5. c #605E5C",
"6. c #625E5E",
"7. c #61605E",
"8. c #64605F",
"9. c #5A5764",
"0. c #565C63",
"q. c #575864",
"w. c #5E5B62",
"e. c #5B5D60",
"r. c #5D5D62",
"t. c #5E5E65",
"y. c #605260",
"u. c #645361",
"i. c #625561",
"p. c #605C65",
"a. c #6A5E6D",
"s. c #5D6266",
"d. c #5E6675",
"f. c #636261",
"g. c #656261",
"h. c #606066",
"j. c #656564",
"k. c #666564",
"l. c #676767",
"z. c #6A6667",
"x. c #636268",
"c. c #676369",
"v. c #62646B",
"b. c #676669",
"n. c #65616E",
"m. c #6A6069",
"M. c #6B6768",
"N. c #6D646E",
"B. c #696A6A",
"V. c #6A6B6B",
"C. c #6A686E",
"Z. c #6E6A6C",
"A. c #6C6C6D",
"S. c #6F6C6E",
"D. c #6E6D6F",
"F. c #636E72",
"G. c #6F6F71",
"H. c #6F6D73",
"J. c #716B73",
"K. c #726F72",
"L. c #746874",
"P. c #706A79",
"I. c #667478",
"U. c #6E717A",
"Y. c #717174",
"T. c #737174",
"R. c #757175",
"E. c #767478",
"W. c #797479",
"Q. c #78717D",
"!. c #79767C",
"~. c #7C777E",
"^. c #757A7D",
"/. c #7D797F",
"(. c #7D7C82",
"). c #7C7F84",
"_. c #847E87",
"`. c #7A8184",
"'. c #7B8386",
"]. c #7F858A",
"[. c #818188",
"{. c #828B90",
"}. c #858A91",
"|. c #898993",
" X c #858B98",
".X c #88939A",
"XX c #8A939A",
"oX c #8A979D",
"OX c #8F959F",
"+X c #8E9CA3",
"@X c #95A1AB",
"#X c #9BADB7",
/* pixels */
"_.Z.+.  -.^.#X_._._._._./.B.  A ^.#X|._._._._.T.< < O   < < 3 6._.Z.+.  :.^.#X_._._._._./.B.  A ^.#X|._._._._.H.< < -   < < 3 R ",
"E.K.Z.$ U.{.{.E.E.E.E.E.E.E.$ 9.{.{./.E.E.E.T.g.b b > $ e.P K j.E.T.Z.$ U.{.{.E.E.E.E.E.E.E.$ 9.{.{./.E.E.E.T.g.b b 1 $ 1.L | 7.",
"B.E._.2  X+XB.B.B.B.B.B.H._.2 P.+XB.B.B.B.B.7.X.@.$.s 2 _.f.,.B.B.E._.2  X+XB.B.B.B.B.B.H._.2 P.+XB.B.B.B.B.7.:.+.+.S 2 [.7.,.l.",
"B.7.+.< H./.B.B.B.B.B.,.+.+.2 u./.B.B.B.B.B.B.B.B.,.n < _.G.B.B.B.6.+.< L.(.B.B.B.B.B.,.+.+.2 u./.B.B.B.B.B.B.B.B.,.n < _.Y.B.B.",
",.7.j.X r.T./.B.f.,.,.+.T 3 o Q T.(./.R.B.B.f.,.,.j.M X T.!.T.,.,.7.j.X e.T.(.B.g.,.,.+.T 3 o Q T././.T.B.B.g.,.,.f.M X K.W.R.,.",
"L o.-.  W w.L.-.) J T U v -   e e.L.H.s.-.:...J U :.8   :.N.m.J T ..-.  W r.L.-.| J L U v -   q r.H.K.s.:.;.Y L U -.9   %.N.a.J ",
"< O       o 2     X < 1 %       X < < O       o 2 o       % % . < O       o 2     . < = =       X < < O       o 2 o       % %   ",
"B.{.#X_._./.B.  O 3 +.+.+.+.+.+.+.+.+.7.B.  A ^.#X|._._._.T.-.: B.{.#X_._./.B.  - 3 @.+.+.+.+.+.+.+.+.7.B.  E ^.#X|._._._.T.:.  ",
"{.{.{.E.R.K.B.$ 9 s.`.T.Z.Z.Z.Z.M.f.M.Z.B.O q.{.{./.E.E.E.E.x.C {.{.{.E.E.T.B.$ i 2.`.T.Z.Z.Z.Z.Z.6.Z.B.B.O 0.{.{./.E.E.E.E.v.O ",
"@X[.B.B.B.B.k.1 ;.`.+X[././.W.W.T.B.W.E.H.< F.XXB.B.B.B.B.T.B. .@X].B.B.B.b.x.= ;.'.+X]././.W.W.T.B.W.E.G.< F.XXB.B.B.B.B.T.M.< ",
"[.W.B.B.B.j.+.< I.+XB.B.B.B.+.+.,.B.B.E._.< 2./.B.B.B.B.B.,.L F _.E.B.B.B.j.+.< I.OXB.B.B.B.+.+.,.B.B.E._.< 5.(.B.B.B.B.B.,.| < ",
"[.E.B.B.B.j.+.< s.'.B.B.j.,.W.Z.j.B.B.j.7.1 i.(.B.,.f.B.B.,.U F _.E.B.B.B.j.+.< s.[.B.B.j.,.W.S.j.B.B.j.7.1 u./.B.,.g.B.B.>.L < ",
"(.R.H.B.k.g.,.- 1./.B.B.j.7.(.T.B.B.B.7.O.% ;.W.G.7.7.j.j.,...N /.E.H.B.j.g.,.- >.(.B.B.j.7./.T.B.B.B.7.+.% } W.H.7.6.j.g.,.) - ",
"B.W._.B.,.,.B.  =./.B.B.T._.B.B.B.B.B.6.+.  W K._.G.7.+.+.j.>.5 B.E._.b.,.,.B.  =./.B.B.T._.B.B.B.B.B.7.+.  E S._.K.7.X.+.j.:.  ",
"< O     - -     9 6._.S.B.B.+.+.+.+.+.s 2     o 2 o     < X   X < O     - -     9 6._.H.B.B.+.+.+.+.+.D 2     o 2 o     < X     ",
"r.X.E   N &.d.[ t.Z.Z.:.| | s v x s s s s [ [ ' ( @ 4 W I.q.[ =.2.| W   C &.d.=.t.Z.Z.:.| | D v x s s s s [ =.[ ( @ 4 W I.q.[ =.",
"/.E.K.o v.'.+X/.~.R.,.n 3 3 % 9 G r r I ,.~.(.W.K.6 ' ^.+X[./././.E.T.o v.`.+X/./.T.,.b 3 3 % t v 1 a Y ,././.W.G.6 ] ^.+X'././.",
"B.E._.2  X+XB.B.B.B.B.,.+.@.  [ E.+.+.f.B.B.B.H._.j P.#XB.B.B.B.B.R._.2  X+XB.B.B.B.B.,.+.$.  ] W.+.@.6.B.B.B.G.[.k P.#XB.B.B.B.",
"B.j.7.2 Q.[.B.B.B.B.B.j.j.j.* u.~.k.k.k.B.B.B.b.7.l s.|.B.B.B.B.B.j.6.2 Q.[.B.B.B.B.B.z.j.j.% 4./.j.j.j.B.B.B.l.g.l s.|.B.B.B.B.",
"B.7.+.> K./.B.B.B.B.B.B.l.7.2 i.~.B.B.B.B.B.B.j.+.3 r._.B.B.B.B.B.6.X.> T./.B.B.B.B.B.C.j.6.2 u./.B.B.B.B.B.B.j.+.3 r._.B.B.B.B.",
"B.7.+.< H.(.B.B.B.B.B.B.8.+.2 9./.B.B.B.B.B.B.j.T 3 7._.B.B.B.B.B.7.+.< L./.B.B.B.B.B.B.j.+.2 i./.B.B.B.B.B.B.j.+.3 2._.B.B.B.B.",
"+.6.B.  G 6._.B.7.@.@.@.,.Z.  W G._.G.6.+.+.+.L ; X 9 +._.H.B.j.+.7.B.  J 6._.B.7.+.+.+.,.B.  A K._.S.p.+.+.+.L < X 9 +._.K.B.B.",
"s S A   4 S u.A d i s s s W   4 Q i._ S 9 9 p y -   & q 2._ / m D S A   : g 4.E d q S s S A   4 Q 4._ s 9 9 p y O   # q 2.$.~ A ",
"a g E 4 7 8 a   @ q { j h 7 w 0 d j j f 4   $ = & O & & 3 > * @ a g E 5 7 f a   - t _ ! h w w w d j k f 4   $ = # & # # 3 1 * . ",
"B.{.#XB.(./.B.  A ^.#X|._._._._._._._.E.b.  $ r +.+.+.+.@.3 - : B.{.#XB././.B.  C ^.#X|._._._._._._._.E.B.  $ r +.+.@.+.+.3 -   ",
"+X{.^.B.H.T./.% n..X^.T.G.G.G.G.H.G.G.E.(.- M C.oX).W.W.W.$.v ~ +X{.^.B.S.T./.% a.XX^.K.H.H.G.G.G.G.G.E.(.- A z.XX`.W.E.W.>.v % ",
"OX).B.B.B.A.E.2 a.{.B.B.B.B.B.B.B.B.B.G.E.> t.{.{.!.E.E.W.j.$.^ OX`.B.B.B.S.E.2 a.{.B.B.C.B.B.B.B.B.B.T.T.1 s.{.{./.R.E.R.j.$.2 ",
"_.E.B.B.B.B.B.2 4.~.B.B.B.B.B.B.B.B.B.B.M.2 P.+XB.B.B.B.B.B.4.j _.E.B.B.B.B.B.2 u.(.B.B.B.B.B.B.B.B.B.B.B.2 P.+XB.B.B.B.B.B.4.2 ",
"_.E.B.B.B.j.@.2 u.~.B.B.B.B.B.B.B.B.B.6.X.< 2.(.B.B.B.B.B.,.| F [.E.B.l.B.j.@.2 <.!.Z.M.B.B.B.B.B.B.B.7.@.< 2./.B.B.B.B.B.,.T < ",
"K.E./.,.,.,.j.o g M.~.S.z.,.,.,.,.,.,.<.j.X G j.B.B.B.B.B.,.J 0 S.W./.,.,.,.j.o m m.(.Z.j.,.,.,.,.,.,.7.j.. M j.B.B.B.B.B.,.J X ",
"2.c.L.L U U -.  : O.L.f.:.T L U U L U +.:.  6 $.H.B.B.j.j.X.z # <.B.L.| U Y -.  : +.L.s.,.T K T U K U +.-.  8 +.G.B.z.j.j...x   ",
"< > 2 < = =       o 2 ; < < < > 1 < 1 $     $ k _.H.7.+.+.3 - X < > 2 < = =       o 2 ; < < < > 1 < % $     $ j _.G.7.+.+.3 -   ",
"_.Z.+.  ;.^.#X[._._._._./.B.  A ).#X|._._._._.H.< < -   < < 3 6._.Z.+.  :.^.#X_._._._._./.B.  A ^.#X|._._._._.H.< < -   < < 3 +.",
"E.K.Z.$ U.{.{.E.E.E.E.E.E.W.$ q.].]./.E.E.E.K.g.n z , $ 2.P U j.E.K.S.$ U.{.{.E.E.E.E.E.E.E.$ 9.}.{./.E.E.E.T.g.n z > $ 1.K L 7.",
"B.E.[.2  X+XB.B.B.B.B.B.T._.2 P.+XB.B.B.B.B.6.+.@.@.D 2 [.7.,.B.B.E._.2  X+XB.B.B.B.B.B.S._.2 P.+XB.B.B.B.B.6.+.@.+.D 2 _.6.>.B.",
"B.7.+.< H./.B.B.B.B.M.,.+.+.2 u.(.A.B.B.B.B.B.C.B.,.z < _.K.B.B.B.<.$.< H.(.B.B.B.B.B.,.@.+.2 i./.B.B.B.B.B.B.B.B.,.n < _.T.B.B.",
",.6.j.X r.T./.B.7.,.,.+.T 3 o Q T.(.(.K.B.B.f.,.,.7.G X H.W.R.>.,.7.j.X r.T./.B.g.,.,.+.T 3 o Q T.~.(.K.B.B.f.>.,.7.M X G.~.R.,.",
"K o.:.  W r.L.;...K L U G -   q 2.H.H.v.;.:.| J U :.w   -.N.m.L T ..-.  W w.L.-...J T U v -   q e.H.K.s.-.-.O.J U -.e   :.N.a.J ",
"< O       o 2     X < = %       X < < O       o 2 o       % = X < O       o 2     . < 1 1       X < < O       o 2 o       % %   ",
"B.{.#X_._.!.B.  - 3 @.@.+.+.+.+.+.+.$.,.B.  W ^.#X|._.[._.H.-.4 B.{.#X_._./.B.  O 3 +.+.+.+.+.+.@.+.+.7.B.  A ^.#X|._._._.K.:.  ",
"{.{.{.E.E.R.B.$ 9 <.'.K.Z.Z.Z.Z.B.6.B.Z.B.O 0.{.{./.E.E.E.E.s.N {.{.{.E.E.R.B.$ t 2.'.K.Z.Z.Z.Z.M.7.M.B.l.O q.{.{./.E.E.E.E.v.O ",
"@X[.B.B.B.B.j.1 ;.`.+X[.!.(.W.W.R.B.W.E.H.< F..XB.B.B.B.B.T.l. .@X].B.B.B.j.j.= -.'.+X[././.W.W.T.B.W.E.G.< F.XXB.B.B.B.B.T.z.< ",
"[.E.B.B.B.j.+.< I.+XB.B.B.C.+.X.,.B.B.E._.< ,.(.B.B.B.B.B.,.L F _.E.B.B.B.j.+.< I.+XB.B.B.B.+.@.,.B.B.W.[.< s./.B.B.B.B.B.,.| < ",
"_.E.B.B.B.j.+.< s.[.B.B.j.,.W.S.j.B.B.j.6.1 i.(.B.7.7.B.B.,.L F _.E.B.B.B.j.+.< s.[.B.B.j.,.W.S.M.B.B.k.7.= u.(.B.,.g.B.B.,.U < ",
"(.R.H.B.j.g.,.- 1./.B.B.k.8./.T.B.B.M.8.+.% ;.W.H.6.6.j.j.,.T N /.E.K.B.j.f.,.- q./.B.B.x.7./.T.B.B.B.7.+.% } W.H.7.6.j.j.,.T - ",
"B.R._.B.,.,.B.  *./.B.B.T.[.B.M.B.B.B.8.+.  A T._.K.7.X.+.j.-.4 B.E._.B.,.,.B.  =./.B.B.S.[.B.B.B.B.B.7.+.  A S._.H.7.+.+.j.-.  ",
"< O     - -     i 8.[.A.B.B.+.+.+.+.R D 2     o 2 o     < X   X < O     - -     9 6._.T.B.B.@.+.+.+.@.D 2     o 2 o     < X     ",
"2.| W   N &.d.=.p.Z.Z.:.| | D c x D s s j [ [ ' _ @ 5 W I.q.=.=.2.o.E   N &.d.=.w.Z.Z.:.| | D c c D D D s [ ' =._ @ 4 C I.q.=.=.",
"(.E.H.o v.'.+X/./.R.,.b 3 3 % t x 1 a Y ,./.~.^.T.8 ' ^.+X[././.(.E.H.o v.`.+X/./.R.,.n 3 3 % t c 1 a Y ,././.W.G.: =.^.+X'.(./.",
"B.E._.2  X+XB.B.B.B.B.,.+.+.  =.W.+.@.6.B.M.l.T._.j L.#XB.B.B.B.B.R._.2  X+XB.B.B.B.B.,.+.$.  [ W.+.+.8.B.B.B.H.[.k L.#XM.B.B.B.",
"B.j.6.2 P.[.B.B.B.B.B.M.k.g.% <./.j.j.l.B.B.B.l.6.z s.|.B.B.B.B.B.j.6.2 Q.[.B.B.B.B.B.j.j.j.% 4./.k.8.M.B.B.C.j.g.l p.|.B.B.B.B.",
"B.7..., L.(.B.B.B.B.B.B.b.6.2 u./.B.B.B.B.B.B.j.+.3 2._.B.B.B.B.B.6.+.> K./.B.B.B.B.B.C.j.6.2 u./.B.B.B.B.B.B.j.@.3 r.[.B.B.B.B.",
"B.7.@.< T./.B.B.B.B.B.b.k.+.2 u./.B.B.B.B.B.B.j.+.3 7._.B.B.B.B.B.7.+.< K./.B.B.B.B.B.B.j.+.2 u./.k.B.B.B.B.B.j.+.3 2._.B.B.B.B.",
"+.7.B.  J 7._.M.7.+.+.O.>.B.  A H._.H.7.+.+.+.| < X 9 X._.A.B.j.+.7.B.  J 7._.B.7.+.+.+.,.B.  A Y.[.T.i.+.+.+.L < X 9 @._.K.B.B.",
"D D A   5 A u.A M t s I s A   5 Q u.{ S 9 9 p y O   # q e.$./ A S S A   : g i.A d i D D D E   4 Q 4._ s 9 9 p y O   # 9 2.$.~ A ",
"a g E 5 7 t a   @ e { j h w w w d j j t :   $ = # # 4 # 3 = * @ a g E 4 7 d a   # t _ ! h w w 0 i I k f 5   $ = # # # # 3 1 *   ",
"B.{.#XB.~.(.B.  Z ^.#X X_._._._.'._._.W.z.  $ r +.+.+.+.@.3 - : B.}.#XB.(./.B.  A ^.#X}._._._._._._._.E.B.  $ r %.+.+.X.@.3 -   ",
"+X{.^.B.Z.K.(.% n..X^.Y.S.H.G.G.G.H.S.W./.- V C.XX`.W.W.W.O.D ~ +X{.^.B.S.T./.% a.XX^.T.H.K.T.Z.G.G.G.E.(.- Z c..X).W.W.W.%.v = ",
"+X).B.B.B.S.E.2 a.}.M.B.B.B.B.B.B.B.B.T.E.> s.{.{./.E.E.E.j.$.^ OX'.j.B.B.B.W.2 a.}.B.B.B.B.B.B.B.B.B.G.K.1 t.{.{./.E.E.E.j.$.2 ",
"_.K.B.B.B.B.B.2 u.(.B.B.B.B.B.B.B.B.B.B.B.2 L.+XB.B.B.B.B.B.<.j _.R.B.B.B.B.B.2 u.(.B.B.B.B.B.B.B.B.B.B.A.2 H.+XB.B.B.B.B.B.,.2 ",
"_.E.B.B.B.j.@.1 4./.B.B.B.B.B.B.B.B.B.7.@.< 2./.B.B.B.B.B.,.| F [.E.B.B.B.j.+.2 4.~.B.B.B.B.B.B.B.B.B.7.+.< 2.).B.B.B.B.B.,.T < ",
"K.W.(.,.,.6.j.o g z.(.B.j.,.,.,.,.,.,.7.j.X M l.B.B.B.B.B.,.J q T.E.(.,.,.6.j.o E M.~.S.k.,.,.,.,.,.,.7.M.o N j.B.B.B.B.B.,.J X ",
"2.M.L.L U Y 1.  : Y L.j.%.L T U Y | U O.:.  1 $.G.M.j.j.k...z # 2.k.L.U U Y >.  6 ) K.7.>.R L R U L U O.:.  : $.G.B.b.j.j.+.z   ",
"< * 2 < 1 %       o 2 ; < < < > % < 1 $     $ j '.T.7.%.+.3 - X < > 2 < 1 %       o 2 ; < < < > = < = $     $ j _.G.4.+.+.3 -   "
};
