/* XPM */
static char *af1bf7737b56475fb7a12d618e5fa86aBM0dtKaMefiuoVbK[] = {
/* columns rows colors chars-per-pixel */
"64 64 115 2 ",
"   c #232134",
".  c #2A2236",
"X  c #2A2E36",
"o  c #2D2639",
"O  c #2E2C3B",
"+  c #332438",
"@  c #3C263A",
"#  c #352D39",
"$  c #3A2B3B",
"%  c #2E3537",
"&  c #2E3139",
"*  c #35363B",
"=  c #3C333B",
"-  c #323C39",
";  c #3A3D3E",
":  c #44293C",
">  c #3B423F",
",  c #343341",
"<  c #3A3443",
"1  c #373942",
"2  c #3C3B43",
"3  c #3A3748",
"4  c #3D3C48",
"5  c #453442",
"6  c #4A3442",
"7  c #433B43",
"8  c #4E3D47",
"9  c #453B4B",
"0  c #4C3B4B",
"q  c #543D4E",
"w  c #444344",
"e  c #4B4447",
"r  c #454945",
"t  c #45454D",
"y  c #4C414A",
"u  c #464C4C",
"i  c #4E4D4B",
"p  c #52454D",
"a  c #524B4C",
"s  c #51514F",
"d  c #404354",
"f  c #4E4751",
"g  c #4B4852",
"h  c #544354",
"j  c #554A53",
"k  c #594D56",
"l  c #534E5C",
"z  c #5B4C5B",
"x  c #4C5352",
"c  c #4C5858",
"v  c #535154",
"b  c #595652",
"n  c #595857",
"m  c #56575B",
"M  c #5A535C",
"N  c #555859",
"B  c #5D5B59",
"V  c #605C5D",
"C  c #62605E",
"Z  c #5A5663",
"A  c #575A64",
"S  c #5C5C61",
"D  c #585A69",
"F  c #635361",
"G  c #645A66",
"H  c #6A5E6D",
"J  c #5D6266",
"K  c #5E686D",
"L  c #5E6675",
"P  c #656564",
"I  c #6A6667",
"U  c #65636A",
"Y  c #6B646A",
"T  c #696A6A",
"R  c #626D72",
"E  c #6F6F71",
"W  c #736B73",
"Q  c #706A79",
"!  c #6E7577",
"~  c #667478",
"^  c #717174",
"/  c #737174",
"(  c #737175",
")  c #747074",
"_  c #767277",
"`  c #747578",
"'  c #767478",
"]  c #797479",
"[  c #78757A",
"{  c #7A757B",
"}  c #78717D",
"|  c #7C777E",
" . c #757A7D",
".. c #79797E",
"X. c #7D797F",
"o. c #7C7E84",
"O. c #7C7F84",
"+. c #847E87",
"@. c #7A8184",
"#. c #7B8386",
"$. c #7F858A",
"%. c #818188",
"&. c #818289",
"*. c #828B90",
"=. c #838B90",
"-. c #858A91",
";. c #898993",
":. c #858B98",
">. c #88939A",
",. c #8A939A",
"<. c #8B949C",
"1. c #8F959F",
"2. c #8E9CA3",
"3. c #95A1AB",
"4. c #9BADB7",
/* pixels */
"+.T b   m  .4.+.+.+.+.+.o.T   t  .4.;.%.+.+.+.W - - &   - - > b { { B #                       * T 2.2.+.%.+.+.+.- - -   % - - b ",
"' W E + Q *.*.' ` ` ` ` _ _ + Z =.=...' _ ` W P r r = + B i u P ) W T ,     + . & 2 2 O   + + 9 *.*.o.W ' ' _ T r r r + j N r C ",
"T ' +.: :.2.T T T T T I W +.: Q 2.T T T T T C b b b e : +.P B T ! T +.3     : = > b b 2   : : k 4. .T T T T P b b b b : W _ b T ",
"T V b - E o.T I T T T B b b : F ..T T T T T T T T B r - +.T T T P P b # + : - r b b P C v - . 3 %.W T T T T T T T C b - W o.T T ",
"B C P   C / o.I P n B b s > . f W o.| W T T P B B V t o ! _ ' B B B P ,   . $ : r P B p 6     , W { o.o.Y I U B B B P   B ' o.B ",
"s v N   g S W m j i a a e %   4 A E E U m B f e p N 2   M Y Y e v j m O     @ * ; m v 7 @     # N T T ! m M v i a v M   g S W e ",
"- X       . :     X - $ @       X - - X         : .       @ @   % %                 % &     .     % - -         : +       . :   ",
"T *.4.+.+.X.T   X > b b b b b b b b b S T   g o.4.;.%.+.%.W N    . .4.-.+.+.T t X - i b b b b b b b b b T , , U 4.2.+.+.+.o.Y   ",
"*.*.*.` ` ^ T + 2 N @./ T T W T I C I I T % B *.=. .' ' ' ' P & *.*.*...` ` T f $ x ! ` ^ I T T E C I T T 1 t *.-.o._ ' ' ' ' X ",
"3.#.T T T T P : M #.2.&.o.| ] ] ) T ..` T - R ,.T T T T T / U - ,.,.T T T T P p y o.>.*.X.{ { { ' T ) X.! r c 3.T Y T T T T { - ",
"+.` T T T P b - ~ 2.T T T I b b B T T ` %.- J | T T T T T B i - X.X.T T T T b r c 4. .T T T B b b I T T +.r u +.T T T T T P b - ",
"+._ T T T P b - J &.T T V V ] E P T T P C : V | T C C T T B a - X...T T T T b r u -.W T T B W ^ P I T T G 7 0 +.T P B T T P b - ",
"X.' W T P C B % B X.T T T C X.) T T T C v @ z [ ! C C P P n v % ..{ E T T P n r t %.E T T C _ { T T T T b : 8 o.^ P B P P C B % ",
"T ' %.T B B T   l X.T T ^ %.T I T T T C b   d W +.T C v N P m   T ! +.E V s T t 4 %.W T I %.^ I T T T T b o , T +.` T v b B T   ",
"- X     % %     2 G %.) T T b b b b b 8 :     . : .     -       - %     & -     # b { ` T T B b b b b b : .             % %     ",
"B x t   t c L m G T T N s s e e w q e 8 q n l l j # * t ~ Z l M m m t o ; x L D Z T T G x x e e r 2 2 ; +       + o   t L R l v ",
"#._ W o U #.2.X..._ B r > > @ 7 t : : a C { X...E < l  .2.+.o.[  .{ W < l  .2.*.[  .P i > > $ # -     o       . : + .  .,.,.{ X.",
"T _ +.: :.2.T T T T T B b b   M [ b b V T T T W +.q E 4.T T T T E W %.p Q 4.T T T T T P b b #       + :       : - = : 4. .T T T ",
"T P V : } &.T T T T T P P P @ F o.P P T T T T T C w J ;.T T T T I P V 0 G ;.T T T T T P P P 5 +   + + . @ # - a : ; - -._ T T T ",
"T V b = W ..T T T T T T P V : F | T T T T T T C n > B +.T T T T T P B : Z +.T T T T T T T P 7 #   + + + = r i C y : > o.E T T T ",
"T C b - W o.T T T T T T P n : B X.T T T T T T P v > B +.T I T T P P b > B +.T T T T T T T b > %     + : - a n T b r - +.E T T T ",
"b V T   i B +.T V b b b B Y . d W %.T J b b b s - X 2 n +.! T T B B T * 2 b +.{ P b b v v T *     @ = - - B P n - X   b _ X.T T ",
"e y d   , t V 9 t 2 8 q 8 t   , j F k y 2 2 w : &   O 2 B l j t y y t o # < F M t 2 e 0 0 f o     . # $ * 3 t 2 X     1 N n j t ",
"0 0 d , < 5 0   o 2 z q 0 3 3 4 9 q q 7 ,   # : O O O # > = +   0 9 d 1 < 3 9 $   * h h q 3 3 4 < < 9 q *       # # O O ; > :   ",
"T =.4.T X.X.T   t o.4.=.+.+.+.&.%.+.+.` T   + 6 v b b b b > *    . .4...) +.T t , Y 2.2.+.+.+.+.+.+.+.+.T ,     b b b b b i -   ",
"2.-. .T W _ X.@ U >. .E T ! W T E E T ` | * t Y <.@.` { { n e @ >.>.o.T T ! o.z i 2.@./ W T T ! ) T ! W o.r 2 m <.$.' ' ' W i @ ",
"1.o.T T T T ` : H *.T T T T T T T T T ) ` = S &.=.X.' ' ' P b : -.=.I T T T _ z h 1.` T T T T T T T T T ) t y *.*.@. .' _ ! C : ",
"+._ T T T T T : V o.T T T T T T T T T T Y 5 Q 2.T T T T T I B : @.| T T T T T j q +.^ T T T T T T T T T T 6 z 4.T T T T I T Y : ",
"+.' T T T P b : F | T T T T T T T T T C b - B o.T T T T T B i - X.X.T Y T T b e q +.W T T T T I T T T T v > u +.T T T T T P b - ",
"^ ' X.B B B P . 9 Y o.T P B B B B B B C P   t P T T T T T B i . ) W o.P V b P y = C _ ^ T B B B B B B B P 1 * P T T T T T P b X ",
"B U W a a a m   = j W P n i i a i i a v n   < b W T T C P s r   P G W b a a n 4 X e H P B i i a a i a a N O # p T T T P P C i   ",
"- = : - : $       . : = - - - = : - = +     + q %.E C b b > %   * - : * = :         @ * - > - * : * = :     . : %...T b b i -   ",
"_ { b O                       3 T 2.1.+.+.+.+.+.- - -   % - - V +.T b   n o.4.+.%.+.+.+.{ T   f  .4.;.+.&.%.+.W - - %   - > > s ",
"_ _ T ,     + o O 2 2 O   o + 9 =.=.o.' ' ` _ T r r r + v N r P _ ) T + ^ *.*.^ ` ^ ` ' ' ' + F *.&.o.' ' ' ^ V r r : + S u u C ",
"W W +.<     : = > b b 2   : : z 4. .T T T T P b b b b : W ' b T T ` +.: :.2.T T T T T T E %.: W 2.T U T T T C v b b e : %.C B T ",
"P P b O + : - r b b P V b -   3 +.` T T T T T T T V b - W o.Y Y T C b - W o.T T T T T B b b : V o.T T T T T T T I B r - %.^ T T ",
"B C P *     : = r P B a : X . , T X.o.X.T T P B B C P X S ' o.B B V P   Z W @.T C B B b s > . j W o.@.W T T C B B P t   T { ' V ",
"s s N O     @ # 2 N v 7 +     # N I T W m m m e p v m   f B W i x v M   g B W n x i s a e %   2 B E W P m m j i p N 2   V Y Y e ",
"% %                 % X           % - -         : +       o :   - X       . :       - : @   .     - - &       . : .       @ @   ",
" . .4.:.+.+.T t X - a b b b b b b v b n U , , I 4.1.+.+.%.X.T , T *.4.+.+.#.Y   & > b b b b b b n b b V T   d  .4.;.+.+.+.! n   ",
"=.=.=...' ` T h = x ' ` T T T W T P P T T 2 t &.-.@.' ' ' ' _ t *.*.*.' _ / T + 7 B @.! W I E I I V T T T & A *.-.[ ' ' ' _ P X ",
">.>.T T T T P a y  .>.-.[ +.{ _ _ W ) X.W r c 3.T T T T T T ' c 3.&.T T T T P $ M @.2.%.X.X.' ' _ T ' ' T - R ,.T T T T T _ T - ",
"..X.T T T T b r c 4. .T Y T B b b I T T %.u u &.T T T T T P b u +.' T T T P N - ~ 2.T T T T b B B T T ' &.- B o.T T T T T B i - ",
"X.X.T T T T b r u ;./ T T B W ' P P T T G 7 p %.T C B T T P b u +.' T T T P b - J $.T T C V _ T P T T P P : F X.T V C T T B i - ",
"` X.T T P P B r t +.! T T V ' { T T T T b : y o.T P B P P C B t X.' E Y U P n % M o.T T P C X.) T T T C b @ z ..E B C P P B s % ",
"W ^ &.! C b T g 3 +.T T T +.! T T T T I b # * T +.` T n b B T , T ' o.T B n T   l X.T T ^ +.T T T T T C b   t W +.! C v b P N   ",
"% %     X %     $ b ' ` T T B b v b b b : o             % %     - X     % %     2 P +.W T T b b b b b 8 :     . : .     -       ",
"N N t o 1 x L D V T T V x x e e r 7 2 < +       + .   t K R l m B x f   r N L l G T T m x x 8 w w 8 8 e 8 l l l j O , f ~ Z l m ",
"[  .! = l [ 2.:.X.X.P i > > $ $ % .   .       . : + .  .>.>.X...o.' W . U @.2...X._ B r > > @ 7 e : 8 p B ..X.' E 2 M  .2.$.| X.",
"^ W +.q Q 4.T T T T T V b b X       + :     . : > = : 4. .T T T T ' +.: :.2.T T T T T B b v   l { b b C T T T ! %.q W 4.U T T T ",
"P T B 6 G ;.T T T T T P P I 5 +   + + . @ % * p : ; - -.^ T T T T P C : } #.T T T T T P P P @ F X.C I I T T T T V w P :.T T T T ",
"T P n 7 Z +.T T T T T T T C 7 #   . + + $ w i P e : - +.E T T T T V b $ W o.T T T T T T T V : F X.T T T T T T P b > B +.T T T T ",
"P P m > B +.T T T T T T T b > %     + : > i B T b w - +.W T T T T C b - E | T T T T T T P b : F X.T T T T T T C N > B %.T T T T ",
"B B T * 2 N +.] P b b v b T *     @ = - - B P v - %   b { ..T P b C T   i G +.T C s b b B T   t E &.! G s b B s - X 2 N +.T T T ",
"y y t o O 2 V j t ; 8 e 8 d o     . # = X > 9 2 X     2 N n j t 8 y t   , t F t t 9 e e 0 t   * f B z 0 7 2 9 : X   # 2 B k j d ",
"0 0 d 3 , 3 0 @   , h h q 3 3 4 3 3 9 q ,       X # & O ; ; : O 0 9 d * 3 5 6   X 5 z q 0 3 3 3 9 p q 6 *   + $ # # O o > = $   ",
" . .4. .' +.T t , T 2.1.+.+.+.+.&.+.+.+.I *     b b b b b s - , T =.4.T ..X.T   t  .4.=.+.+.%.+.+.+.+.` T   + 6 v b b b b > %   ",
",.,. .E T W X.M h 2.@._ T / T / W T W ! ..t 1 m <.&.' ' { T i h 2.*. .T W W X.$ H >. ._ E W E E T ! W ` o.% e T <.o.] ' ' B e @ ",
"-.-.T T T T ' z h 1.' T T T T T T T T T ` 0 i *.=.#.` ' ` ) C h 2.o.I T T T ` : H ;.T T T T T T T T T E ` $ S -.*. .' ' _ Y b : ",
"X.X.T T T T T j q +.! T T T T T T T T T T 8 z 4.T T T T T T T q +._ T T T T T : F @.T T T T T T T T T T T : Q 2.T T T T T Y V : ",
"X.X.T T T T b 8 q +.E T T T T T T T T T b > i %.T T T T T P v u %.' T T T P b : F o.Y T T I T T T I T C b - S X.T T T T T B s - ",
"/ / X.C B B P t < V _ / T B B B B B B B P * * C T T T T T P b 2 W ` X.B B V P o y P ..T C B B B V B B C P   t P T T T T T n i   ",
"P G W b a a m 3 O e Y P B a i s a i a p N , o p ) T T P P C i O V P W p i p B   - j W C B s i s a i a b m   = b ! T P P P s r   ",
"* - : * = :         @ = - - - - : * = :     o : %.' T b b i - X - = : - $ @       . : % - > - = : - $ +     + q +.E C b b > %   "
};
