/* XPM */
static char *f8d066aaecee4b49f7700563774131bcGUKSnsFAV5zdfoA6[] = {
/* columns rows colors chars-per-pixel */
"64 64 62 1 ",
"  c #323C39",
". c #363F3C",
"X c #3B423F",
"o c #3C4442",
"O c #3F4745",
"+ c #404542",
"@ c #444845",
"# c #454945",
"$ c #474A47",
"% c #474B48",
"& c #444B4A",
"* c #464D4B",
"= c #464C4C",
"- c #4F4F4B",
"; c #4A4E4C",
": c #4A504E",
"> c #4F514F",
", c #52524E",
"< c #4D5351",
"1 c #535451",
"2 c #545451",
"3 c #565551",
"4 c #525654",
"5 c #575755",
"6 c #595652",
"7 c #545857",
"8 c #595854",
"9 c #5A5A57",
"0 c #545759",
"q c #545858",
"w c #565A59",
"e c #575A5C",
"r c #5D5B58",
"t c #5B5E5D",
"y c #5D605F",
"u c #61605E",
"i c #63605F",
"p c #5B5D60",
"a c #5E6160",
"s c #636261",
"d c #626463",
"f c #606164",
"g c #656564",
"h c #666665",
"j c #676767",
"k c #6A6667",
"l c #686868",
"z c #696A6A",
"x c #6A6B6B",
"c c #6E6A6C",
"v c #6C6B6E",
"b c #6C6B6F",
"n c #6E6D6F",
"m c #6D6C71",
"M c #6F6F71",
"N c #6F6D73",
"B c #737174",
"V c #767478",
"C c #78757A",
"Z c #79767C",
"A c #7D797F",
"S c #847E87",
/* pixels */
" <zzOOz6#Ozzzzzzzzzu6zzzzzzzzzt  <zzOOz6#Ozzzzzzzzzu6zzzzzzzzzt ",
" <zz7<<#XOzzzzzzzzzguzzzzzzzzw<p <zzw<<#XOzzzzzzzzzguzzzzzzzz5<t",
" <zzzt   Ozzzzzzzzzzzzzzzzzzz+=S <vzzt   OzzzzzzzzzzzzzzzzzzzO=S",
" <zzzzz  =SMzzzzzzzzzzzzzzzz NAz <zzzzz  =SMzzzzzzzzzzzzzzzz MAv",
" <zzzzzt*=SMzzzzzzzzzzzzzzsrMMvz <zzzzzt==SMzzzzzzzzzzzzzzsrNMmz",
" <zzzzzz4<SMzzzzzzzzzzzzvgurAvzz <zzzzzz4,SMzzzzzzzzzzzzzgurAMzz",
" <zzzzzzuuSMzzzzzzzzzzzzzruzzzzz <zzzzzzusSNzzzzzzzzzzzzzruzzzzz",
" <zzzzzzurzzzzzzzzzzzzzg6gzzzzzz <zzzzzzurzzzzzzzzzzzzzg3gzzzzzz",
" <zzzzzzu3<mBlzzzzzzzzzzsgzzzzzz <zzzzzzu6<vVlzzzzzzzzzjugzzzzzz",
" <zzzzzgr# fmgggggggzzzzzzzzzzzz <zzzzzgw# smssggggzzzzzzxzzzzzz",
" <zzzzk6#   o666666szzzzzzzzzzzz <zzzzz6@   X666666uzzzzzzzzzzzz",
"-6rrrrro#5MNvgggggggzzzzzzzzzzzz-3rrrrrX#5NMmgglgggjzzzzzzzzzzzz",
"-1rr3>-.>lAAVzzzzzzzzzzzzzzzzzzz-3rr,--X<lAAVzzzzzzzzzzjktfzzzzz",
" <zz+  6vAzzzzzzzzzzzzzzzzzzzzzz <zzO  6mAzzzzzzzzzzzzzg6o<zzzzz",
" <zzzt SVkzzzzzzzzzzzzzzzzzzzzzz <zzzt SVxzzzzzzzzzzzz<  MVzzzzz",
" <zzzt SVzzzzzzzzzzzzzzzzzzzzzzz <zzzt SVgzzzzzzzzzzzu;otMNzzzzz",
" <zzzt SVzzzzzzzzzzzzzzzzzzzzzzz.<zzzt SVzzzzzzzzzgpt-o=AMzzzzzz",
" <zzzt SVzzzzzzzzzzzzzzzzzzzzzzz <zzzt SVzzzzzzzzzr#   +zzzzzzzz",
"-3rzzs-SVzzzzzzzzzzzzzzzzzzzzzzz>6rzzs-SVzzzzzrrrr#. NMMzzzzzzzz",
"#3uzzg6SVzzzzzzzzzzzzzzzzzzzzzzz#,tzzg6SVzzzzz6-##.;pVVBzzzzzzzz",
" <zzzg6SVzzzzzzzzzzzzzzzzzzzzzzz <zzzg5SVzzzzz6#   tSlzzzzzzzzzz",
" <zzzg6SVzzzzzzzzzzzzzzzzzzzzzzz <zzzs6SVzzzzz6#=SSVzvzzzzzzzzzz",
" <zzzg6SVzzzzzzzzzzzzzzs<dzzzzzz <zzzg6SVzzzzz6#=SZMzzzf<fzzzzzz",
" <zzzgrABzzzzzzzzzzzzzvy;wszzzzz <zzzgrAVzzzzz-;0AMzzzza=wszzzzz",
" <zzzzzzzzzzzzzzzzzzzzzMS&<zzzzz <zzzzzzzzzzzz pAzzzzzzMS=<xxzzz",
" <zzzzzzzzzzzzzzzzzzzzzvMMeOzzzz <zzzzzzzzzza+MMMzzzzzzzMMe+xzzz",
" <zzzzzzzzzzzzzzzzzzzzzzzBq zzzz <zzzzzzzzzzd<VMzzzzzzzzzNw zzzz",
" <zzzzzzzzzzzzzzzzzzzzzzzz< zzzz <zzzzzzzzzzvzzzzzzzzzzzzz< zzzz",
" <zzzzzzzzzzzzzzzzzzzzzzzz<   X6 <zzzzzzzzzzzzzzzzzzzzzzzz<   o6",
" <zzzzzzzzzzgrzzzzzzzzzzz:#--,,g <zzzzzzzzzzgrzzzzzzzzzzz-=---1g",
" =ttttttttgtr,tttttttttttoo<-,6t *ttttttttgtw-tttttttttttoo--36t",
"         o6X                 ->          X6o                 -- ",
" <zz#+z6=+zzzzzzzzzu6zzzzzzzzzt  <zzo+z6@+zzzzzzzzzu6zzzzzzzzzt ",
" <zzq<<#X+zzzzzzzzzguzzzzzzzzw1t <zzw<<#XOzzzzzzzzzguzzzzzzzz44p",
" <zzzt   +zzzzzzzzzzzzzzzzzzzO*S <zzzt   OzzzzzzzzzzzzzzzzzzzO=S",
" <zzzzz  =SNzzzzzzzzzzzzzzzz MAz <zzzzz  =SMzzzzzzzzzzzzzzzz NAz",
" <zzzzzt==SMzzzzzzzzzzzzzxsrNNMz <zzzzzt==SMzzzzzzzzzzzzzzsrNMmz",
" <zzzzzz4<SMzzzzzzzzzzzzzgurAvzz <zzzzzz41SMzzzzzzzzzzzzzgurAMzz",
" <zzzzzzuuSMzzzzzzzzzzzzxruzzzzz <zzzzzzuiSNzzzzzzzzzzzzzruzzzzz",
" <zzzzzzurzzzzzzzzzzzzzg6gzzzzzz <zzzzzzurzzzzzzzzzzzzzg6gzzzzzz",
" <zzzzzzu2<mBzzzzzzzzzzjuzzzzzzz <zzzzzzu3<xMzzzzzzzzzzzugzzzzzz",
" <zzzzzgr$ fvggggggjzzzzzzzzzzzz <zzzzzg9# fmsgggggkzzzzzxzzzzzz",
" <zzzzz6@   o666666uzzzzzzzzzzzz <zzzzz3#   o666665uzzzzzzzzzzzz",
">39rrrro@5mmvsgggggjzzzzzzzzzzzz,3rrrrrX#5NNvggkggggzzzzzzzzzzzz",
"-3rr,--X1kAAVzzzzzzzzzzjgtfzzzzz-3rr,--o,lAAVzzzzzzzzzzzzzzzzzzz",
" <zzO  6vAzzxzzzzzzzzzxg6o<xzzzz <zzO  6mAzzzzzzzzzzzzzzzzzzzzzz",
" <zzzt SVzzzxzzzzzzzzz<  MVzzzzz <zzzt SVzzzzzzzzzzzzzzzzzzzzzzz",
" <zzzt SVzzzzzzzzzzzzt;opvBzzzzz <zzzt SVlzzzzzzzzzzzzzzzzzzzzzz",
" <zzzt SVzzzzzzzzzlyy,o=Avzzzzzz <zzzt SVzzzzzzzzzzzzzzzzzzzzzzz",
" <zzzt SVzzzzzzzzx9#   Olzzzzzzz <zzzt SVzzzzzzzzzzzzzzzzzzzzzzz",
"-3rzzs-SVzzzzzrrrroX MMMzzzzzzzz,,rzzs,SVzzzzzzzzzzzzzzzzzzzzzzz",
"#1uzzg6SVzzzzz3-#+X=tVVBzzzzzzzz=,uzzg6SVzzzzzzzzzzzzzzzzzzzzzzz",
" <zzzg6SVzzzzz6#   pSzzzzzzzzzzz <zxzg5SVzzzzzzzzzzzzzzzzzzzzzzz",
" <zzzg6SVzzzzz6#=SSVzzzzzzzzzzzz -zzxd6SVzzzzzzzzzzzzzzzzzzzzzzz",
" <zzzg6SVzzzzz6#;SVMzzxd<szzzzzz <zzzg6SVzzzzzzzzzzzzzzf<dzzzzzz",
" <zzzgrABzzzzz>;7Avzzzxy=wfzzzzz ;zzzgrABzzzzzzzzzzzzzza=wdzzzzz",
" <zzzzzzzzzzzz pAzzzzzzBS=,zzzzz <zzzzzzzzzzzzzzzzzzzzzMS=<zzzzz",
" <zzzzzzzzzzt+MBvzzzzzzxMMeOzzzz <zzzzzzzzzzzzzzzzzzzzzzVMeOzzzz",
" <zzzzzzzzzzs<VMzzzzzzzzzB7 zzzz <vzzzzzzzzzzzzzzzzzzzzzzM5 zzzz",
" <zzzzzzzzzzzzzzzzzzzzzzzz> zzzl <xxzzzzzzzzzzzzzzzzzzzzzz< zzzz",
" <zzzzzzzzzzzxzzzzzzzxxzzz<   X6 <zzzzzzzzzzzzzzzzzzzzzzzz,   X6",
" <zzzzzzzzzzgrzzzlzzzzllz:=>->,d <zjzzzzzzzzgrzzzzzzzzzzz;=->-,g",
" =tttttttagtr<ttttttyttttXo,-,9y *ttttytrygtw1tttttttttttoo-,,9r",
"         o2X                 ->          X6X                 -> "
};
