/* XPM */
static char *bf30091b035a475890f053e229c47f188EYrefyKdBdGnmB9[] = {
/* columns rows colors chars-per-pixel */
"64 64 96 2 ",
"   c #222034",
".  c #232134",
"X  c #2E273A",
"o  c #2D2B39",
"O  c #2F2D3B",
"+  c #332A38",
"@  c #382C3D",
"#  c #2E3537",
"$  c #363739",
"%  c #3C303E",
"&  c #402E3E",
"*  c #333241",
"=  c #3D3B43",
"-  c #3B3844",
";  c #3A3748",
":  c #3D3C49",
">  c #473241",
",  c #463740",
"<  c #4A3341",
"1  c #4D3C45",
"2  c #543D4E",
"3  c #424244",
"4  c #444146",
"5  c #434544",
"6  c #424049",
"7  c #45454F",
"8  c #4D454B",
"9  c #48464C",
"0  c #4D454D",
"q  c #47484F",
"w  c #4B484A",
"e  c #4D494B",
"r  c #4E4D4B",
"t  c #4F4F4B",
"y  c #544A4C",
"u  c #524F4E",
"i  c #56504F",
"p  c #434452",
"a  c #4C4B52",
"s  c #574953",
"d  c #4D5351",
"f  c #585252",
"g  c #595652",
"h  c #5A5753",
"j  c #5B5855",
"k  c #5C5956",
"l  c #5D5B58",
"z  c #5F5D5B",
"x  c #60595E",
"c  c #605E5C",
"v  c #61605E",
"b  c #5F5460",
"n  c #5B5864",
"m  c #5D5966",
"M  c #635966",
"N  c #675867",
"B  c #605C65",
"V  c #695B67",
"C  c #635E6B",
"Z  c #5C666A",
"A  c #5E6675",
"S  c #636261",
"D  c #656564",
"F  c #666564",
"G  c #666665",
"H  c #676767",
"J  c #64616B",
"K  c #686868",
"L  c #696A6A",
"P  c #6A6B6B",
"I  c #6E6D6F",
"U  c #626776",
"Y  c #6F6F71",
"T  c #676F7C",
"R  c #6F6F7B",
"E  c #736A73",
"W  c #736F73",
"Q  c #716C77",
"!  c #737174",
"~  c #727678",
"^  c #767478",
"/  c #79767C",
"(  c #7B777D",
")  c #73797A",
"_  c #7D797F",
"`  c #777E83",
"'  c #7E7A81",
"]  c #7D7C82",
"[  c #7C7F84",
"{  c #807B83",
"}  c #827C85",
"|  c #847E87",
" . c #828B90",
".. c #898993",
"X. c #8E9CA3",
"o. c #93A0A9",
/* pixels */
"O v L L * g g g g O       # $ s + v L L * g g g g O       # $ s + m L L * g g g g +       # $ s O v L L * k f g g +       # $ s ",
"g v L L L - y r 6 Q { _ Y L ~ T g v L L L - y t 1 T ' ' Y L ~ T h c P P L ; y t 6 Q [ _ ! P ~ T g v L L F ; y r 1 R [ ' Y L ~ T ",
"g v L L L x < 5 B W Y L / / L  .g v L L L z < 3 B Q Y L / / L  .g z P P L z , 3 m ! Y L ^ / L  .h m L L L c < 5 m ! Y H / / L  .",
"2 0 : ; X < g g z z g g k Y m * 2 0 : ; o < i j c z g g l Y m $ w 0 , ; o < g j z z g g z I m * 2 9 : - O < g g z z h g k Y m * ",
"| | | ^ V < g v l z k z G m 9 L | | | ^ V < h c z z z z F n 9 L | | } ^ V < g c k z l z F n q P  .{  .W V & g v k c k c G m 7 L ",
"| / ' _ ! M 4 c v j v K E 8 G L | / ' ' ! M 3 z v g v H E 9 K L | / ' ' Q M 4 c v g v H E 9 G K  .^ { _ E V 5 c v g v L E w G L ",
"! L L ^ { ^ J = w z h c + r S L ! L L ^ } ^ J = w z g z + y v P Q L L ^ ' ^ J = w z g z + i S K E K K ^ } ^ F < e c g c + u S L ",
"c L L L I } ^ R J 3 % +   o g S z L L L I } ( ! C 3 % O   o h v B L L L Y } ^ ~ C 3 % +   o g S c K P K E } ^ W C 3 + O   O g S ",
"j c L L L Y ! ..A @ ! | o.X.p u g v L L L I ! ..A & E { o.X.p i g c L L L W ! ..A @ W } o.X.p i g c L L L I ! ..A & W | o.X.p u ",
"g j G L L L L ..A e | } ' L ` Z g j F L L L L ..A 8 |  .' K ` Z g k F L L L K ..A w | | _ L ` Z g j G L L L L ..A w | | _ L ` Z ",
"g g g G L L L ..U e ! L _ ! L  .h g h F L L L ..U e ! L _ ! L  .g g g G L L L ..U 0 ! P _ ! L  .g g g G L L L ..U 0 W L _ ! L  .",
"j l g j G L L N z s L L L _ ! [ j k g j F P L M z i L L K _ ! [ k k g k G L L N x i P P L _ ! [ j z g k G L L V z u L L L _ ! [ ",
"l S j z k S a y f g L L L I / / j v c c l S a y f j K L L ! ^ / l S g c k S r u f h L L L I / / k S g c c v a y f g L L L I / / ",
") c j j k 5 w j v j G L L L L L ~ c h j j 5 w j c j F L L L L L ) v h k k 5 e j c j G L L L L L ) v j k k 5 e j c j G L L L L L ",
"[ g g g 1 , g g v k k G L L L L  .i h h 1 & g j c j j F L L L L [ g g g 1 & j j c k j G L L L I [ g g g 1 & g k v k k G L L L L ",
"& d q p @ G z g g g k k L L L ^ & d 7 p % K l f j j l j L L L ^ < d 7 7 @ K l h j g z h L L L ! < d q 7 @ L k g g g l k L L L ^ ",
"@ v L L * g g g g o       # $ s O v L L * j g g j O       # $ s + m L L * g g g g O       # $ s o v L L * g g g g O       # $ s ",
"g v L L L - y r 1 Q [ ' Y K ) T g v L L L - y t 3 Y } / Q L ~ T h z L L L - y r 6 Q { _ Y L ~ T g c L L L - y r 6 Q { _ Y L ~ T ",
"g v L L L c < 5 B ! I L / ^ L  .g z L L L z < 3 M ! Y L / / K  .h v L L L x < 5 B ! Y L / / L  .g v L L L x < 5 B W Y L / / L  .",
"2 0 : - o < g g z c g g k ! m * 2 9 : ; o < g g z z g g l I m * 2 e : ; O < g g z z g g l I m * 2 0 : ; X < g g z z g g k Y m * ",
"| } } ^ V < g c k c k c G n 9 L | | } ^ V < g c k c k z G m 9 L | | | ^ V < g v k c k c S n 9 L | | | ^ V < g v l c k z G m 9 L ",
"| / ' ' Q M 4 c c g v L E 8 G L | / ' ' Q M 4 c c g v L E 8 G L | / _ _ ! M 4 c v g c L Q w G L | / ' ' ! M 4 c v h v K E 8 G L ",
"Q L L ^ ' ^ J = e c g z + u S L Q L L ^ ' ^ J = e c g z + u S L ! L P ^ { ^ J = w z g z + i S L ! L L ^ { ^ J = w z h c + r S L ",
"c L L L W } ^ ~ C 5 @ O   o g S c L L L W } ^ ~ C 5 @ O   o g S z L L P I } ^ R C 3 % O   + g v c L L L I } ^ R J 3 % +   o g S ",
"g c L L L Y ! ..A @ ! } o.X.p u h c L L L Y ! ..A & W | o.X.p u g v L L L I ! ..A & ! | o.X.p u j c L L L Y ! ..A @ ! | o.X.p u ",
"g k G L L L L ..A w | | _ L ` Z g j G L L L L ..A w | | _ L ` Z h h G L L L L ..A 8 | | _ L ` Z g j G L L L L ..A e | } ' L ` Z ",
"g g j G L L P ..U 0 ! P _ ! L  .g g j G L L L ..U e ! L _ ! L  .g g g G L L L ..U 0 ! L _ ! L  .g g g G L L L ..U e ! L _ ! L  .",
"j z g j G L P N x i L P L ' ! [ k k g j G L L N M u L L L _ ! [ j z g g L L L M c y L L L _ ! [ j l g j G L L N z s L L L _ ! [ ",
"k S g c l v r y f h L L L I ( / l S g c c S a y i g L L L I / / z S g c k S a y f g I L L Y / / l S j z k S a y f g L L L I / / ",
") z k k k 5 w j c j G L L L L L ) c g k j 5 w k c j G L L L L L ) c k k k 5 w j v k F L L L P L ) c j j k 5 w j v j G L L L L L ",
"[ g g h 1 & j k c k j G L L L L [ g g g 1 , g g c k j G L L L I ` g g g 8 & g g c g k G L L L L [ g g g 1 , g g v k k G L L L L ",
"< d p 7 @ K l h j g l j L L L ^ < d p 7 @ G l g j g l j L L L ! & d w 7 @ H l g g g c g L L L / & d q p @ G z g g g k k L L L ^ ",
"+ v L L $ g g g i O       # $ s + m L L * g g g g +       # $ s @ v L L * g g g g o       # $ s O v K K $ f j g g O       # $ s ",
"h m L L K = y t 1 R ' ' Y L ~ T h z L L L - y r 6 Q [ _ Y L ~ T g v L L L - y u 1 Q [ _ Y L ~ T j m P P L ; y r 1 Q ' ' Y K ) T ",
"g v K L L M & w m ! I L / / L  .h v L L L x < 5 m ! Y L / / L  .g v L L L z < 3 B ! Y L / ^ L  .g S K P L x < 5 m ! Y L / / K  .",
"2 0 : - + & g h z z g g z Y m $ 2 e = ; O < g g c c g g l I m * 2 0 : = X < g g z z g g l Y m $ 2 9 : - o < g j z z g g z Y m * ",
" .| | ^ V & h c z j j c F b q L | | | ^ V < g v k c k c F n 9 L | | } ^ V < g v l z l z S M 9 L | | } ^ V < g c l c k z D n 9 G ",
"} ^ _ _ Q M e c Z g v K Q e G H | / ' ' ! M 4 c v g c L E 9 F L | / ' ' Q M 4 z v g v K Q 0 G L | / ' ' ! M 3 z c g c L R 8 G L ",
"! L P ^ { ^ J = w z h z + u S L ! L L ^ { ^ J = w z g z + i S K ! L L ^ ' ^ J = 8 c g z + r S L ! L L ^ } ^ J = e z g l + r S L ",
"c L L L Y ] ^ R C 5 % O   + g v z L L L I } ^ R C 3 % O   o g S c L L L Y } ^ ~ C 5 @ O   O g S z L L L Y } ^ R C 3 - +   o g S ",
"g c P L L I ! ..A & ! | o.X.p u g v L L L I ! ..A % ! | o.X.p i j M K P P I ! ..A & ! | o.X.p u g c P K P P ! ..A @ E  .X.X.7 y ",
"g k F P L L L ..A 8 | | _ L ` Z g j G L L L L ..A 8 } | ' L ` Z f j F P H P P ..A 9 | | _ L ` Z g j G P P P P ..U e  .} ( F ` J ",
"h i h G L L L ..U 8 ! L _ ! L  .g g g G L L L ..U 9 Y P ' ! L  .g g g F P P P ..U w ! K _ ! L  .g g g G K P K ..U e ! L _ ! P  .",
"h c h h G L L V x i L L L _ ! [ j z g g L L L M z i P P L _ ! [ j l g h H K P M l i P P L ' ! [ j z g k D P P N M y L L L ' ! [ ",
"l S j z c M t y f h P L L W / / z S g z k S a y s j P P K Y ' / l F h v l v r y f k L L L W / / k v g c k S a i f g L L L I / / ",
") v j j g 5 8 j v k G L L L P L ) c j j k 5 w j S j H H L K K L ) c j j j 5 w k c j G L L G L L ) Z j j k 5 w j c j G L L L L L ",
"[ g g g 8 & g g c g j F L L L L ` g j g 8 & g g z k j D L L L L [ j g g 1 & k g c j j G L L L L [ g g g 1 > g g v k k G L L L L ",
"& d w 7 @ G z g g g c g L L P / & d w 7 @ G z g i j z j L L L R & d q 7 @ G v g j g l j L L L ^ @ d w 7 @ F c g g g k k L L L ^ ",
"+ v L L * j i j g +       # $ s O v L L * g g g g O       # $ 0 + B L L $ k g g g O       # $ s @ v P L * g g g g +       # $ s ",
"j v L L K ; y r 1 R ` ' Y L ~ T g v L L L - y r 1 T ' ' Y P ! ` g c L L K $ y i 1 Q [ _ I L ~ T j v L L L = y e 1 R ' _ Y L ) T ",
"g S L L L z < 5 m ! Y H / / L  .g c L L L z < 4 M ! Y L / / P  .g v L L L N @ e m ! Y L / / L  .g c L L L x < 5 n ! I L / / F  .",
"2 0 : - + < g j z z j g j Y m * 2 0 : ; O < f g z z g g j Y m $ 2 e : - + % g h z z g g k ! m $ 2 0 : = X < g g Z l g g l ! m $ ",
" .} } ^ V < j z l z l z G n 9 L | | | ~ V < g v l z z z F n 9 L | | | ^ V % k v k z k c F n 9 L | | | ^ V < j z z c k c G n 9 G ",
"} ^ _ ' Q V 4 z c j c H Q 8 F L | / ' ' ! N 3 v v g c K W 8 G L | / ' ' ! N 8 z Z i v L E 9 F K | / ' ' ! N 4 x v g c L E 0 G L ",
"! L L ^ { ^ J - w c j z + r S L ! P P ^ } ^ J - w z g z + r S L ! L L ^ { ! J = w z g z o i S P ! L L ^ ` ! C = e z g z + r S L ",
"z P L L I } ^ ! J 5 % +   + g S z P K K I } ^ ! C 3 % O   o g S c L L L Y ' ^ R C 3 % O   O g c c L L L I | / ~ C 3 @ O   O j S ",
"j c L L L I ! ..A @ W | o.X.p y g v K L L I ! ..U @ ! | o.X.p i g v L L L Y W ..A & ! | o.X.7 i j c L L L Y ! ..A @ E } o.X.9 i ",
"g j G L L L L ..A w {  .( P ` Z g j F P L L L ..U e | | _ L ` Z g k G L L L L ..A 8 | | _ K [ Z g j G L L L L ..U e  .} / L ` Z ",
"g g g G L L L ..U e ! K _ ! L  .h h h F L L L ..U e ! L _ ! K  .g g g G L L L ..U 8 ! L _ ! L  .g g g G L L L ..U 0 ! L _ ! K  .",
"k k g k G L L V b i P P L ' ! [ j j g j F L L V x u L L L _ ! [ j k g k K L L M x f L P L _ ! [ g z g j G L L N z s L L L ' ! [ ",
"k S k z l v a y f g L L L I / / c v g v z S a y f g L L L I / / l S j z l S a y f j K K L I / / z S j z z v a y i g L L L I / / ",
") c j j l 5 r k v k G L L L L L ~ c j j g 5 8 j c j S L L L P P ) v j k j 5 8 j c j F P L L P P ~ c j j j 5 w j c j G L L L L L ",
"[ g g g 1 & g g v k k G L L L L  .i g h 1 & g j c k k G L L L L [ g g g 1 , g g c j j F L L P P [ g g g 1 , g g S k j G L L L L ",
"& d q p @ G z g g g k k L L L ^ & d q q @ P k g k g k k L L L / & d 7 7 @ G z g g g c j L L P / @ d q p @ H z g g g z k L L L ! "
};
