/* XPM */
static char *cea7fd908ba64af1e50131d15c9c7b933DPWkxagTL0xmC65[] = {
/* columns rows colors chars-per-pixel */
"64 64 170 2 ",
"   c black",
".  c #0A020E",
"X  c #07010C",
"o  c #0D0512",
"O  c #151116",
"+  c #27391A",
"@  c #293C1B",
"#  c #313C13",
"$  c #2F382A",
"%  c #283522",
"&  c #323D2C",
"*  c #2E441E",
"=  c #324D15",
"-  c #30461F",
";  c #394418",
":  c #3A4A1A",
">  c #3B4114",
",  c #3F521E",
"<  c #37551C",
"1  c #2E4221",
"2  c #314720",
"3  c #334A22",
"4  c #384F24",
"5  c #35422D",
"6  c #2F5220",
"7  c #365225",
"8  c #395326",
"9  c #345A25",
"0  c #3B5C25",
"q  c #3B5528",
"w  c #375D2B",
"e  c #3A5F2A",
"r  c #3E4E34",
"t  c #3C632B",
"y  c #3E6B2B",
"u  c #2C653B",
"i  c #3E6631",
"p  c #3F6831",
"a  c #326B3D",
"s  c #475A1B",
"d  c #485D1C",
"f  c #405037",
"g  c #415138",
"h  c #476327",
"j  c #43642C",
"k  c #436A2E",
"l  c #4F6E2F",
"z  c #45742F",
"x  c #446532",
"c  c #426C33",
"v  c #496D34",
"b  c #466038",
"n  c #4D6A3B",
"m  c #4B6439",
"M  c #457234",
"N  c #4A7535",
"B  c #477438",
"V  c #4D763A",
"C  c #4D7B3A",
"Z  c #4A7936",
"A  c #517031",
"S  c #53763F",
"D  c #527C3C",
"F  c #226E4D",
"G  c #317044",
"H  c #357846",
"J  c #216F50",
"K  c #257451",
"L  c #297652",
"P  c #297856",
"I  c #247B5A",
"U  c #4F6741",
"Y  c #596D48",
"T  c #536B41",
"R  c #547343",
"E  c #557C45",
"W  c #587E4E",
"Q  c #6D6E67",
"!  c #6B6B6B",
"~  c #727272",
"^  c #4E8336",
"/  c #4F803B",
"(  c #52833D",
")  c #52893A",
"_  c #59973D",
"`  c #1E8166",
"'  c #138E7C",
"]  c #258664",
"[  c #288965",
"{  c #258B69",
"}  c #278D74",
"|  c #568443",
" . c #5A8643",
".. c #5E8E47",
"X. c #5D844B",
"o. c #5F8848",
"O. c #5D9642",
"+. c #4B8459",
"@. c #4B8157",
"#. c #61894C",
"$. c #66934E",
"%. c #658652",
"&. c #658A52",
"*. c #698E55",
"=. c #6A8C55",
"-. c #6E8E5B",
";. c #688456",
":. c #679251",
">. c #6A9553",
",. c #6C955A",
"<. c #70955A",
"1. c #72955D",
"2. c #719655",
"3. c #468D63",
"4. c #769B62",
"5. c #789E61",
"6. c #7E9F69",
"7. c #79A461",
"8. c #809D64",
"9. c #3F1F80",
"0. c #372E83",
"q. c #382F86",
"w. c #383087",
"e. c #3E3493",
"r. c #402184",
"t. c #413296",
"y. c #42379C",
"u. c #4437A6",
"i. c #4933A4",
"p. c #453AA4",
"a. c #4336A9",
"s. c #4B3EAF",
"d. c #463AA8",
"f. c #4B3EB1",
"g. c #2D4A8E",
"h. c #354597",
"j. c #2D569C",
"k. c #1F6292",
"l. c #187498",
"z. c #374BA0",
"x. c #3E42A0",
"c. c #3355A3",
"v. c #3359A8",
"b. c #296AAA",
"n. c #534B8F",
"m. c #4E4594",
"M. c #4C439A",
"N. c #504794",
"B. c #696680",
"V. c #5147A6",
"C. c #4940B0",
"Z. c #4E42BB",
"A. c #1B9989",
"S. c #009595",
"D. c #009B95",
"F. c #009799",
"G. c #009C9D",
"H. c #01A39F",
"J. c #03A196",
"K. c #1480A0",
"L. c #009EA3",
"P. c #00A3A3",
"I. c #00A9A7",
"U. c #00A5AB",
"Y. c #00ACAC",
"T. c #00B2AD",
"R. c #00ADB2",
"E. c #00B1B1",
"W. c #00BFB5",
"Q. c #00B5B9",
/* pixels */
"                                                M M c c Z c i t w t u p c p i B                                                 ",
"                                                M M c B Z p t t 9 w t p M c x v                                                 ",
"                                                c c c c M B B Z ^ Z / p c p i p                                                 ",
"                                                p c c p p p E ) _ O.O./ c i t B                                                 ",
"                                                p E X.X.X.%.-.*.$.:.:.o.E V M E                                                 ",
"                                                t E ,.,.,.4.7.4.1.1.1.&.o.| C |                                                 ",
"                                                E X.*.&.%.*.-.;.X.=.,.#.D D C |                                                 ",
"                                                %.&.,.*.%.&.;.W R %.7.#.D C Z |                                                 ",
"                                                =.n $ f $ m =.&.:.U & 5 % b X.&.                                                ",
"                                                1.f . O . f 2.=.7.g X O o r -.o.                                                ",
"                                                D S m n Y n x m x n R m t p v M                                                 ",
"                                                l #.2.2.8.S - 4 - R 7...^ z 9 y                                                 ",
"                                                k N D N v v j j j k c k M k t k                                                 ",
"                                                N z N k t j A l A j 6 t z p t k                                                 ",
"                                                e y t t 0 t t j k t 9 t k y t t                                                 ",
"                                                = = = = 9 9 7 9 j e < 0 h 0 < <                                                 ",
"                            @ @ - 8 3 + @ 7 8 a J F J u q t y t t t q G P L K a 8 7 * + - 8 - @ @                               ",
"                            @ @ 3 8 - @ * 7 s ] L.G.U.] s M ) M t j s ` U.L.U.] s 7 @ @ 3 8 2 @ @                               ",
"                            @ @ 2 q 3 + 1 8 : ] P.G.P.' L H B p t G L ' U.H.U.] : 8 * + 2 q 3 @ @                               ",
"                            2 * 2 3 2 * 1 2 : ] R.I.P.P.U.I s t d I U.P.E.Y.Q.{ : 3 - * - 3 2 1 2                               ",
"                            7 8 * + * q 3 @ # { E.I.I.P.P.' L I P ' P.P.T.Y.Q.] # @ 3 q - + - 8 8                               ",
"                            7 7 2 @ 2 8 4 @ # { Q.Y.E.Y.P.U.P.P.L.L.I.I.R.Y.Q.{ # % 3 q - @ - 4 7                               ",
"                            4 7 * + 1 8 3 @ # { Q.Y.Y.Y.Y.P.G.D.S.P.Y.Y.T.Y.Q.{ # + 3 7 2 + 1 8 7                               ",
"                            7 q 3 * 3 q 7 1 > ] Q.Y.E.R.E.P.F.G.F.P.E.Y.E.Y.Q.{ ; 1 7 q 3 - 3 q 8                               ",
"                              n @.+.+.+.+.+.3.A.I.P.P.I.R.I.P.P.S.P.T.I.P.P.Y.} W +.+.+.+.+.+.n x                               ",
"                                                S.F.S.P.E.Y.E.P.S.P.E.P.S.S.F.A.                                                ",
"                                                F.F.F.P.E.Y.I.P.S.P.E.P.G.G.S.P.                                                ",
"                                                F.S.S.P.E.Y.P.P.S.P.E.Y.I.L.S.P.                                                ",
"                                                S.G.P.I.E.P.G.P.G.U.R.Y.U.G.S.P.                                                ",
"                                                S.P.E.R.E.P.S.G.I.Y.Y.I.I.P.S.P.                                                ",
"                                                S.P.Y.Y.E.P.S.P.I.Y.E.Y.P.H.S.P.                                                ",
"                                                S.H.T.Y.T.P.F.P.I.Y.E.I.I.P.S.P.                                                ",
"                                                P.P.T.Y.T.P.S.P.U.Y.R.Y.Y.P.S.P.                                                ",
"                                                T.E.E.Y.E.P.S.H.I.I.T.R.E.P.S.P.                                                ",
"                                                G.P.P.P.P.L.H.P.Y.I.I.Y.Y.P.S.P.                                                ",
"                                                D.F.D.F.D.H.I.T.E.T.I.Y.E.H.S.P.                                                ",
"                                                h.c.c.c.c.c.c.v.v.j.g.l.E.P.S.P.                                                ",
"                                                i.i.i.i.i.i.i.i.i.t.r.l.W.P.S.P.                                                ",
"                                                y.p.d.p.p.p.p.p.d.p.y.h.g.l.D.P.                                                ",
"                                                p.p.p.d.p.p.p.p.p.p.i.t.0.k.J.b.                                                ",
"                                                Z.Z.Z.Z.Z.Z.Z.s.p.p.p.p.p.y.x.C.                                                ",
"                                                y.d.d.d.d.p.d.p.p.p.p.p.p.p.p.C.                                                ",
"                                                p.p.p.p.p.p.p.p.p.p.p.p.p.p.p.s.                                                ",
"                                                y.d.p.p.p.p.p.p.p.p.p.p.p.p.p.s.                                                ",
"                                                y.V.d.p.p.p.p.p.p.p.d.d.d.p.p.s.                                                ",
"                                                p.p.p.p.p.p.p.p.p.p.p.p.p.p.p.f.                                                ",
"                                                p.d.p.p.p.p.p.d.p.p.p.p.p.d.y.f.                                                ",
"                                                y.p.d.p.d.d.p.p.d.p.p.p.p.p.p.C.                                                ",
"                                                p.p.p.p.p.p.d.p.p.p.p.d.d.p.p.f.                                                ",
"                                                p.p.p.p.p.p.p.p.p.y.y.y.y.p.y.s.                                                ",
"                                                p.y.e.e.e.t.p.p.p.t.w.w.w.t.p.s.                                                ",
"                                                p.t.0.q.0.t.p.p.p.y.w.e.e.y.p.f.                                                ",
"                                                p.y.y.y.y.y.p.p.p.p.p.d.p.p.p.f.                                                ",
"                                                p.d.u.p.d.d.p.p.p.p.p.p.p.p.y.f.                                                ",
"                                                p.p.p.p.p.p.p.p.p.p.p.p.p.p.p.C.                                                ",
"                                                p.p.p.p.p.p.p.d.d.p.p.p.d.p.p.f.                                                ",
"                                                p.p.d.p.d.d.p.p.p.p.p.d.d.p.p.s.                                                ",
"                                                y.p.p.d.p.p.p.p.p.V.p.p.p.p.y.f.                                                ",
"                                                p.u.a.u.u.p.d.a.a.a.a.a.a.u.a.V.                                                ",
"                                                M.M.M.M.M.M.M.N.n.n.n.n.n.n.m.B.                                                ",
"                                                Q ! ! ! ! ! ! Q Q Q Q Q Q Q Q ~                                                 ",
"                                                ! ! ! ! ! ! ! ! ! ! ! ! ! ! ! ~                                                 ",
"                                                ! ! ! ! ! ! ! ~ ! ! ! ! ! ! ! !                                                 ",
"                                                ! ! ! ! ! ! ! ! ! ! ! ! ! ! ! ~                                                 "
};